<?xml version="1.0" encoding="UTF-8"?>
<svg id="Livello_2" data-name="Livello 2" xmlns="http://www.w3.org/2000/svg" viewBox="0 0 48.3 70.4">
  <defs>
    <style>
      .cls-1 {
        fill: #fff;
      }
    </style>
  </defs>
  <g id="Livello_1-2" data-name="Livello 1">
    <path class="cls-1" d="M48.3,8.03c0,.38-.09.86-.26,1.46-.17.6-.38,1.21-.64,1.84-.26.63-.54,1.23-.84,1.79-.31.56-.6.96-.87,1.2-.07.17-.09.32-.05.43.03.12.05.26.05.43,0,.1-.09.26-.28.49-.19.22-.4.46-.64.72-.24.26-.48.5-.72.74s-.39.43-.46.56l.1.61c0,.1-.05.39-.15.87-.1.48-.21,1-.33,1.56-.12.56-.23,1.08-.33,1.56-.1.48-.17.75-.2.82-.17.2-.37.37-.59.49-.22.12-.38.32-.49.59-.2.48-.31.98-.31,1.51s-.14,1.03-.41,1.51c-.1.2-.27.45-.51.74-.24.29-.5.59-.79.9-.29.31-.56.61-.79.92-.24.31-.41.58-.51.82-.17.27-.24.55-.2.82.03.27-.03.55-.2.82-.34.65-.78,1.23-1.3,1.74-.53.51-.98,1.06-1.36,1.64-.41.58-.67,1.19-.77,1.84-.1.65-.29,1.3-.56,1.94-.27.48-.62.87-1.05,1.18-.43.31-.78.68-1.05,1.13,0,.17.06.32.18.43.12.12.26.22.41.31.15.09.3.17.43.26.14.09.24.2.31.33.17.34.27.63.31.87.03.24.19.51.46.82.68.96,1.29,1.84,1.82,2.66.53.82,1.03,1.76,1.51,2.81l.66.31c.2.48.31.98.31,1.51s.14,1.03.41,1.51c.37.79.9,1.49,1.56,2.12.66.63,1.37,1.19,2.12,1.66.07.68.29,1.19.67,1.54.37.34.77.71,1.18,1.1.41.39.78.92,1.1,1.59.32.67.49,1.66.49,2.99,0,.07-.15.38-.46.95s-.65,1.18-1.02,1.87c-.38.68-.72,1.3-1.02,1.87s-.48.86-.51.9c-.38,0-.72-.03-1.05-.1-.32-.07-.64-.1-.95-.1-.55,0-1.04.17-1.48.51-.99-.2-1.81-.57-2.46-1.1-.65-.53-1.23-1.13-1.74-1.82-.51-.68-1.02-1.38-1.51-2.1-.49-.72-1.07-1.38-1.71-2-.1-.37-.22-.72-.36-1.05-.14-.32-.24-.67-.31-1.05-1.43-1.16-2.67-2.46-3.71-3.89-1.04-1.43-1.82-3.07-2.33-4.91-.48.03-.87.3-1.18.79-.31.49-.63,1.03-.97,1.61-.34.58-.74,1.12-1.2,1.61-.46.49-1.07.76-1.82.79-.03.51-.16.95-.38,1.3-.22.36-.48.68-.77.97-.29.29-.57.59-.84.9-.27.31-.48.68-.61,1.13-.48.2-.95.4-1.43.59-.48.19-.9.45-1.28.79-.31.27-.57.61-.79,1.02-.22.41-.43.82-.61,1.23-.19.41-.38.81-.59,1.2-.2.39-.44.71-.72.95-.1.07-.2.12-.31.15-.1.03-.2.07-.28.1-.09.03-.14.08-.15.15-.02.07,0,.17.08.31-.61.07-1.15.22-1.61.46-.46.24-.89.49-1.3.77-.41.27-.79.52-1.15.74-.36.22-.74.33-1.15.33s-.8-.1-1.18-.31c-.38-.2-.72-.43-1.02-.67l-.41-.72c-.44-.34-.74-.58-.9-.72-.15-.14-.26-.26-.31-.36s-.09-.21-.13-.33c-.03-.12-.15-.32-.36-.59l-.61-.31c-.17-.38-.24-.83-.2-1.36.03-.53,0-.98-.1-1.36-.14-.37-.3-.74-.49-1.1-.19-.36-.28-.72-.28-1.1,0-.2.03-.41.1-.61.07-.2.14-.39.2-.56l.77-.41c.24-.58.57-1.07,1-1.46.43-.39.89-.74,1.38-1.05s1-.61,1.51-.9c.51-.29.99-.62,1.43-1,.65-.48,1.23-.98,1.74-1.51.51-.53,1.09-1.03,1.74-1.51,0-.44.1-.84.31-1.18.2-.34.31-.72.31-1.13,1.26-1.16,2.55-2.29,3.86-3.4,1.31-1.11,2.5-2.36,3.56-3.76-.38-.37-.57-.81-.59-1.3-.02-.49-.16-.96-.44-1.41-.17-.31-.43-.58-.77-.82-.34-.24-.65-.53-.92-.87-.17-.24-.42-.56-.74-.97s-.66-.83-1-1.25c-.34-.43-.66-.84-.95-1.23-.29-.39-.5-.71-.64-.95-.38-.65-.63-1.23-.77-1.74-.14-.51-.28-1.01-.43-1.51-.15-.49-.38-1.01-.67-1.56-.29-.55-.79-1.18-1.51-1.89,0-.17.02-.34.05-.51.03-.17.05-.34.05-.51,0-.51-.09-.99-.28-1.43-.19-.44-.38-.89-.56-1.33-.19-.44-.33-.88-.44-1.3-.1-.43-.05-.86.15-1.3-.68-.92-1.39-1.82-2.12-2.69-.73-.87-1.4-1.78-2-2.74-.6-.95-1.09-1.95-1.48-2.99-.39-1.04-.59-2.17-.59-3.4,0-.85.21-1.62.64-2.3.43-.68.97-1.26,1.64-1.74.67-.48,1.4-.85,2.2-1.13.8-.27,1.58-.41,2.33-.41.95,0,1.82.32,2.61.95.78.63,1.47,1.41,2.05,2.33.58.92,1.06,1.89,1.43,2.92.37,1.02.61,1.93.72,2.71.1.14.35.45.74.95.39.49.81,1.02,1.25,1.56.44.55.84,1.05,1.2,1.51s.55.71.59.74c.1.24.15.43.15.59s0,.32.03.51c.02.19.08.4.18.64.1.24.29.56.56.97.07.27.08.54.05.79-.03.26-.05.52-.05.79s.14.72.43,1.33c.29.61.64,1.24,1.05,1.87.41.63.83,1.2,1.25,1.71.43.51.78.82,1.05.92.07.58.2,1.17.41,1.77.2.6.53,1.13.97,1.61.44-.03.78-.17,1-.41.22-.24.43-.5.61-.79.19-.29.37-.58.56-.87.19-.29.47-.5.84-.64.03-.2.14-.55.33-1.05.19-.49.38-1.01.59-1.56.2-.55.41-1.05.61-1.51s.36-.78.46-.95c.41-.55.91-.99,1.51-1.33.6-.34,1.1-.8,1.51-1.38l-.1-.82c0-.34.05-.84.15-1.51s.22-1.35.36-2.05c.14-.7.29-1.36.46-2,.17-.63.34-1.1.51-1.41.31-.65.76-1.19,1.36-1.64.6-.44,1.05-1.01,1.36-1.69.2-.55.26-1.07.18-1.56-.09-.49-.04-.98.13-1.46.17-.65.44-1.35.82-2.1.37-.75.82-1.43,1.33-2.05.51-.61,1.1-1.13,1.77-1.53.67-.41,1.36-.61,2.07-.61.27,0,.52,0,.74.03.22.02.47.08.74.18l.61.61c.61.14,1.05.37,1.3.69.26.32.44.7.56,1.13.12.43.25.87.38,1.33.14.46.39.88.77,1.25-.2.2-.31.53-.31.97,0,.31.05.61.15.92s.15.61.15.92Z"/>
  </g>
</svg>