<svg width="278" height="77" viewBox="0 0 278 77" fill="none" xmlns="http://www.w3.org/2000/svg">
<rect width="257.858" height="60.3548" rx="18" transform="matrix(0.99792 0.0644571 -0.0714512 0.997444 20.6797 0)" fill="#B03D4F"/>
<path d="M78.314 30.0675C78.2574 30.1291 78.217 30.2374 78.1928 30.3924C78.1817 30.5483 78.1696 30.7171 78.1566 30.8989C78.1565 31.0816 78.157 31.2578 78.1579 31.4275C78.1588 31.5971 78.156 31.7274 78.1494 31.8183C78.1392 31.9612 78.1225 32.1037 78.0993 32.2457C78.09 32.3756 78.0607 32.5107 78.0115 32.651L77.7316 33.0048C77.7 33.081 77.6879 33.1585 77.6953 33.2373C77.7037 33.3031 77.7055 33.3684 77.7009 33.4334L77.6939 33.5308L77.4099 33.669C77.2901 33.8831 77.1824 34.111 77.0868 34.3527C76.9911 34.5944 76.8825 34.8353 76.7609 35.0754C76.6532 35.3033 76.5199 35.523 76.3612 35.7346C76.2164 35.934 76.0344 36.1049 75.8154 36.2473C75.7476 36.2821 75.6812 36.2974 75.6163 36.2932C75.5513 36.289 75.484 36.3172 75.4144 36.378C75.1814 36.5325 74.9735 36.7018 74.7906 36.8857C74.6086 37.0566 74.3668 37.1519 74.0652 37.1715C73.9501 37.3207 73.7459 37.5293 73.4525 37.7974C73.1731 38.0534 72.8668 38.3206 72.5335 38.5992C72.2133 38.8786 71.9009 39.1389 71.5964 39.3802C71.2929 39.6085 71.0669 39.757 70.9184 39.8257C70.8237 39.8718 70.7239 39.898 70.619 39.9042C70.5151 39.8975 70.4107 39.8973 70.3058 39.9036C70.2018 39.8969 70.097 39.9031 69.9911 39.9224C69.8993 39.9295 69.812 39.963 69.7294 40.0229C69.5233 40.1662 69.2922 40.2948 69.036 40.4087C68.7937 40.5105 68.5353 40.5656 68.2605 40.5739C68.1185 40.7344 67.9468 40.8537 67.7453 40.9321C67.5569 41.0112 67.356 41.0831 67.1425 41.1476C66.929 41.212 66.7216 41.2835 66.5201 41.3618C66.3187 41.4401 66.1345 41.5522 65.9674 41.6979C65.7019 41.7591 65.4263 41.7804 65.1404 41.762C64.8545 41.7435 64.5654 41.7705 64.273 41.8429C64.1235 42.2899 64.013 42.7395 63.9415 43.1915C63.8708 43.6306 63.8193 44.0774 63.7867 44.5319C63.7541 44.9865 63.7281 45.4415 63.7085 45.8969C63.7019 46.3531 63.6828 46.8021 63.6512 47.2436L63.6261 47.5943C63.471 47.7539 63.323 47.9074 63.1819 48.0549C63.0398 48.2153 62.8932 48.3494 62.7419 48.457C62.5896 48.5777 62.4137 48.6642 62.2142 48.7165C62.0267 48.7827 61.8095 48.8078 61.5626 48.7919C61.2248 48.7701 60.9046 48.6841 60.602 48.5341C60.3116 48.3979 60.0076 48.2674 59.6902 48.1425C59.5946 48.0189 59.5348 47.8519 59.5107 47.6416C59.5005 47.4192 59.4681 47.2344 59.4133 47.0873C59.1999 46.9692 59.063 46.8755 59.0027 46.8064C58.9424 46.7372 58.9201 46.5923 58.9359 46.3715C58.9443 46.2546 58.9063 46.1478 58.8218 46.051C58.7374 45.9542 58.7026 45.8019 58.7175 45.5941C58.7417 45.2564 58.8128 44.9022 58.9307 44.5314C59.0616 44.1615 59.1717 43.8098 59.2608 43.4763C59.3175 43.2321 59.3398 43.0117 59.3278 42.8152C59.3287 42.6196 59.338 42.3984 59.3557 42.1516C59.3669 41.9957 59.417 41.8424 59.5062 41.6916C59.5165 41.1834 59.5397 40.6761 59.576 40.1695C59.6262 39.6509 59.663 39.1379 59.6863 38.6305C59.7096 38.1232 59.7129 37.621 59.6963 37.1242C59.6936 36.6151 59.6454 36.1032 59.5517 35.5882C59.587 35.46 59.6344 35.3457 59.6938 35.2451C59.7672 35.1324 59.8335 35.0258 59.893 34.9253C59.9663 34.8126 60.0266 34.6991 60.074 34.5847C60.1214 34.4703 60.1501 34.3417 60.1604 34.1988C60.1836 33.8742 60.1466 33.5717 60.0492 33.2914C59.9527 32.9981 59.9156 32.6956 59.9379 32.3839C59.9565 32.1241 59.9914 31.9111 60.0425 31.7448C60.1065 31.5793 60.1757 31.4337 60.25 31.3081C60.3242 31.1824 60.3911 31.0693 60.4505 30.9687C60.5099 30.8682 60.5577 30.7473 60.594 30.6061C60.5596 30.5387 60.5248 30.4777 60.4896 30.4232C60.4543 30.3688 60.439 30.3091 60.4437 30.2441C60.4483 30.1792 60.4715 30.1285 60.5133 30.0921C60.5551 30.0556 60.5969 30.0192 60.6386 29.9827C60.6247 29.8122 60.5835 29.6595 60.5148 29.5246C60.4601 29.3775 60.4248 29.2317 60.4091 29.0872C60.3646 28.6146 60.316 28.1091 60.2631 27.5708C60.2113 27.0194 60.2016 26.5164 60.2342 26.0619C60.263 25.6593 60.3304 25.2657 60.4362 24.8811C60.5421 24.4965 60.6099 24.0964 60.6397 23.6808C60.6685 23.2782 60.619 22.877 60.4909 22.4773C60.658 22.3315 60.775 22.1564 60.8419 21.952C60.9227 21.7354 61.0169 21.5131 61.1246 21.2852C61.2323 21.0573 61.3794 20.8255 61.566 20.5896C61.7666 20.3416 62.084 20.1012 62.5184 19.8683C62.7217 19.764 62.9524 19.6419 63.2104 19.502C63.4694 19.3491 63.7247 19.2481 63.9762 19.1991C64.2416 19.138 64.5052 19.1028 64.767 19.0936C65.0426 19.0723 65.3174 19.064 65.5912 19.0686C65.8659 19.0602 66.1406 19.0519 66.4154 19.0435C66.691 19.0222 66.9685 18.9749 67.2479 18.9016C67.5282 18.8153 67.8025 18.7221 68.0708 18.622C68.3399 18.5089 68.6369 18.4629 68.9618 18.4839C69.1567 18.4965 69.3428 18.5411 69.52 18.6178C69.7112 18.6823 69.895 18.7594 70.0713 18.8491C70.2486 18.9258 70.4193 19.0021 70.5836 19.0779C70.7618 19.1416 70.9483 19.1798 71.1433 19.1924C71.3252 19.2041 71.5085 19.1964 71.6932 19.1692C71.8779 19.1419 72.0621 19.1212 72.2459 19.107C72.6097 19.3132 72.9596 19.5315 73.2955 19.7619C73.6454 19.9803 73.9957 20.1921 74.3465 20.3974C74.4217 20.4414 74.5043 20.4728 74.5943 20.4917C74.6983 20.4984 74.7883 20.5173 74.8644 20.5483C75.2931 20.7586 75.6263 21.0281 75.8638 21.3565C76.1153 21.6729 76.3918 22.0039 76.6934 22.3496C76.7398 22.4308 76.7844 22.5381 76.827 22.6713C76.8827 22.8054 76.9244 22.9516 76.9522 23.11C76.9931 23.2692 77.0339 23.4284 77.0747 23.5876C77.1164 23.7338 77.1665 23.8545 77.225 23.9496C77.2584 24.0301 77.3127 24.0923 77.3878 24.1363C77.463 24.1803 77.5168 24.249 77.5493 24.3424C77.6087 24.4245 77.6286 24.5106 77.6091 24.6007C77.6026 24.6916 77.629 24.7781 77.6884 24.8603C77.7432 25.0073 77.8243 25.1496 77.932 25.287C78.0536 25.4123 78.1612 25.5497 78.2549 25.6993C78.2028 26.4266 78.2027 27.1572 78.2545 27.8913C78.3064 28.6253 78.3262 29.3507 78.314 30.0675ZM73.6783 28.085C73.6951 27.8512 73.6784 27.6283 73.6283 27.4163C73.5922 27.1922 73.5425 26.9737 73.4795 26.7608C73.4303 26.5359 73.3877 26.3113 73.3515 26.0871C73.3163 25.85 73.3135 25.615 73.3433 25.382C73.1985 25.2161 73.0194 25.0741 72.8059 24.9559C72.6055 24.8386 72.4204 24.6896 72.2505 24.509C72.1513 24.2547 71.9879 24.0745 71.7606 23.9685C71.5471 23.8504 71.3044 23.776 71.0325 23.7453C70.7615 23.7017 70.4821 23.6837 70.1944 23.6912C69.9197 23.6996 69.6654 23.6962 69.4315 23.6811C69.1326 23.6618 68.83 23.6031 68.5238 23.505C68.2305 23.4078 67.9344 23.3495 67.6356 23.3302C67.1158 23.2967 66.6118 23.4076 66.1236 23.6631C65.6363 23.9057 65.2659 24.2471 65.0124 24.6874C65.0013 24.8432 64.9966 24.9995 64.9984 25.1562C65.0003 25.3129 64.9961 25.4626 64.9858 25.6055C64.9728 25.7873 64.9403 25.9679 64.8883 26.1472C64.8502 26.3144 64.7931 26.4738 64.717 26.6254C64.8032 26.8789 64.8631 27.1372 64.8964 27.4003C64.9437 27.6513 64.9581 27.9066 64.9395 28.1664C64.9199 28.4391 64.8674 28.7162 64.782 28.9978C64.7095 29.2801 64.6241 29.5617 64.5257 29.8424C64.4412 30.1109 64.3571 30.373 64.2736 30.6285C64.203 30.8849 64.1593 31.13 64.1426 31.3638C64.1221 31.6495 64.1541 31.9321 64.2385 32.2115C64.3359 32.4918 64.3938 32.7761 64.4124 33.0643C64.4197 33.5084 64.3876 33.9565 64.3161 34.4085C64.2585 34.8484 64.2138 35.2892 64.1822 35.7308C64.1617 36.0165 64.1552 36.2901 64.1626 36.5515C64.1699 36.8129 64.1977 37.0626 64.246 37.3006C64.5699 37.3346 64.8706 37.3279 65.1481 37.2806C65.4396 37.2211 65.7189 37.1478 65.9863 37.0607C66.2675 36.9615 66.5427 36.8553 66.8119 36.7422C67.082 36.6161 67.3716 36.4913 67.6807 36.3677C67.8682 36.3016 68.0617 36.2423 68.2613 36.1899C68.4748 36.1255 68.6762 36.0471 68.8655 35.955C68.9741 35.8968 69.1394 35.777 69.3612 35.5956C69.5961 35.415 69.8323 35.215 70.0699 34.9955C70.3206 34.7768 70.5508 34.5699 70.7606 34.3747C70.9713 34.1665 71.1133 34.006 71.1867 33.8933C71.2303 33.8309 71.2545 33.7672 71.2591 33.7023C71.2638 33.6374 71.3009 33.5745 71.3705 33.5138C71.4123 33.4773 71.4722 33.4616 71.5501 33.4667C71.6281 33.4717 71.688 33.456 71.7297 33.4195C71.7715 33.3831 71.8416 33.3159 71.94 33.2178C72.0523 33.1077 72.1646 32.9975 72.277 32.8873C72.3902 32.7642 72.49 32.6467 72.5763 32.5348C72.6627 32.4229 72.7137 32.348 72.7295 32.3098C72.8075 32.1322 72.834 31.9447 72.809 31.7474C72.7979 31.5379 72.7998 31.3293 72.8146 31.1215C72.8286 30.9267 72.8602 30.7591 72.9094 30.6187C72.9595 30.4654 73.0102 30.3056 73.0612 30.1393C73.1253 29.9738 73.1838 29.7949 73.2367 29.6026C73.2897 29.4103 73.3259 29.1778 73.3455 28.905C73.3594 28.7102 73.416 28.5573 73.5154 28.4463C73.6147 28.3353 73.669 28.2148 73.6783 28.085ZM97.956 49.1463C97.9392 49.3801 97.8919 49.5858 97.8139 49.7634C97.7368 49.928 97.6477 50.0788 97.5465 50.2158C97.4453 50.3528 97.3311 50.489 97.2039 50.6243C97.0898 50.7604 96.9802 50.923 96.8753 51.1119L96.6052 51.0553C96.3453 51.0385 96.0841 51.0412 95.8214 51.0634C95.5587 51.0856 95.2975 51.0883 95.0376 51.0715C94.8037 51.0564 94.5856 51.0032 94.3833 50.9118C94.194 50.8213 94.0562 50.6493 93.9699 50.3958C93.7954 50.2802 93.6191 50.1905 93.4409 50.1268C93.2618 50.0761 93.1059 49.9747 92.9732 49.8226L92.9871 49.6278C93.0002 49.4459 92.9533 49.2798 92.8466 49.1294C92.7399 48.979 92.6736 48.8116 92.6476 48.6273C92.5948 48.2716 92.5883 47.9058 92.6283 47.53C92.6692 47.1412 92.7027 46.765 92.7287 46.4014C92.752 46.0767 92.7423 45.7564 92.6997 45.4405C92.657 45.1246 92.6074 44.8148 92.5508 44.511C92.4952 44.1943 92.4456 43.8844 92.402 43.5815C92.3724 43.2665 92.3817 42.9539 92.43 42.6439C91.876 42.5429 91.3275 42.4553 90.7845 42.3811C90.2555 42.2947 89.7051 42.233 89.1334 42.1961C88.6526 42.1651 88.1635 42.1596 87.666 42.1796C87.1824 42.1875 86.7068 42.2677 86.239 42.4202C86.0023 42.2614 85.7434 42.1402 85.4622 42.0568C85.194 41.9743 84.9169 41.9238 84.631 41.9053C84.3322 41.886 84.063 41.9078 83.8236 41.9706C83.701 42.2236 83.6304 42.48 83.6118 42.7398C83.5932 42.9995 83.5356 43.2567 83.439 43.5115C83.4047 43.6267 83.3532 43.7082 83.2845 43.7559C83.2297 43.7915 83.187 43.8409 83.1564 43.9042C83.1257 43.9675 83.1141 44.0385 83.1215 44.1172C83.1299 44.183 83.1312 44.2549 83.1257 44.3328C83.1201 44.4107 83.0528 44.5303 82.9237 44.6916C82.8077 44.8537 82.7251 45.005 82.6758 45.1453C82.5867 45.4788 82.5217 45.8399 82.4807 46.2287C82.4538 46.6053 82.4273 46.9755 82.4012 47.3391C82.3956 47.4171 82.4165 47.4902 82.4638 47.5585C82.5121 47.6138 82.5339 47.6739 82.5292 47.7388C82.5246 47.8038 82.4146 47.9728 82.1992 48.246C81.9847 48.5061 81.7424 48.7906 81.4723 49.0993C81.2161 49.3959 80.9752 49.6609 80.7496 49.8942C80.5231 50.1405 80.4029 50.2697 80.389 50.2819C80.2961 50.302 80.2108 50.3095 80.1328 50.3045C80.0548 50.2995 79.9769 50.2944 79.8989 50.2894C79.4441 50.26 79.0102 50.1211 78.5973 49.8726C78.1834 49.6371 77.8177 49.3656 77.5004 49.058L77.5199 48.7853C77.5441 48.4476 77.5423 48.1083 77.5145 47.7672C77.4876 47.4132 77.4473 47.0648 77.3936 46.7221C77.5922 46.5001 77.7264 46.2674 77.796 46.024C77.8657 45.7806 77.8973 45.5217 77.8908 45.2472C78.0171 45.1249 78.122 45.0273 78.2055 44.9544C78.302 44.8824 78.3791 44.8091 78.4367 44.7345C78.4942 44.6599 78.5332 44.5711 78.5536 44.468C78.5871 44.3658 78.6103 44.2238 78.6233 44.042L78.6289 43.9641L78.9185 43.7479C78.9547 43.6067 78.964 43.4768 78.9464 43.3583C78.9297 43.2267 78.9265 43.0895 78.9368 42.9466C78.9442 42.8427 78.9632 42.7592 78.9939 42.6959L79.264 42.4785C79.2956 42.4023 79.3072 42.3312 79.2988 42.2655C79.2914 42.1867 79.2901 42.1148 79.2947 42.0499C79.2994 41.985 79.3226 41.9343 79.3643 41.8978C79.407 41.8484 79.4562 41.7994 79.5119 41.7508C79.5676 41.7022 79.6168 41.6532 79.6595 41.6038C79.7022 41.5543 79.7259 41.4971 79.7306 41.4322L79.7362 41.3543C79.209 41.2419 78.6892 41.2084 78.1769 41.2536C78.0164 41.1258 77.8498 40.9911 77.6772 40.8494C77.5176 40.7086 77.3714 40.5622 77.2387 40.4101C77.106 40.258 77.0007 40.0881 76.9228 39.9004C76.8448 39.7127 76.8142 39.502 76.831 39.2682C76.8617 38.8396 76.9694 38.5204 77.1541 38.3105C77.3389 38.1006 77.5533 37.9318 77.7974 37.804C78.0555 37.6641 78.3256 37.5381 78.6077 37.4258C78.9029 37.3144 79.1698 37.1425 79.4084 36.91L80.4219 36.9754C80.6725 36.7568 80.892 36.5165 81.0805 36.2547C81.2829 35.9807 81.4477 35.6847 81.5749 35.3667C81.6222 35.2524 81.6506 35.1303 81.6599 35.0004C81.6692 34.8705 81.6975 34.7484 81.7449 34.634C81.8804 34.3818 82.0531 34.1581 82.2629 33.9629C82.4736 33.7547 82.6407 33.5176 82.7642 33.2516C82.844 33.048 82.8789 32.8349 82.8687 32.6125C82.8585 32.39 82.8934 32.177 82.9732 31.9733C83.1153 31.6302 83.2676 31.3269 83.43 31.0634C83.5925 30.7999 83.7485 30.536 83.898 30.2716C84.0614 29.9952 84.2011 29.6845 84.3172 29.3397C84.4332 28.9949 84.5094 28.5693 84.5457 28.0628C84.5513 27.9848 84.5364 27.9186 84.5012 27.8642C84.4659 27.8097 84.4511 27.7435 84.4567 27.6656C84.4623 27.5877 84.5226 27.4741 84.6377 27.325C84.7658 27.1767 84.8536 27.0454 84.9009 26.931C84.9501 26.7906 84.9599 26.6543 84.9302 26.5219C84.9145 26.3773 84.9117 26.2336 84.9219 26.0908C84.9284 25.9999 85.0143 25.8032 85.1796 25.5007C85.3458 25.1852 85.5389 24.8585 85.7589 24.5204C85.9799 24.1693 86.2055 23.8447 86.4357 23.5464C86.6669 23.2351 86.8511 23.0318 86.9885 22.9363C87.022 22.6514 87.0916 22.408 87.1975 22.206C87.3042 21.9911 87.4231 21.79 87.554 21.6028C87.6849 21.4155 87.8223 21.2287 87.9662 21.0423C88.11 20.8558 88.2358 20.6487 88.3435 20.4208C88.5255 20.4325 88.661 20.363 88.7501 20.2122C88.778 20.1879 88.8179 20.1774 88.8698 20.1808C89.0777 20.1942 89.3102 20.2288 89.5673 20.2845C89.8244 20.3403 90.1219 20.3791 90.4597 20.4009C90.7586 20.4202 91.0393 20.5101 91.3019 20.6706C91.5785 20.8189 91.8272 20.9915 92.0481 21.1885C92.2569 21.3716 92.4443 21.6707 92.6104 22.0859C92.7894 22.502 92.9508 22.9821 93.0946 23.5264C93.2393 24.0576 93.3682 24.627 93.4813 25.2345C93.6075 25.8428 93.7215 26.4373 93.8235 27.018C93.9265 27.5857 94.0257 28.114 94.1212 28.603C94.2176 29.0789 94.3141 29.4635 94.4106 29.7568C94.4625 29.9428 94.5349 30.1171 94.6277 30.2797C94.7214 30.4293 94.7933 30.6101 94.8434 30.8221C94.8693 31.0064 94.8688 31.1956 94.8419 31.3895C94.8149 31.5835 94.827 31.78 94.878 31.979C94.9179 32.1512 94.9721 32.3048 95.0408 32.4397C95.1094 32.5746 95.1707 32.7221 95.2245 32.8821C95.2996 33.2914 95.3348 33.7112 95.3301 34.1415C95.3263 34.5588 95.3954 34.9612 95.5373 35.3487C95.8202 36.1368 96.0373 36.9337 96.1884 37.7394C96.3526 38.5459 96.4053 39.3582 96.3467 40.1765C96.3337 40.3583 96.3722 40.55 96.4622 40.7515C96.4547 40.8554 96.4793 40.9679 96.5359 41.089C96.5925 41.2101 96.6551 41.3381 96.7238 41.473C96.8064 41.5957 96.8825 41.7181 96.9521 41.84C97.0346 41.9628 97.0917 42.0773 97.1232 42.1838C97.1436 42.2634 97.1803 42.481 97.2331 42.8367C97.2869 43.1794 97.342 43.594 97.3986 44.0804C97.4681 44.5677 97.5348 45.0939 97.5988 45.6591C97.6637 46.2113 97.7239 46.737 97.7795 47.2365C97.836 47.7229 97.8777 48.1431 97.9046 48.4971C97.9444 48.852 97.9616 49.0684 97.956 49.1463ZM91.5997 38.1084C91.6053 37.8478 91.578 37.5916 91.5177 37.3398C91.4574 37.088 91.3836 36.8419 91.2964 36.6014C91.2232 36.3488 91.1434 36.0957 91.0571 35.8422C90.9848 35.5766 90.9319 35.3122 90.8985 35.0491C90.8791 34.7739 90.887 34.4808 90.9223 34.1699C90.9707 33.8599 90.9665 33.553 90.91 33.2493C90.8822 33.0909 90.8446 32.9776 90.7973 32.9093C90.7629 32.8418 90.7281 32.7809 90.6929 32.7264C90.6715 32.6598 90.6511 32.5802 90.6317 32.4876C90.6131 32.382 90.6118 32.2188 90.6276 31.998C90.6359 31.8811 90.6114 31.7687 90.5538 31.6606C90.5093 31.5533 90.4583 31.4456 90.4008 31.3375C90.3432 31.2294 90.2871 31.1019 90.2324 30.9548C90.1906 30.8086 90.1767 30.6381 90.1907 30.4432C90.1991 30.3264 90.2269 30.2107 90.2743 30.0964C90.3226 29.969 90.3639 29.8477 90.3982 29.7325C90.1672 29.4958 89.977 29.2356 89.8276 28.9519C89.6912 28.6691 89.5279 28.3976 89.3377 28.1374C89.243 28.1835 89.1785 28.2641 89.1441 28.3794C89.1097 28.4946 89.0874 28.6236 89.0772 28.7665C89.0679 28.8963 89.0581 29.0327 89.0479 29.1756C89.0377 29.3184 89.0098 29.4341 88.9643 29.5225C88.917 29.6368 88.8325 29.7227 88.7109 29.7801C88.6032 29.8253 88.5067 29.8974 88.4213 29.9962C88.3489 30.0959 88.2885 30.2095 88.2402 30.3368C88.2049 30.465 88.1265 30.5578 88.0049 30.6152L87.9212 31.7841C87.5972 32.1154 87.321 32.5086 87.0926 32.9636C86.8772 33.4194 86.6864 33.8963 86.5202 34.3945C86.3669 34.8934 86.2327 35.4001 86.1176 35.9146C86.0163 36.4169 85.9239 36.8872 85.8403 37.3254C85.8774 37.3539 85.9215 37.3763 85.9725 37.3927C86.0245 37.396 86.07 37.399 86.1089 37.4015C86.3298 37.4157 86.5461 37.4036 86.7577 37.3651C86.9703 37.3136 87.187 37.295 87.4079 37.3092C87.9666 37.3453 88.5096 37.4195 89.0367 37.5319C89.1778 37.5671 89.2975 37.627 89.3959 37.7116C89.5082 37.7841 89.6358 37.825 89.7787 37.8342C89.8437 37.8384 89.8971 37.8223 89.9388 37.7858C89.9936 37.7502 90.073 37.7358 90.1769 37.7425C90.3848 37.7559 90.5755 37.827 90.7491 37.9556C90.9226 38.0842 91.1133 38.1553 91.3212 38.1687C91.3992 38.1737 91.492 38.1536 91.5997 38.1084ZM121.887 47.7171C121.875 47.873 121.794 48.0047 121.643 48.1124C121.505 48.2209 121.392 48.3311 121.306 48.4429C121.235 48.5166 121.203 48.5994 121.21 48.6911C121.216 48.7829 121.197 48.873 121.151 48.9614C121.082 49.0221 121.001 49.056 120.909 49.0631C120.83 49.0711 120.769 49.1063 120.725 49.1687C120.64 49.2676 120.56 49.3863 120.484 49.525C120.409 49.6637 120.327 49.8019 120.239 49.9397C120.165 50.0654 120.072 50.1833 119.959 50.2935C119.86 50.4045 119.737 50.4879 119.589 50.5436C119.508 50.5775 119.415 50.5976 119.311 50.6039C119.22 50.598 119.122 50.5917 119.018 50.585C118.745 50.5674 118.45 50.5026 118.131 50.3907C117.826 50.2797 117.59 50.1079 117.424 49.8753C117.349 49.8313 117.229 49.7779 117.064 49.715C116.912 49.64 116.748 49.5707 116.57 49.507C116.405 49.4311 116.247 49.3622 116.095 49.3002C115.944 49.2252 115.843 49.1665 115.794 49.1242C115.734 49.0551 115.682 48.9539 115.64 48.8206C115.598 48.6744 115.548 48.5538 115.489 48.4586C115.419 48.3497 115.334 48.2594 115.235 48.1878C115.135 48.1161 115.057 48.0262 114.999 47.9181C114.93 47.7962 114.887 47.663 114.871 47.5184C114.87 47.3617 114.84 47.2229 114.784 47.1018C114.652 46.754 114.467 46.4159 114.23 46.0874C113.993 45.7459 113.756 45.4175 113.517 45.102C113.386 44.9239 113.199 44.7161 112.955 44.4785C112.711 44.2409 112.543 44.0344 112.451 43.8588C112.418 43.7784 112.404 43.6927 112.411 43.6018C112.417 43.5109 112.404 43.4252 112.37 43.3447C112.305 43.1579 112.22 42.9892 112.113 42.8388C112.007 42.6754 111.943 42.4821 111.919 42.2588C111.78 42.0149 111.6 41.801 111.378 41.6171C111.17 41.421 110.997 41.188 110.86 40.9182C110.699 40.6207 110.509 40.3475 110.292 40.0987C110.089 39.8376 109.885 39.5831 109.681 39.335C109.491 39.0748 109.321 38.8029 109.172 38.5193C109.022 38.2356 108.928 37.9099 108.889 37.542C108.589 37.1834 108.261 36.8425 107.905 36.5195C107.551 36.1834 107.291 35.8013 107.126 35.3731C107.035 35.1846 106.962 35.0233 106.906 34.8892C106.851 34.7421 106.782 34.6137 106.699 34.5039C106.615 34.3942 106.512 34.2896 106.388 34.1903C106.278 34.0919 106.116 33.9835 105.902 33.8654C105.848 34.0836 105.805 34.3092 105.776 34.5422C105.76 34.763 105.744 34.9838 105.728 35.2045C105.678 35.9059 105.667 36.6032 105.696 37.2966C105.725 37.977 105.715 38.6679 105.665 39.3692C105.647 39.6159 105.604 39.848 105.537 40.0655C105.469 40.2829 105.427 40.502 105.411 40.7228C105.385 41.0865 105.398 41.4461 105.451 41.8018C105.518 42.1454 105.538 42.499 105.512 42.8626C105.505 42.9665 105.512 43.0518 105.533 43.1184C105.555 43.185 105.583 43.2456 105.618 43.3C105.654 43.3415 105.684 43.3891 105.706 43.4427C105.729 43.4833 105.738 43.5426 105.732 43.6205C105.717 43.8283 105.683 44.0284 105.63 44.2207C105.578 44.413 105.544 44.613 105.529 44.8208C105.521 44.9247 105.531 45.0689 105.557 45.2532C105.595 45.4384 105.64 45.6305 105.691 45.8295C105.742 46.0285 105.794 46.221 105.846 46.407C105.912 46.5809 105.974 46.7154 106.032 46.8105C105.913 47.0246 105.807 47.2265 105.715 47.4163C105.624 47.5931 105.545 47.7772 105.479 47.9687C105.427 48.148 105.388 48.3411 105.36 48.5481C105.333 48.742 105.323 48.9632 105.332 49.2117C105.259 49.3114 105.1 49.4446 104.853 49.6113C104.607 49.7651 104.335 49.9171 104.037 50.0675C103.739 50.2179 103.455 50.3496 103.186 50.4627C102.918 50.5628 102.732 50.6095 102.628 50.6028C102.511 50.5952 102.421 50.5763 102.358 50.5462C102.294 50.529 102.244 50.4997 102.207 50.4582C102.171 50.4167 102.129 50.3748 102.079 50.3325C102.044 50.278 101.983 50.2219 101.896 50.164C101.822 50.0941 101.715 50.048 101.573 50.0257C101.445 49.9914 101.344 49.9392 101.271 49.8692C101.161 49.7578 101.044 49.5741 100.918 49.3181C100.807 49.0499 100.703 48.7692 100.607 48.4759C100.523 48.1835 100.452 47.8984 100.394 47.6206C100.335 47.3428 100.312 47.126 100.323 46.9702C100.338 46.7624 100.404 46.5644 100.522 46.3763C100.653 46.1891 100.744 46.0058 100.796 45.8265C100.886 45.493 100.965 45.1197 101.033 44.7066C101.115 44.2944 101.169 43.9064 101.195 43.5428C101.221 43.1791 101.168 42.8234 101.037 42.4757C101.131 42.2469 101.2 42.01 101.244 41.7649C101.289 41.5069 101.319 41.2609 101.336 41.0272C101.372 40.5206 101.359 39.9783 101.296 39.4001C101.234 38.809 101.089 38.2842 100.86 37.8259C100.889 37.6059 100.943 37.4006 101.022 37.21C101.115 37.0073 101.207 36.811 101.299 36.6212C101.391 36.4314 101.483 36.2416 101.575 36.0519C101.668 35.8491 101.735 35.6447 101.776 35.4385C101.864 35.118 101.9 34.8007 101.883 34.4865C101.879 34.1731 101.888 33.867 101.91 33.5683C101.922 33.3995 101.945 33.2575 101.979 33.1423C102.015 33.0141 102.07 32.8806 102.145 32.742C102.132 32.5585 102.093 32.3798 102.027 32.2059C101.974 32.0329 101.941 31.8546 101.928 31.6711C101.916 31.4746 101.923 31.2794 101.95 31.0854C101.978 30.8784 102 30.6646 102.016 30.4438C102.034 30.197 102.031 29.962 102.008 29.7387C101.984 29.5154 101.982 29.2803 101.999 29.0336C102.013 28.8387 102.065 28.6594 102.155 28.4956C102.246 28.3188 102.299 28.133 102.313 27.9382C102.345 27.4837 102.333 27.0262 102.274 26.5657C102.217 26.0923 102.204 25.6283 102.237 25.1737C102.26 24.849 102.398 24.5579 102.652 24.3003C102.919 24.0305 103.176 23.8122 103.423 23.6455C104.312 23.8073 105.059 24.1296 105.664 24.6123C106.283 25.0958 106.67 25.7928 106.827 26.7032C106.833 26.795 106.854 26.8616 106.891 26.903C106.928 26.9315 106.965 26.9535 107.003 26.969C107.055 26.9724 107.107 26.9823 107.158 26.9986C107.209 27.0149 107.259 27.0508 107.307 27.1061C107.39 27.2159 107.428 27.3292 107.42 27.4461C107.424 27.5638 107.455 27.6767 107.513 27.7848C107.703 28.045 107.835 28.2036 107.909 28.2606C107.998 28.3054 108.066 28.349 108.115 28.3913C108.178 28.4345 108.243 28.53 108.31 28.6779C108.392 28.8136 108.521 29.1025 108.699 29.5446C108.88 29.752 109.04 29.9776 109.179 30.2214C109.332 30.4531 109.478 30.6909 109.617 30.9347C109.769 31.1794 109.929 31.418 110.095 31.6506C110.262 31.8701 110.457 32.0654 110.679 32.2363C110.693 32.4069 110.727 32.5657 110.782 32.7127C110.837 32.8598 110.871 33.0186 110.885 33.1891C110.931 33.2833 111.036 33.4467 111.202 33.6793C111.383 33.8997 111.562 34.1331 111.74 34.3794C111.932 34.6136 112.099 34.8332 112.241 35.0381C112.384 35.23 112.454 35.3389 112.452 35.3649C112.449 35.4168 112.473 35.4445 112.525 35.4478C112.701 35.5375 112.85 35.6515 112.97 35.7898C113.104 35.9289 113.244 36.0619 113.392 36.1889C113.519 36.7842 113.762 37.3088 114.121 37.7625C114.48 38.2163 114.895 38.628 115.364 38.9975C115.367 39.1412 115.397 39.2736 115.453 39.3947C115.511 39.5028 115.575 39.6113 115.645 39.7203C115.73 39.8171 115.807 39.9199 115.878 40.0289C115.961 40.1386 116.025 40.2536 116.068 40.3739C116.102 40.4543 116.116 40.5335 116.11 40.6114C116.105 40.6894 116.119 40.7686 116.152 40.849C116.184 40.9424 116.238 41.0176 116.312 41.0746C116.399 41.1324 116.473 41.2024 116.532 41.2845C116.577 41.3788 116.608 41.4917 116.625 41.6233C116.656 41.7427 116.686 41.8686 116.716 42.001C116.759 42.1212 116.817 42.2293 116.888 42.3253C116.961 42.4082 117.068 42.4608 117.21 42.483C117.302 42.2933 117.357 42.0685 117.376 41.8087C117.395 41.536 117.382 41.2677 117.335 41.0037C117.289 40.7398 117.23 40.475 117.157 40.2094C117.099 39.9316 117.046 39.6607 117 39.3968C116.954 39.1328 116.94 38.8645 116.96 38.5917C116.973 38.4099 117.03 38.244 117.133 38.094C117.235 37.9441 117.292 37.7782 117.305 37.5963C117.318 37.4145 117.292 37.2367 117.226 37.0628C117.161 36.8759 117.121 36.7037 117.106 36.5462C117.076 36.2441 117.073 35.9113 117.1 35.5476C117.14 35.1718 117.167 34.7952 117.18 34.4177C117.194 34.0402 117.182 33.6741 117.142 33.3192C117.115 32.9652 117.026 32.6593 116.875 32.4017C116.906 32.3254 116.925 32.2483 116.93 32.1704C116.936 32.0925 116.941 32.0145 116.947 31.9366C116.971 31.5989 116.97 31.2531 116.943 30.8991C116.917 30.5321 116.917 30.1667 116.943 29.8031C116.962 29.5433 117.006 29.2853 117.077 29.0289C117.149 28.7595 117.278 28.5069 117.464 28.271C117.444 28.0087 117.369 27.7821 117.239 27.591C117.122 27.4008 117.013 27.1915 116.912 26.9632C116.916 26.8982 116.927 26.8402 116.944 26.7891C116.961 26.725 116.973 26.6605 116.977 26.5956C116.986 26.4657 116.977 26.328 116.948 26.1827C116.919 26.0373 116.884 25.898 116.841 25.7647C116.812 25.6194 116.783 25.474 116.755 25.3286C116.739 25.1841 116.743 25.0408 116.766 24.8988L116.785 24.626L116.93 24.5179C116.939 24.3881 116.941 24.2708 116.936 24.166C116.93 24.0613 116.932 23.9505 116.94 23.8336C116.956 23.6128 117.062 23.4044 117.259 23.2083C117.47 23.0001 117.711 22.82 117.983 22.6679C118.256 22.5029 118.533 22.3772 118.813 22.291C119.107 22.1925 119.352 22.1496 119.547 22.1622C119.676 22.1706 119.804 22.2115 119.929 22.2848C120.055 22.3581 120.173 22.4375 120.284 22.523C120.409 22.6093 120.527 22.6952 120.638 22.7807C120.762 22.867 120.895 22.9343 121.035 22.9825C121.143 23.2896 121.3 23.5607 121.505 23.7957C121.711 24.0178 121.869 24.2694 121.98 24.5505C122.022 24.6838 122.038 24.8348 122.026 25.0036C122.027 25.1603 122.022 25.3296 122.009 25.5114C121.997 25.6802 121.991 25.856 121.991 26.0387C122.004 26.2092 122.045 26.3749 122.112 26.5358C122.026 26.6346 121.965 26.7611 121.928 26.9153C121.892 27.0565 121.867 27.2115 121.855 27.3804C121.843 27.5492 121.838 27.7185 121.839 27.8881C121.84 28.0448 121.837 28.1881 121.827 28.318C121.82 28.4219 121.794 28.505 121.751 28.5675C121.707 28.6299 121.682 28.713 121.674 28.8169C121.668 28.9079 121.682 28.9805 121.717 29.035C121.753 29.0765 121.769 29.1297 121.765 29.1946C121.756 29.3115 121.714 29.4458 121.638 29.5974C121.563 29.7361 121.508 29.8631 121.473 29.9783C121.406 30.1957 121.357 30.4144 121.329 30.6343C121.314 30.8421 121.299 31.0434 121.285 31.2383C121.241 31.8617 121.263 32.4568 121.353 33.0236C121.443 33.5905 121.5 34.1683 121.523 34.7569C121.52 35.1612 121.504 35.5646 121.475 35.9672C121.447 36.3569 121.412 36.7526 121.371 37.1543C121.343 37.544 121.315 37.9336 121.287 38.3232C121.272 38.7137 121.276 39.1054 121.301 39.4984C121.319 39.9693 121.351 40.3497 121.395 40.6397C121.453 40.9304 121.504 41.2143 121.549 41.4912C121.596 41.7551 121.633 42.0511 121.662 42.3792C121.691 42.7072 121.686 43.144 121.646 43.6895C121.62 44.0531 121.634 44.4128 121.687 44.7685C121.74 45.1112 121.754 45.4644 121.728 45.828C121.712 46.0618 121.741 46.292 121.816 46.5187C121.905 46.7332 121.941 46.9574 121.924 47.1911L121.915 47.3275L121.761 47.5525C121.852 47.5583 121.894 47.6132 121.887 47.7171ZM143.804 48.9762C143.862 49.254 143.882 49.5228 143.863 49.7825C143.84 50.1072 143.76 50.4086 143.622 50.6868C143.498 50.9658 143.367 51.2509 143.228 51.5421C143.077 51.6497 142.908 51.7301 142.722 51.7833C142.535 51.8365 142.36 51.91 142.197 52.0038C141.913 52.1421 141.671 52.2374 141.471 52.2897C141.285 52.3429 141.1 52.3701 140.917 52.3713C140.734 52.3726 140.539 52.36 140.332 52.3336C140.125 52.3072 139.866 52.2839 139.554 52.2637C139.073 52.2327 138.627 52.2626 138.216 52.3535C137.819 52.4322 137.451 52.4606 137.114 52.4388C136.776 52.417 136.42 52.3679 136.047 52.2917C135.688 52.2032 135.327 52.1472 134.963 52.1237C134.742 52.1095 134.526 52.1216 134.314 52.1601C134.116 52.1865 133.91 52.2449 133.694 52.3354C133.499 52.3228 133.322 52.2526 133.161 52.1248C133.015 51.9849 132.831 51.9078 132.61 51.8935C132.493 51.8859 132.388 51.8987 132.294 51.9318C132.2 51.9649 132.088 51.9772 131.958 51.9688C131.737 51.9546 131.533 51.8957 131.344 51.7922C131.169 51.6895 130.971 51.631 130.75 51.6168C130.425 51.5958 130.082 51.6454 129.721 51.7656C129.361 51.8728 128.999 51.9147 128.635 51.8912C128.427 51.8778 128.242 51.8201 128.08 51.7183C127.93 51.6173 127.782 51.4969 127.636 51.3569C127.503 51.2048 127.377 51.0531 127.257 50.9019C127.137 50.7506 127.004 50.6115 126.856 50.4846C126.841 50.327 126.794 50.0761 126.714 49.7317C126.648 49.3881 126.575 49.0312 126.497 48.6608C126.419 48.2904 126.353 47.9469 126.297 47.6301C126.241 47.3134 126.217 47.1031 126.225 46.9992C126.235 46.8563 126.264 46.7212 126.312 46.5939C126.362 46.4535 126.391 46.3119 126.402 46.169C126.415 45.9872 126.394 45.8163 126.34 45.6562C126.288 45.4832 126.268 45.3058 126.281 45.1239C126.284 45.085 126.292 44.9616 126.307 44.7538C126.335 44.5468 126.357 44.3265 126.374 44.0927C126.405 43.8468 126.428 43.6199 126.443 43.4121C126.47 43.2051 126.492 43.0826 126.508 43.0445C126.495 42.861 126.455 42.6888 126.388 42.5279C126.335 42.3549 126.283 42.1753 126.231 41.9893C126.412 41.2834 126.532 40.6127 126.591 39.9771C126.65 39.3286 126.706 38.6341 126.759 37.8939C126.764 37.8289 126.735 37.7814 126.672 37.7512C126.61 37.708 126.534 37.677 126.443 37.6582C126.366 37.6401 126.282 37.6282 126.192 37.6223C126.114 37.6173 126.055 37.6135 126.016 37.611C125.938 37.6059 125.854 37.594 125.764 37.5751C125.674 37.5563 125.6 37.4993 125.541 37.4042C125.312 37.3241 125.119 37.1942 124.962 37.0145C124.819 36.8226 124.663 36.6363 124.493 36.4558L124.51 36.222C124.513 36.0004 124.547 35.7938 124.613 35.6024C124.693 35.3988 124.772 35.2016 124.851 35.011C124.944 34.8083 125.03 34.6116 125.109 34.421C125.189 34.2173 125.25 34.006 125.291 33.7869C125.414 33.7165 125.541 33.6725 125.673 33.655C125.806 33.6244 125.859 33.5104 125.834 33.3131C125.972 33.2176 126.144 33.183 126.351 33.2095C126.572 33.2237 126.754 33.2355 126.897 33.2447L126.975 33.2497C127.024 33.1094 127.053 32.9743 127.062 32.8444C127.086 32.7024 127.102 32.5599 127.113 32.4171C127.161 31.7417 127.144 31.0687 127.061 30.3979C126.992 29.728 126.981 29.0554 127.03 28.38C127.044 28.1852 127.096 27.9146 127.186 27.5681C127.277 27.2086 127.381 26.8435 127.499 26.4728C127.618 26.089 127.742 25.7252 127.871 25.3812C128.001 25.0243 128.106 24.7505 128.185 24.5599C128.553 24.5184 128.898 24.4364 129.22 24.3136C129.556 24.1918 129.892 24.1417 130.23 24.1636C130.425 24.1761 130.625 24.2086 130.83 24.261C131.035 24.3134 131.228 24.3455 131.41 24.3572C131.592 24.369 131.756 24.36 131.902 24.3303C132.048 24.3005 132.2 24.2712 132.358 24.2423C132.517 24.2134 132.695 24.1858 132.893 24.1594C133.091 24.1331 133.326 24.1287 133.599 24.1463C134.638 24.2135 135.694 24.236 136.766 24.2139C137.852 24.1797 138.928 24.1056 139.993 23.9918C140.058 23.996 140.118 23.9868 140.172 23.9641C140.238 23.9424 140.311 23.934 140.389 23.939C140.428 23.9415 140.464 23.9765 140.499 24.044C140.547 24.0993 140.583 24.1473 140.606 24.1879C140.687 24.154 140.779 24.1404 140.883 24.1471C141.001 24.1416 141.112 24.1423 141.216 24.149C141.593 24.1733 141.965 24.2561 142.334 24.3974C142.703 24.5256 143.067 24.6404 143.425 24.7419C143.471 25.0058 143.512 25.2628 143.546 25.513C143.593 25.7639 143.608 26.0193 143.589 26.279C143.557 26.7206 143.469 27.0476 143.323 27.26C143.178 27.4594 143.004 27.6177 142.799 27.735C142.596 27.8393 142.38 27.9428 142.151 28.0454C141.922 28.135 141.709 28.2909 141.51 28.5129L141.218 28.494C140.741 28.411 140.259 28.3864 139.774 28.4203C139.289 28.4542 138.799 28.4552 138.305 28.4233C138.11 28.4107 137.934 28.4189 137.775 28.4478C137.63 28.4645 137.491 28.4947 137.357 28.5382C137.236 28.5826 137.109 28.6331 136.974 28.6896C136.841 28.7332 136.687 28.7755 136.515 28.8165C136.31 28.7641 136.117 28.7256 135.936 28.7008C135.756 28.6631 135.562 28.6375 135.354 28.6241C134.678 28.5805 134.016 28.616 133.368 28.7307C132.721 28.8454 132.07 28.9013 131.418 28.8983C131.29 29.0466 131.219 29.2117 131.206 29.3935C131.189 29.6403 131.21 29.883 131.272 30.1219C131.347 30.3485 131.389 30.5796 131.398 30.815C131.394 31.0496 131.377 31.2964 131.345 31.5553C131.327 31.8021 131.31 32.0488 131.292 32.2956C131.287 32.5432 131.296 32.7852 131.318 33.0215C131.354 33.2586 131.429 33.4788 131.545 33.682C131.621 33.713 131.704 33.7379 131.794 33.7568C131.897 33.7765 132.001 33.7897 132.105 33.7964C132.43 33.8174 132.757 33.8059 133.086 33.7619C133.43 33.7058 133.757 33.6879 134.069 33.708C134.589 33.7416 135.091 33.8457 135.574 34.0205C136.072 34.1831 136.587 34.2816 137.119 34.316C137.236 34.3236 137.355 34.3051 137.476 34.2608C137.61 34.2172 137.748 34.2 137.891 34.2093C137.956 34.2135 138.019 34.2436 138.08 34.2998C138.141 34.3559 138.23 34.3878 138.347 34.3953C138.529 34.4071 138.701 34.3725 138.864 34.2917C139.026 34.2109 139.212 34.1771 139.419 34.1906C139.588 34.2015 139.741 34.2505 139.879 34.3377C140.03 34.4127 140.173 34.5068 140.309 34.6199C140.445 34.72 140.582 34.8202 140.718 34.9203C140.856 35.0075 141.002 35.0626 141.157 35.0856C141.138 35.3454 141.185 35.5964 141.299 35.8385C141.412 36.0807 141.459 36.3317 141.44 36.5914C141.426 36.7992 141.332 37.015 141.159 37.2387C140.987 37.4494 140.784 37.645 140.549 37.8256C140.314 38.0061 140.068 38.1663 139.81 38.3062C139.565 38.447 139.356 38.5379 139.183 38.5789C139.078 38.5982 138.973 38.5979 138.87 38.5782C138.78 38.5594 138.696 38.5474 138.618 38.5424C138.449 38.5315 138.278 38.5466 138.106 38.5876C137.933 38.6286 137.76 38.6762 137.587 38.7302C137.426 38.7851 137.253 38.8326 137.067 38.8728C136.895 38.9138 136.711 38.9281 136.516 38.9155C136.23 38.897 135.946 38.8591 135.662 38.8016C135.392 38.745 135.108 38.7071 134.809 38.6878C134.64 38.6769 134.483 38.6863 134.337 38.716C134.191 38.7458 134.034 38.7552 133.865 38.7443C133.722 38.735 133.556 38.6916 133.365 38.6141C133.175 38.5366 132.985 38.4526 132.796 38.3621C132.607 38.2715 132.43 38.1884 132.266 38.1125C132.101 38.0367 131.974 37.9958 131.883 37.9899C131.831 37.9866 131.784 38.0031 131.742 38.0396C131.714 38.0638 131.679 38.0942 131.638 38.1307C131.61 38.155 131.569 38.1784 131.515 38.201C131.474 38.2245 131.416 38.2207 131.34 38.1897C131.266 38.3024 131.212 38.4228 131.177 38.551C131.155 38.6671 131.141 38.7836 131.132 38.9004C131.114 39.1602 131.121 39.4151 131.156 39.6653C131.191 39.9024 131.2 40.1443 131.182 40.3911C131.169 40.5729 131.13 40.7596 131.064 40.951C130.999 41.1295 130.96 41.3096 130.947 41.4915C130.935 41.6603 130.943 41.9022 130.973 42.2173C131.004 42.5194 131.039 42.8413 131.08 43.1832C131.134 43.5259 131.174 43.8743 131.201 44.2283C131.229 44.5694 131.234 44.8633 131.216 45.11C131.187 45.5126 131.139 45.914 131.071 46.3141C131.004 46.7012 130.956 47.0961 130.927 47.4987C131.284 47.6261 131.637 47.7141 131.986 47.7627C132.334 47.8114 132.691 47.8474 133.055 47.8709C133.912 47.9263 134.78 47.9302 135.658 47.8825C136.536 47.8348 137.411 47.8261 138.284 47.8564C138.557 47.874 138.823 47.8977 139.082 47.9275C139.353 47.9581 139.626 47.9822 139.899 47.9998C140.224 48.0208 140.534 47.9691 140.83 47.8447C141.126 47.7203 141.417 47.6674 141.703 47.6858C142.197 47.7177 142.538 47.9616 142.728 48.4174L142.886 48.3885C143.004 48.3831 143.101 48.4024 143.176 48.4464C143.251 48.4904 143.319 48.5405 143.381 48.5966C143.455 48.6536 143.522 48.7166 143.582 48.7858C143.643 48.8549 143.716 48.9184 143.804 48.9762ZM165.165 46.7939C165.14 47.1316 165.041 47.5101 164.868 47.9295C164.708 48.3367 164.49 48.6423 164.215 48.8463C164.237 48.8999 164.244 48.9787 164.237 49.0826C164.222 49.2904 164.17 49.4762 164.079 49.64C164.003 49.7917 163.94 49.9506 163.889 50.117C163.71 50.6013 163.475 51.0688 163.181 51.5196C162.888 51.9703 162.551 52.3857 162.172 52.7656C161.792 53.1456 161.376 53.4841 160.924 53.7811C160.485 54.0789 160.03 54.3235 159.56 54.5149C159.466 54.548 159.391 54.5953 159.334 54.6569C159.276 54.7315 159.219 54.8061 159.161 54.8806C159.104 54.9552 159.04 55.0229 158.971 55.0836C158.914 55.1452 158.839 55.1925 158.745 55.2256C158.212 55.3739 157.68 55.5091 157.149 55.6314C156.618 55.7667 156.085 55.9084 155.553 56.0567C155.473 56.0776 155.387 56.0916 155.295 56.0988C155.203 56.1059 155.11 56.126 155.017 56.1591C154.975 56.1955 154.932 56.2449 154.888 56.3074C154.857 56.3836 154.802 56.4192 154.724 56.4142C154.36 56.3907 153.919 56.3491 153.402 56.2896C152.897 56.2309 152.373 56.1579 151.831 56.0707C151.289 55.9835 150.768 55.8846 150.266 55.774C149.764 55.6763 149.347 55.5776 149.015 55.4778L148.759 55.2264L148.516 55.3282C148.169 55.2536 147.882 55.1698 147.653 55.0767C147.424 54.9967 147.23 54.8863 147.07 54.7455C146.91 54.6177 146.778 54.4461 146.676 54.2308C146.587 54.0163 146.509 53.7372 146.442 53.3937C146.412 53.2743 146.401 53.1496 146.41 53.0197C146.421 52.8769 146.411 52.7457 146.38 52.6263C146.316 52.4265 146.268 52.2734 146.237 52.1669C146.219 52.0484 146.207 51.9367 146.202 51.832C146.209 51.7281 146.217 51.6177 146.226 51.5008C146.235 51.3709 146.246 51.2086 146.26 51.0138C146.281 50.728 146.248 50.4519 146.163 50.1855C146.091 49.9199 146.065 49.6442 146.085 49.3584C146.11 49.0208 146.179 48.6925 146.293 48.3737C146.42 48.0557 146.497 47.7149 146.523 47.3513C146.539 47.1305 146.501 46.9258 146.41 46.7373C146.333 46.5366 146.302 46.3323 146.317 46.1245C146.328 45.9687 146.358 45.8206 146.408 45.6803C146.457 45.5399 146.487 45.3853 146.5 45.2165C146.518 44.9567 146.492 44.6811 146.422 44.3895C146.352 44.0849 146.287 43.8067 146.227 43.5549C146.389 43.2914 146.501 43.005 146.563 42.6958C146.637 42.3875 146.686 42.071 146.709 41.7463C146.758 41.0579 146.748 40.3788 146.679 39.7089C146.61 39.026 146.6 38.3404 146.65 37.652C146.674 37.3143 146.743 36.9926 146.856 36.6868C146.969 36.3809 147.038 36.0592 147.062 35.7215C147.107 35.0981 147.09 34.5099 147.012 33.9569C146.934 33.4038 146.865 32.8253 146.804 32.2211C146.898 32.0054 147.017 31.7913 147.163 31.5789C147.31 31.3535 147.392 31.1109 147.411 30.8512C147.416 30.7862 147.407 30.7205 147.386 30.6539C147.366 30.5743 147.345 30.5011 147.323 30.4345C147.329 30.3566 147.354 30.2864 147.397 30.224C147.441 30.1616 147.465 30.0914 147.471 30.0135C147.492 29.7148 147.448 29.4249 147.338 29.1437C147.228 28.8496 147.185 28.5337 147.21 28.196C147.222 28.0272 147.249 27.8267 147.292 27.5946C147.349 27.3504 147.405 27.1061 147.462 26.8619C147.532 26.6185 147.6 26.3881 147.668 26.1706C147.75 25.9411 147.829 25.7504 147.905 25.5988C148.009 25.4228 148.116 25.2992 148.225 25.228C148.348 25.1577 148.472 25.0678 148.597 24.9585L148.732 24.7128C148.933 24.6345 149.173 24.5716 149.45 24.5243C149.728 24.477 150.017 24.4435 150.319 24.4239C150.634 24.405 150.935 24.3919 151.223 24.3844C151.524 24.3647 151.787 24.336 152.012 24.2984C152.277 24.2502 152.536 24.1757 152.792 24.0747C153.048 23.9608 153.32 23.8936 153.609 23.8731C153.793 23.8588 153.982 23.8645 154.176 23.8901C154.37 23.9157 154.564 23.9348 154.759 23.9473C154.889 23.9557 155.006 23.9633 155.11 23.97C155.227 23.9776 155.327 23.9449 155.41 23.872C155.449 23.8745 155.578 23.9024 155.796 23.9556C156.028 23.9967 156.298 24.0598 156.605 24.1449C156.926 24.2178 157.266 24.305 157.624 24.4064C157.983 24.4948 158.323 24.582 158.643 24.6679C158.963 24.7539 159.231 24.8364 159.448 24.9156C159.678 24.9827 159.818 25.0244 159.869 25.0407C160.17 25.2167 160.435 25.4426 160.663 25.7183C160.904 25.9948 161.167 26.2466 161.451 26.4737C161.648 26.63 161.866 26.7876 162.102 26.9464C162.353 27.093 162.582 27.2644 162.79 27.4605C162.999 27.6436 163.166 27.8567 163.292 28.0997C163.433 28.3305 163.491 28.6018 163.469 28.9135C163.522 29.0866 163.624 29.2171 163.774 29.3051C163.938 29.3809 164.075 29.4811 164.183 29.6055C164.241 29.7136 164.291 29.8278 164.335 29.948C164.379 30.0553 164.45 30.1642 164.546 30.2748C164.634 30.698 164.695 31.113 164.731 31.5198C164.781 31.9144 164.791 32.3326 164.759 32.7741C164.747 32.943 164.71 33.182 164.649 33.4912C164.601 33.8012 164.53 34.1424 164.438 34.5149C164.347 34.8743 164.242 35.2524 164.122 35.6492C164.015 36.0467 163.897 36.424 163.767 36.7809C163.651 37.1257 163.531 37.4376 163.406 37.7166C163.282 37.9957 163.163 38.1967 163.05 38.3199C162.993 38.3815 162.925 38.4162 162.847 38.4242C162.768 38.4321 162.693 38.4665 162.624 38.5272C162.357 38.784 162.168 38.961 162.057 39.0582C161.946 39.1554 161.849 39.2274 161.767 39.2744C161.686 39.3213 161.585 39.3669 161.464 39.4113C161.343 39.4557 161.139 39.5665 160.853 39.7437C160.875 39.98 160.974 40.1495 161.149 40.2521C161.338 40.3556 161.526 40.4526 161.716 40.5432C161.719 40.6739 161.758 40.7742 161.831 40.8442C161.918 40.915 162.011 40.9733 162.112 41.0189C162.214 41.0516 162.317 41.0843 162.419 41.117C162.534 41.1505 162.628 41.1958 162.703 41.2528C162.703 41.4354 162.745 41.5687 162.831 41.6525C162.929 41.7371 163.022 41.8083 163.109 41.8662C163.209 41.9248 163.29 41.9887 163.35 42.0579C163.411 42.114 163.424 42.2062 163.389 42.3344C163.504 42.3679 163.598 42.4261 163.67 42.5091C163.756 42.5799 163.829 42.6564 163.889 42.7385C163.961 42.8215 164.033 42.9044 164.106 42.9874C164.178 43.0704 164.272 43.1286 164.387 43.1621L164.372 43.3764C164.332 43.5696 164.332 43.7392 164.374 43.8855C164.43 44.0195 164.492 44.154 164.561 44.2889C164.629 44.4238 164.69 44.5778 164.743 44.7509C164.81 44.9117 164.834 45.1156 164.817 45.3623C164.812 45.4273 164.808 45.4792 164.806 45.5182C164.803 45.5571 164.812 45.6099 164.833 45.6765C164.992 45.8303 165.09 46.0128 165.127 46.2239C165.165 46.4221 165.178 46.6121 165.165 46.7939ZM160.496 34.0645C160.501 33.9866 160.475 33.9001 160.417 33.8049C160.359 33.6968 160.321 33.59 160.302 33.4844C160.272 33.365 160.267 33.2473 160.289 33.1312C160.324 33.0031 160.347 32.8675 160.357 32.7247C160.358 32.7117 160.324 32.6377 160.255 32.5028C160.188 32.3549 160.114 32.2001 160.034 32.0384C159.954 31.8766 159.873 31.7279 159.792 31.5922C159.71 31.4564 159.663 31.3816 159.651 31.3678L159.703 31.195C159.712 31.0651 159.672 30.8994 159.582 30.6979C159.492 30.4963 159.382 30.3001 159.252 30.109C159.123 29.905 158.979 29.726 158.82 29.5723C158.663 29.4055 158.521 29.292 158.394 29.2316C158.257 29.1445 158.11 29.1023 157.953 29.1053C157.809 29.109 157.666 29.1063 157.523 29.097C157.328 29.0844 157.135 29.0459 156.944 28.9813C156.767 28.9047 156.589 28.828 156.412 28.7513C156.236 28.6616 156.058 28.5849 155.88 28.5212C155.703 28.4445 155.517 28.3999 155.322 28.3873C155.179 28.3781 155.059 28.416 154.961 28.501C154.865 28.5731 154.713 28.6024 154.505 28.5889C154.362 28.5797 154.22 28.551 154.08 28.5028C153.953 28.4554 153.805 28.4263 153.636 28.4154C153.526 28.4996 153.391 28.5561 153.232 28.585C153.087 28.6148 152.928 28.6372 152.758 28.6522C152.601 28.6551 152.436 28.6706 152.265 28.6987C152.107 28.7146 151.954 28.7504 151.807 28.8061C151.684 29.6071 151.575 30.4025 151.479 31.1922C151.396 31.9828 151.326 32.7807 151.268 33.5859C151.21 34.4041 151.164 35.2297 151.13 36.0626C151.097 36.8954 151.05 37.734 150.989 38.5782C151.052 38.6083 151.11 38.6251 151.162 38.6285C151.227 38.6327 151.292 38.6369 151.357 38.6411C151.681 38.662 152.003 38.6371 152.321 38.5664C152.64 38.4956 153.026 38.4749 153.481 38.5043C153.585 38.511 153.664 38.503 153.718 38.4804C153.969 38.4314 154.212 38.3232 154.446 38.1556C154.68 37.988 154.923 37.8733 155.176 37.8113C155.429 37.7363 155.672 37.7129 155.905 37.741C156.139 37.7561 156.383 37.7262 156.636 37.6512C156.757 37.6068 156.865 37.5486 156.962 37.4765C157.071 37.4053 157.174 37.3337 157.271 37.2616C157.381 37.1774 157.491 37.1062 157.6 37.048C157.708 36.9898 157.828 36.9519 157.96 36.9343C158.155 36.7642 158.361 36.621 158.578 36.5045C158.796 36.3751 159.037 36.2928 159.301 36.2576C159.428 36.1223 159.491 35.9763 159.489 35.8196C159.501 35.6508 159.551 35.4974 159.639 35.3596C159.684 35.2842 159.771 35.2507 159.901 35.2591C160.045 35.2553 160.139 35.2222 160.182 35.1598C160.213 35.0966 160.217 35.0381 160.195 34.9845C160.173 34.9309 160.163 34.8846 160.166 34.8456C160.173 34.7417 160.227 34.6342 160.326 34.5232C160.426 34.3992 160.483 34.2463 160.496 34.0645ZM160.865 46.9468C160.755 46.8484 160.684 46.7394 160.654 46.62C160.623 46.5006 160.612 46.3825 160.62 46.2656C160.63 46.1357 160.638 46.0188 160.646 45.9149C160.653 45.811 160.633 45.7249 160.586 45.6566C160.478 45.5192 160.388 45.409 160.316 45.326C160.256 45.2439 160.193 45.1289 160.125 44.981C160.101 44.9533 160.019 44.9089 159.88 44.8477C159.742 44.7736 159.655 44.7157 159.618 44.6743C159.556 44.6311 159.47 44.5538 159.361 44.4423C159.251 44.3309 159.129 44.2186 158.993 44.1055C158.871 43.9932 158.754 43.8878 158.644 43.7893C158.534 43.6779 158.455 43.6075 158.405 43.5782C158.293 43.4927 158.133 43.4562 157.923 43.4688C157.727 43.4691 157.547 43.4314 157.383 43.3556C157.275 43.2181 157.121 43.0973 156.919 42.9929C156.718 42.8886 156.502 42.7964 156.273 42.7163C156.044 42.6363 155.813 42.5757 155.581 42.5347C155.35 42.4806 155.144 42.4477 154.962 42.4359C154.819 42.4267 154.565 42.4233 154.199 42.4258C153.847 42.4161 153.469 42.4113 153.064 42.4112C152.66 42.4112 152.28 42.4193 151.927 42.4356C151.574 42.4389 151.344 42.4567 151.238 42.4889C151.101 42.9368 150.99 43.3993 150.903 43.8765C150.831 44.3415 150.778 44.8013 150.746 45.2559C150.69 46.0351 150.673 46.8169 150.695 47.6012C150.73 48.3863 150.772 49.1719 150.82 49.9578C150.748 50.0576 150.688 50.1581 150.642 50.2595C150.609 50.3487 150.588 50.4648 150.578 50.6076C150.568 50.7375 150.566 50.8613 150.571 50.979C150.575 51.0968 150.586 51.2149 150.604 51.3335C150.818 51.4516 151.046 51.5382 151.29 51.5931C151.535 51.635 151.775 51.6635 152.009 51.6786C152.334 51.6996 152.653 51.7007 152.968 51.6819C153.296 51.6639 153.623 51.6459 153.951 51.6279C154.279 51.6099 154.599 51.6045 154.911 51.6117C155.238 51.6067 155.557 51.6273 155.867 51.6734C155.925 51.5858 156.001 51.5255 156.095 51.4924C156.19 51.4463 156.283 51.4133 156.376 51.3932C156.469 51.3731 156.562 51.353 156.655 51.3329C156.76 51.3136 156.854 51.2805 156.936 51.2336C157.112 51.1406 157.257 51.026 157.372 50.8899C157.499 50.7546 157.625 50.6322 157.75 50.5229L158.666 50.5821C158.867 50.3341 159.086 50.1003 159.324 49.8808C159.575 49.6492 159.819 49.4301 160.056 49.2236C160.173 49.0484 160.239 48.8635 160.252 48.6687C160.279 48.4747 160.332 48.2824 160.411 48.0918C160.491 47.8882 160.583 47.7049 160.686 47.5419C160.79 47.366 160.85 47.1676 160.865 46.9468ZM184.447 53.676C184.426 53.9617 184.34 54.2497 184.189 54.54C184.051 54.8312 183.933 55.1041 183.837 55.3589C183.665 55.3869 183.519 55.4231 183.398 55.4675C183.291 55.4998 183.184 55.532 183.078 55.5643C182.971 55.5965 182.851 55.6279 182.719 55.6585C182.587 55.6761 182.417 55.6782 182.209 55.6647C182.092 55.6572 182.013 55.6651 181.972 55.6886C181.931 55.712 181.89 55.742 181.848 55.7784C181.807 55.8149 181.759 55.8444 181.705 55.867C181.651 55.8897 181.559 55.8968 181.429 55.8884C181.273 55.8783 181.112 55.8483 180.946 55.7985C180.793 55.7494 180.626 55.706 180.446 55.6683C180.446 55.6813 180.438 55.6939 180.424 55.706C180.423 55.719 180.422 55.7385 180.42 55.7645C180.405 55.7896 180.397 55.8087 180.396 55.8217C180.318 55.8166 180.229 55.7848 180.129 55.7261C180.029 55.6674 179.92 55.6343 179.803 55.6268L177.659 55.4883C177.282 55.464 176.922 55.4863 176.578 55.5554C176.233 55.6245 175.879 55.6473 175.515 55.6238C175.255 55.607 175.003 55.5712 174.759 55.5163C174.515 55.4614 174.263 55.4255 174.003 55.4087C173.458 55.3735 172.921 55.3975 172.393 55.4808C171.864 55.5771 171.326 55.6077 170.78 55.5724C170.287 55.5405 169.792 55.4303 169.296 55.2417C168.801 55.0531 168.374 54.8103 168.017 54.5132C167.87 54.0209 167.721 53.5416 167.572 53.0753C167.436 52.5968 167.387 52.0979 167.424 51.5783C167.448 51.2537 167.535 50.9526 167.685 50.6753C167.835 50.398 167.922 50.097 167.945 49.7723C167.957 49.6164 167.941 49.4719 167.898 49.3387C167.856 49.1924 167.808 49.0523 167.752 48.9182C167.696 48.7841 167.647 48.6505 167.605 48.5173C167.562 48.384 167.545 48.259 167.553 48.1421C167.567 47.9473 167.607 47.7541 167.673 47.5627C167.74 47.3582 167.813 47.1607 167.892 46.9701C167.971 46.7795 168.043 46.5884 168.109 46.397C168.176 46.1925 168.217 45.9864 168.232 45.7786C168.27 45.2461 168.242 44.7159 168.15 44.188C168.058 43.6471 168.032 43.104 168.071 42.5585C168.111 42 168.177 41.4432 168.269 40.8881C168.361 40.333 168.427 39.7633 168.469 39.1788L168.652 36.0788C168.668 35.858 168.663 35.6489 168.638 35.4516C168.613 35.2543 168.609 35.0452 168.625 34.8244C168.643 34.5647 168.707 34.3078 168.817 34.054C168.926 33.8001 168.991 33.5433 169.009 33.2835C169.022 33.1017 169.009 32.9247 168.969 32.7525C168.93 32.5673 168.917 32.3838 168.93 32.202C168.943 32.0202 168.982 31.8465 169.046 31.681C169.111 31.5025 169.15 31.3224 169.163 31.1406C169.186 30.8159 169.163 30.5012 169.093 30.1967C169.025 29.8791 169.002 29.558 169.025 29.2333C169.045 28.9605 169.097 28.6834 169.183 28.4019C169.282 28.1082 169.412 27.8426 169.573 27.605C169.746 27.3684 169.949 27.1792 170.181 27.0376C170.414 26.8831 170.686 26.8158 170.998 26.836C171.18 26.8477 171.4 26.875 171.658 26.9178C171.929 26.9614 172.146 27.0341 172.308 27.1359C172.46 27.2109 172.606 27.3573 172.747 27.5752C172.902 27.7809 173.042 28.0118 173.167 28.2678C173.293 28.5108 173.4 28.759 173.486 29.0125C173.572 29.266 173.629 29.4784 173.656 29.6498C173.705 30.0574 173.72 30.476 173.703 30.9054C173.699 31.3227 173.681 31.7521 173.65 32.1937C173.619 32.6223 173.575 33.0565 173.517 33.4964C173.473 33.9242 173.437 34.3393 173.408 34.742C173.369 35.2874 173.356 35.8346 173.369 36.3834C173.382 36.9323 173.368 37.4924 173.327 38.0639C173.298 38.4665 173.211 38.8588 173.066 39.2409C172.935 39.6238 172.854 40.0166 172.825 40.4192C172.804 40.7179 172.836 41.0005 172.921 41.2669C173.021 41.5213 173.061 41.7783 173.042 42.038C173.001 42.6095 172.942 43.1667 172.864 43.7097C172.787 44.2396 172.728 44.7839 172.688 45.3423C172.649 45.8878 172.624 46.4211 172.613 46.9423C172.601 47.4635 172.577 47.9838 172.54 48.5033C172.521 48.7631 172.497 49.0159 172.466 49.2618C172.436 49.4948 172.4 49.7338 172.356 49.9789C172.415 50.2437 172.656 50.4419 173.077 50.5734C173.499 50.6921 173.976 50.7816 174.507 50.8419C175.039 50.8893 175.559 50.9164 176.067 50.9232C176.577 50.9169 176.949 50.9214 177.183 50.9365C177.364 50.9482 177.538 50.9855 177.703 51.0484C177.881 51.1121 178.061 51.1498 178.243 51.1616C178.529 51.18 178.805 51.1522 179.072 51.0781C179.338 51.004 179.614 50.9761 179.9 50.9946C180.082 51.0063 180.25 51.0367 180.403 51.0858C180.569 51.1356 180.743 51.1665 180.925 51.1782C181.365 51.2327 181.739 51.296 182.047 51.3681C182.356 51.4272 182.636 51.5236 182.888 51.6573C183.139 51.791 183.368 51.9688 183.574 52.1909C183.793 52.4138 184.026 52.7094 184.274 53.0777C184.404 53.2687 184.461 53.4682 184.447 53.676ZM209.38 40.7057C209.385 41.0061 209.331 41.2962 209.22 41.5761C209.109 41.8559 209.042 42.1452 209.021 42.4439C208.986 42.9245 208.977 43.4132 208.994 43.9101C209.012 44.394 209.003 44.8827 208.967 45.3762C208.96 45.4801 208.921 45.6603 208.85 45.9167C208.78 46.173 208.687 46.4671 208.572 46.7989C208.47 47.1316 208.353 47.4894 208.221 47.8723C208.102 48.256 207.978 48.6199 207.849 48.9638C207.733 49.3086 207.619 49.6144 207.509 49.8813C207.412 50.136 207.34 50.3206 207.293 50.4349C207.081 50.8388 206.851 51.2349 206.601 51.6232C206.365 51.9994 206.187 52.3924 206.066 52.8021C205.665 53.1155 205.264 53.4288 204.863 53.7421C204.475 54.0563 204.099 54.3843 203.735 54.7261C203.623 54.8363 203.523 54.9603 203.434 55.0981C203.359 55.2368 203.284 55.382 203.207 55.5336C203.145 55.6731 203.076 55.8187 203 55.9704C202.925 56.109 202.837 56.2339 202.738 56.3449C202.512 56.5912 202.244 56.7697 201.936 56.8802C201.628 56.9908 201.351 57.123 201.105 57.2767C201.023 57.3236 200.947 57.3839 200.877 57.4576C200.819 57.5322 200.75 57.5865 200.669 57.6204C200.48 57.7125 200.286 57.7783 200.087 57.8177C199.888 57.87 199.682 57.9154 199.47 57.954C199.271 58.0063 199.071 58.0587 198.872 58.111C198.671 58.1763 198.475 58.2681 198.284 58.3862C198.146 58.312 198.001 58.2439 197.848 58.1819C197.696 58.1199 197.559 58.0327 197.436 57.9204C197.247 58.0126 197.033 58.0836 196.794 58.1334C196.568 58.1971 196.323 58.24 196.061 58.2622C195.81 58.2982 195.561 58.3147 195.313 58.3117C195.064 58.3218 194.843 58.3205 194.648 58.3079C194.544 58.3012 194.427 58.2871 194.298 58.2657C194.169 58.2444 194.034 58.2161 193.893 58.1809C193.751 58.1586 193.61 58.1234 193.47 58.0752C193.342 58.0409 193.234 57.9948 193.147 57.937C193.122 57.9223 193.091 57.8942 193.055 57.8527C193.031 57.8251 193.001 57.7905 192.965 57.749C192.927 57.7205 192.889 57.705 192.85 57.7025C192.811 57.7 192.783 57.7308 192.766 57.7949C192.376 57.587 191.979 57.3918 191.574 57.2091C191.182 57.0272 190.792 56.8193 190.405 56.5855C190.142 56.425 189.901 56.2398 189.681 56.0299C189.474 55.8208 189.261 55.6048 189.042 55.3819C188.837 55.1469 188.624 54.9244 188.404 54.7145C188.198 54.4924 187.971 54.2886 187.724 54.1029C187.703 53.8407 187.656 53.5832 187.583 53.3306C187.511 53.0649 187.384 52.8284 187.203 52.621C187.188 52.4635 187.146 52.3303 187.075 52.2213C187.005 52.1124 186.927 52.0095 186.843 51.9127C186.758 51.816 186.681 51.7131 186.61 51.6042C186.554 51.4831 186.532 51.3251 186.546 51.1303L186.552 51.0524L186.271 50.8776C186.219 50.6916 186.193 50.5008 186.194 50.3051C186.195 50.1095 186.17 49.9122 186.119 49.7131C186.064 49.5661 186.003 49.4186 185.935 49.2707C185.868 49.1228 185.82 48.9632 185.794 48.7918C185.746 48.5409 185.732 48.2855 185.75 48.0258C185.77 47.753 185.783 47.4799 185.79 47.2063C185.809 46.9335 185.802 46.6721 185.767 46.422C185.734 46.1589 185.641 45.905 185.489 45.6603C185.582 45.4575 185.635 45.2587 185.649 45.0639C185.671 44.7652 185.653 44.4705 185.595 44.1797C185.538 43.889 185.52 43.5942 185.541 43.2955C185.56 43.0358 185.597 42.7903 185.653 42.559C185.709 42.3147 185.746 42.0692 185.764 41.8225C185.785 41.5238 185.8 41.2311 185.807 40.9446C185.815 40.658 185.829 40.3654 185.851 40.0666C185.879 39.677 185.906 39.3917 185.932 39.2107C185.959 39.0167 185.996 38.8561 186.044 38.7287C186.094 38.5884 186.15 38.442 186.213 38.2895C186.289 38.1378 186.378 37.9022 186.479 37.5825C186.529 37.4292 186.56 37.2681 186.572 37.0992C186.585 36.9174 186.618 36.7369 186.67 36.5575C186.848 36.0733 187.053 35.5776 187.286 35.0707C187.518 34.5638 187.73 34.0557 187.923 33.5462C187.956 33.457 188.022 33.3569 188.121 33.2458C188.221 33.1218 188.328 32.9983 188.441 32.8751C188.556 32.739 188.67 32.6028 188.784 32.4667C188.898 32.3305 188.993 32.1931 189.068 32.0544C189.114 31.9531 189.141 31.8504 189.149 31.7465C189.157 31.6296 189.185 31.5205 189.231 31.4191C189.276 31.3437 189.338 31.289 189.419 31.2551C189.513 31.222 189.595 31.1686 189.665 31.0949C189.784 30.8938 189.888 30.7178 189.977 30.567C190.067 30.4032 190.203 30.2489 190.383 30.1039C190.482 29.9929 190.6 29.8961 190.736 29.8136C190.887 29.7189 191.031 29.6239 191.168 29.5284C191.318 29.4337 191.449 29.3378 191.561 29.2406C191.686 29.1312 191.786 29.0072 191.861 28.8686C191.913 28.8719 192.033 28.8405 192.221 28.7743C192.421 28.709 192.655 28.6263 192.924 28.5262C193.193 28.4131 193.475 28.2943 193.772 28.17C194.068 28.0456 194.344 27.9264 194.6 27.8125C194.87 27.6864 195.099 27.5838 195.288 27.5046C195.477 27.4124 195.593 27.3482 195.634 27.3117C195.698 27.3419 195.755 27.3586 195.807 27.362C195.859 27.3654 195.918 27.3691 195.983 27.3733C196.19 27.3868 196.38 27.3859 196.551 27.3709C196.734 27.3567 196.917 27.3554 197.099 27.3672C197.385 27.3856 197.648 27.4548 197.887 27.5746C198.126 27.6945 198.376 27.7628 198.636 27.7796C198.844 27.793 199.041 27.7796 199.226 27.7394C199.412 27.6992 199.609 27.6858 199.817 27.6993C200.076 27.716 200.312 27.803 200.522 27.9601C200.746 28.1181 200.972 28.2371 201.202 28.3172C201.316 28.3637 201.443 28.4045 201.585 28.4397C201.727 28.462 201.869 28.4842 202.011 28.5064C202.166 28.5295 202.307 28.5582 202.435 28.5925C202.564 28.6139 202.666 28.6466 202.741 28.6906C202.817 28.7346 202.877 28.8037 202.922 28.898C202.982 28.9801 203.048 29.0562 203.121 29.1262C203.197 29.1702 203.28 29.1886 203.372 29.1815C203.464 29.1744 203.547 29.2058 203.62 29.2758C203.756 29.3759 203.835 29.4593 203.856 29.5259C203.879 29.5796 203.907 29.6401 203.941 29.7075C203.989 29.7758 204.067 29.8657 204.177 29.9772C204.287 30.0756 204.506 30.2137 204.832 30.3914C204.933 30.4371 205.027 30.4953 205.113 30.5661C205.214 30.6248 205.329 30.6583 205.459 30.6667C205.708 31.009 205.979 31.3331 206.27 31.639C206.562 31.9448 206.846 32.2568 207.123 32.5748L207.503 32.7364C207.575 32.8323 207.683 33.0481 207.829 33.3837C207.975 33.7193 208.119 34.0808 208.261 34.4684C208.416 34.8438 208.547 35.2045 208.653 35.5506C208.773 35.8845 208.829 36.0969 208.823 36.1879C208.809 36.3827 208.782 36.5701 208.743 36.7503C208.704 36.9304 208.677 37.1244 208.662 37.3322C208.652 37.4751 208.649 37.6119 208.653 37.7426C208.656 37.8733 208.653 38.0166 208.641 38.1724C208.639 38.2114 208.654 38.2646 208.689 38.3321C208.737 38.3874 208.791 38.4496 208.852 38.5187C208.912 38.5879 208.972 38.6635 209.031 38.7456C209.091 38.8147 209.133 38.8761 209.155 38.9298C209.184 39.0751 209.193 39.2257 209.181 39.3816C209.17 39.5374 209.179 39.6946 209.206 39.8529C209.224 39.9715 209.26 40.1043 209.315 40.2514C209.371 40.3854 209.394 40.5109 209.386 40.6278L209.38 40.7057ZM205.096 44.4803C205.114 44.2205 205.079 43.9834 204.99 43.7689C204.915 43.5422 204.867 43.3043 204.845 43.055C204.876 42.9917 204.893 42.9341 204.897 42.8822C204.902 42.8172 204.907 42.7458 204.912 42.6679C204.93 42.4211 204.894 42.1905 204.805 41.9759C204.716 41.7614 204.68 41.5308 204.698 41.284C204.716 41.0373 204.752 40.8047 204.807 40.5865C204.862 40.3682 204.898 40.1357 204.916 39.8889L204.995 38.7785C204.856 38.5346 204.715 38.2254 204.572 37.8509C204.43 37.4633 204.277 37.0555 204.111 36.6273C203.959 36.1999 203.788 35.7713 203.597 35.3414C203.406 34.8986 203.186 34.5125 202.935 34.1832C202.686 33.8408 202.405 33.5683 202.093 33.3655C201.794 33.1635 201.442 33.0755 201.035 33.1014C200.72 32.7679 200.362 32.4708 199.963 32.2102C199.565 31.9366 199.139 31.7851 198.684 31.7557C198.346 31.7339 197.973 31.7489 197.565 31.8008C197.17 31.8406 196.773 31.9128 196.374 32.0175C195.988 32.123 195.613 32.2554 195.249 32.4146C194.886 32.5607 194.574 32.7297 194.312 32.9216C194.217 32.9807 194.116 33.0198 194.01 33.0391C193.918 33.0462 193.837 33.0866 193.767 33.1604C193.697 33.2211 193.665 33.3038 193.67 33.4086C193.676 33.5133 193.656 33.6034 193.612 33.6788C193.586 33.6771 193.524 33.7188 193.427 33.8038C193.33 33.8759 193.22 33.9601 193.095 34.0564C192.984 34.1536 192.879 34.2512 192.781 34.3492C192.696 34.4351 192.647 34.4841 192.633 34.4963C192.602 34.5595 192.599 34.6115 192.622 34.6521C192.645 34.6928 192.654 34.7456 192.65 34.8105C192.648 34.8365 192.618 34.8932 192.559 34.9808C192.501 35.0684 192.435 35.1685 192.361 35.2812C192.288 35.3939 192.215 35.5066 192.141 35.6192C192.068 35.7319 192.022 35.8268 192.004 35.9039C191.965 36.0841 191.952 36.2659 191.964 36.4494C191.978 36.6199 191.979 36.7961 191.966 36.9779C191.945 37.2636 191.873 37.546 191.748 37.825C191.637 38.1049 191.512 38.3904 191.374 38.6815C191.249 38.9605 191.124 39.2525 190.998 39.5575C190.885 39.8504 190.818 40.1526 190.796 40.4643C190.783 40.6462 190.789 40.8292 190.815 41.0136C190.842 41.1849 190.849 41.3615 190.836 41.5434C190.818 41.7901 190.743 42.0136 190.612 42.2139C190.493 42.415 190.405 42.6376 190.348 42.8819C190.441 43.0444 190.494 43.2175 190.507 43.401C190.521 43.5715 190.521 43.7477 190.508 43.9295C190.49 44.1892 190.459 44.4417 190.415 44.6867C190.371 44.9318 190.34 45.1842 190.322 45.444C190.302 45.7167 190.291 45.9574 190.289 46.1661C190.3 46.3755 190.325 46.5794 190.363 46.7775C190.402 46.9627 190.454 47.1487 190.519 47.3356C190.597 47.5233 190.686 47.7313 190.787 47.9597C190.845 48.0678 190.903 48.1759 190.96 48.284C191.018 48.3921 191.062 48.5058 191.092 48.6252C191.176 48.9177 191.219 49.2206 191.223 49.5339C191.24 49.8482 191.29 50.1515 191.373 50.4439C191.393 50.5365 191.433 50.6174 191.493 50.6865C191.553 50.7557 191.607 50.8244 191.654 50.8927C191.715 50.9618 191.761 51.0366 191.795 51.117C191.828 51.1975 191.835 51.2892 191.814 51.3923C191.992 51.469 192.123 51.5427 192.21 51.6135C192.309 51.6852 192.477 51.7091 192.714 51.6852C192.774 51.937 192.913 52.1809 193.131 52.4168C193.362 52.6535 193.628 52.8664 193.927 53.0554C194.228 53.2313 194.531 53.3814 194.835 53.5054C195.153 53.6173 195.429 53.6808 195.663 53.6959C195.806 53.7051 195.913 53.6794 195.982 53.6186C196.066 53.5458 196.143 53.466 196.215 53.3792C196.299 53.2934 196.382 53.227 196.464 53.1801C196.56 53.121 196.691 53.1034 196.859 53.1273C196.943 53.0544 197.03 53.0209 197.121 53.0268C197.238 53.0343 197.334 53.0601 197.409 53.1041C197.497 53.149 197.594 53.1747 197.697 53.1814C197.801 53.1882 197.914 53.1628 198.036 53.1054C198.17 53.0489 198.306 52.9794 198.442 52.8968C198.579 52.8143 198.715 52.7383 198.85 52.6688C198.987 52.5862 199.114 52.5358 199.233 52.5173C199.353 52.4859 199.477 52.4874 199.605 52.5218C199.747 52.544 199.876 52.5589 199.993 52.5664L200.149 52.5765L200.403 52.3189C200.615 52.2674 200.847 52.2236 201.097 52.1876C201.348 52.1516 201.558 52.0477 201.727 51.876C201.937 51.4851 202.131 51.067 202.306 50.6217C202.483 50.1634 202.695 49.753 202.943 49.3906C203.177 49.0404 203.37 48.805 203.522 48.6843C203.687 48.5645 203.819 48.4556 203.917 48.3576C204.017 48.2466 204.093 48.0884 204.147 47.8832C204.215 47.6657 204.269 47.2778 204.309 46.7193C204.317 46.6024 204.344 46.5063 204.388 46.4309C204.446 46.3563 204.497 46.2813 204.541 46.2059C204.599 46.1313 204.644 46.0494 204.676 45.9602C204.709 45.871 204.704 45.7532 204.663 45.607C204.816 45.4734 204.919 45.3104 204.972 45.1181C205.039 44.9137 205.08 44.7011 205.096 44.4803ZM236.448 46.0552L236.41 46.5812C236.399 46.7371 236.374 46.9051 236.335 47.0852C236.31 47.2532 236.223 47.3716 236.074 47.4402C235.995 47.6309 235.916 47.8345 235.835 48.0511C235.768 48.2555 235.645 48.4237 235.466 48.5557C235.24 48.6063 235.008 48.6566 234.77 48.7064C234.531 48.7562 234.295 48.7736 234.061 48.7585C234.005 48.9897 233.918 49.2973 233.799 49.681C233.68 50.0648 233.547 50.4607 233.401 50.8687C233.255 51.2638 233.098 51.6385 232.929 51.9929C232.774 52.3352 232.624 52.5995 232.48 52.786C232.395 52.8848 232.298 52.9634 232.189 53.0216C232.081 53.0798 231.99 53.1588 231.918 53.2585C231.829 53.3963 231.773 53.5427 231.749 53.6977C231.725 53.8528 231.668 54.0057 231.579 54.1565L231.337 54.2583C231.291 54.3596 231.263 54.4688 231.255 54.5857C231.247 54.6896 231.22 54.7922 231.174 54.8936C230.626 55.067 230.132 55.3221 229.69 55.6589C229.262 55.9835 228.931 56.4123 228.697 56.9452C228.28 57.114 227.862 57.2109 227.442 57.236C227.024 57.2481 226.602 57.3122 226.176 57.4282C225.989 57.4814 225.814 57.5549 225.651 57.6487C225.501 57.7304 225.333 57.8043 225.145 57.8705C225.025 57.9019 224.853 57.9429 224.627 57.9936C224.402 58.0443 224.163 58.1006 223.91 58.1626C223.672 58.2124 223.447 58.2566 223.235 58.2951C223.024 58.3206 222.874 58.3305 222.783 58.3246C222.562 58.3103 222.42 58.2881 222.357 58.2579C222.307 58.2156 222.258 58.1733 222.209 58.131C222.173 58.0895 222.091 58.0516 221.963 58.0172C221.848 57.9707 221.622 57.9365 221.285 57.9147C221.181 57.908 221.085 57.8822 220.996 57.8374C220.909 57.7795 220.809 57.7209 220.696 57.6614C220.596 57.5897 220.47 57.5294 220.317 57.4803C220.178 57.4192 220.004 57.3819 219.796 57.3684C219.615 57.3567 219.431 57.3709 219.245 57.4111C219.072 57.4521 218.928 57.5537 218.812 57.7158C218.705 57.5654 218.555 57.4839 218.36 57.4713C218.165 57.4587 217.989 57.4474 217.833 57.4373C217.678 57.4273 217.568 57.4071 217.505 57.377C217.456 57.3347 217.42 57.2932 217.396 57.2525C217.386 57.2127 217.376 57.1664 217.367 57.1136C217.371 57.0617 217.348 57.0146 217.299 56.9722C217.225 56.9153 217.155 56.8912 217.089 56.9C217.024 56.8958 216.953 56.8782 216.877 56.8471C216.801 56.8161 216.716 56.7323 216.621 56.5957C216.539 56.46 216.446 56.2191 216.34 55.873C215.859 55.6593 215.442 55.3779 215.088 55.0289C214.736 54.6669 214.507 54.2215 214.401 53.6928C214.051 53.2918 213.673 52.9151 213.268 52.5627C212.875 52.2112 212.497 51.8475 212.132 51.4716C212.098 51.2215 212.051 50.9576 211.993 50.6798C211.934 50.402 211.8 50.1846 211.589 50.0274C211.62 49.9642 211.637 49.9131 211.639 49.8741C211.642 49.8351 211.646 49.7832 211.651 49.7183C211.664 49.5364 211.644 49.359 211.591 49.186C211.551 49.0138 211.498 48.8472 211.431 48.6863C211.378 48.5133 211.318 48.3463 211.251 48.1855C211.185 48.0116 211.139 47.839 211.112 47.6676C211.07 47.3387 211.068 47.0124 211.104 46.6885C211.14 46.3647 211.15 46.0391 211.135 45.7119C211.112 45.4886 211.05 45.2498 210.951 44.9955C210.853 44.7282 210.811 44.4906 210.826 44.2828C210.838 44.114 210.869 43.9529 210.919 43.7996C210.983 43.6341 211.047 43.4751 211.11 43.3226C211.173 43.1701 211.217 43.0164 211.241 42.8614C211.266 42.6934 211.259 42.5233 211.219 42.3511C211.315 42.279 211.438 42.1173 211.586 41.866C211.735 41.6146 211.872 41.3429 211.997 41.0509C212.136 40.7598 212.254 40.4738 212.352 40.1931C212.464 39.9133 212.537 39.7093 212.573 39.5811C212.625 39.3888 212.659 39.1887 212.674 38.9809C212.69 38.7601 212.738 38.5414 212.819 38.3249C212.886 38.1204 212.985 37.9246 213.116 37.7373C213.248 37.5371 213.379 37.3433 213.51 37.156C213.654 36.9696 213.772 36.7815 213.864 36.5917C213.969 36.3898 214.024 36.178 214.027 35.9564C214.302 35.7524 214.529 35.5061 214.706 35.2174C214.883 34.9288 215.035 34.6385 215.16 34.3465C215.508 34.2254 215.827 34.0633 216.115 33.8602C216.418 33.6449 216.654 33.36 216.823 33.0056C217.03 33.032 217.214 33.0113 217.375 32.9434C217.538 32.8626 217.689 32.7614 217.828 32.6399C217.967 32.5185 218.106 32.397 218.246 32.2755C218.385 32.154 218.536 32.0528 218.698 31.972C219.158 31.7538 219.591 31.6252 219.999 31.5863C220.406 31.5474 220.813 31.5149 221.22 31.489C221.627 31.4501 222.044 31.3726 222.47 31.2566C222.896 31.1406 223.358 30.8899 223.855 30.5045L224.089 30.5196C224.336 30.5356 224.544 30.6403 224.713 30.8339C224.837 30.7376 224.966 30.6676 225.1 30.6241C225.246 30.5813 225.394 30.5321 225.541 30.4764C226.352 30.6332 227.157 30.7831 227.956 30.926C228.769 31.0698 229.572 31.2391 230.368 31.434C230.584 31.6959 230.814 31.9456 231.058 32.1832C231.303 32.4078 231.513 32.6692 231.687 32.9676C231.893 33.007 232.092 33.0589 232.283 33.1235C232.488 33.1759 232.671 33.266 232.832 33.3938C232.897 33.5806 232.935 33.7723 232.947 33.9688C232.959 34.1653 232.958 34.3674 232.943 34.5752C232.926 34.809 232.889 35.048 232.833 35.2923C232.79 35.5244 232.728 35.7552 232.646 35.9848C232.216 36.3354 231.722 36.584 231.163 36.7306C230.618 36.865 230.073 36.9146 229.527 36.8793C229.332 36.8667 229.171 36.8433 229.043 36.8089C228.916 36.7615 228.788 36.7207 228.66 36.6863C228.533 36.639 228.405 36.5981 228.277 36.5637C228.15 36.5164 227.989 36.4864 227.794 36.4738C227.677 36.4663 227.609 36.4097 227.591 36.3041C227.586 36.1864 227.547 36.0925 227.474 36.0226C227.412 35.9794 227.342 35.9553 227.264 35.9503C227.199 35.9461 227.135 35.9224 227.073 35.8792C226.974 35.8076 226.903 35.7051 226.86 35.5719C226.817 35.4387 226.725 35.3545 226.584 35.3192C226.26 35.4679 225.922 35.5439 225.569 35.5473C225.217 35.5506 224.867 35.6063 224.52 35.7143C224.252 35.8014 224.002 35.9223 223.769 36.0768C223.537 36.2184 223.288 36.3328 223.02 36.4199C222.821 36.4722 222.604 36.4909 222.37 36.4758C222.15 36.4485 221.939 36.4805 221.737 36.5718C221.52 36.6753 221.322 36.806 221.141 36.9639C220.973 37.1227 220.799 37.2745 220.618 37.4195C220.452 37.5523 220.262 37.6574 220.048 37.7349C219.847 37.8002 219.606 37.7912 219.325 37.7078C219.231 37.7409 219.15 37.7813 219.081 37.8291C219.026 37.8776 218.964 37.9193 218.896 37.9541C218.828 37.9889 218.755 38.0167 218.675 38.0377C218.595 38.0586 218.497 38.0588 218.381 38.0382C218.218 38.3147 218.066 38.6116 217.926 38.9287C217.785 39.2458 217.633 39.5556 217.467 39.8581C217.302 40.1606 217.118 40.4488 216.916 40.7228C216.728 40.9846 216.496 41.2045 216.223 41.3825C216.244 41.4492 216.252 41.5149 216.248 41.5799C216.243 41.6448 216.238 41.7162 216.232 41.7942C216.219 41.976 216.174 42.1492 216.097 42.3139C216.034 42.4664 215.957 42.6245 215.867 42.7883C215.791 42.94 215.715 43.0981 215.638 43.2628C215.574 43.4153 215.536 43.5889 215.522 43.7837C215.502 44.0565 215.535 44.3261 215.621 44.5925C215.72 44.8468 215.819 45.1012 215.918 45.3555C216.031 45.6106 216.129 45.8714 216.215 46.1379C216.314 46.3922 216.354 46.6558 216.334 46.9285C216.317 47.1753 216.261 47.4 216.169 47.6028C216.303 47.7289 216.369 47.9028 216.366 48.1244C216.376 48.3469 216.391 48.5957 216.411 48.871C216.431 49.1333 216.502 49.4119 216.625 49.7068C216.748 49.9888 216.997 50.2593 217.37 50.5182C217.436 50.6791 217.463 50.857 217.449 51.0518C217.436 51.2336 217.476 51.4058 217.569 51.5684C217.66 51.7439 217.774 51.8948 217.908 52.0209C218.056 52.1478 218.204 52.2683 218.352 52.3823C218.515 52.4841 218.67 52.592 218.819 52.706C218.981 52.8078 219.128 52.9347 219.261 53.0868L219.339 53.0919C219.547 53.1053 219.72 53.1491 219.858 53.2233C220.011 53.2853 220.199 53.304 220.422 53.2793C220.708 53.4804 221.003 53.6495 221.306 53.7865C221.624 53.9114 221.964 53.9856 222.328 54.0091C222.9 54.046 223.385 54.0186 223.783 53.9269C224.195 53.823 224.55 53.7024 224.847 53.565C225.157 53.4285 225.427 53.3024 225.657 53.1868C225.9 53.072 226.139 53.0157 226.374 53.0178C226.666 52.5801 226.94 52.1345 227.194 51.6812C227.462 51.2288 227.773 50.8053 228.127 50.4106C228.328 50.3453 228.535 50.2739 228.75 50.1964C228.964 50.1189 229.155 50.0008 229.323 49.842C229.309 49.6715 229.274 49.5322 229.216 49.4241C229.172 49.3039 229.122 49.1897 229.064 49.0816C229.021 48.9614 228.984 48.835 228.954 48.7026C228.939 48.5581 228.965 48.3706 229.034 48.1402C227.756 47.9402 226.474 47.7987 225.187 47.7156C223.915 47.6204 222.639 47.4793 221.36 47.2923C221.225 47.1791 221.132 47.0101 221.083 46.7851C221.047 46.5609 220.995 46.3749 220.927 46.227C220.869 46.1319 220.81 46.0498 220.749 45.9807C220.689 45.9115 220.629 45.8424 220.568 45.7733C220.521 45.705 220.474 45.6302 220.428 45.5489C220.381 45.4676 220.355 45.3746 220.35 45.2699C220.328 45.2162 220.318 45.1634 220.322 45.1115C220.326 45.0595 220.33 45.0011 220.335 44.9362C220.349 44.7413 220.375 44.5474 220.415 44.3542C220.469 44.1489 220.523 43.9502 220.576 43.7579C220.714 43.6494 220.856 43.5738 221.003 43.531C221.151 43.4753 221.297 43.4391 221.442 43.4224C221.599 43.4065 221.757 43.3971 221.914 43.3941C222.084 43.3791 222.249 43.3636 222.406 43.3477C222.486 43.3268 222.581 43.2807 222.69 43.2095C222.8 43.1383 222.887 43.1047 222.952 43.1089C223.212 43.1257 223.477 43.1624 223.747 43.219C224.017 43.2756 224.295 43.3131 224.581 43.3316C224.776 43.3442 224.968 43.3957 225.157 43.4862C225.36 43.5776 225.557 43.6425 225.75 43.6811C226.034 43.7385 226.305 43.7756 226.565 43.7924C226.826 43.7962 227.099 43.8074 227.385 43.8258C227.684 43.8451 227.929 43.8806 228.121 43.9321C228.326 43.9845 228.511 44.0486 228.675 44.1245C228.854 44.1882 229.024 44.2644 229.188 44.3533C229.365 44.43 229.575 44.5087 229.817 44.5896C230.279 44.5151 230.746 44.467 231.218 44.4452C231.702 44.4243 232.191 44.4298 232.685 44.4617C233.01 44.4827 233.353 44.5244 233.714 44.5869C234.075 44.6494 234.42 44.7435 234.751 44.8692C235.095 44.9828 235.41 45.1401 235.696 45.3412C235.996 45.5302 236.246 45.7682 236.448 46.0552Z" fill="white"/>
<path d="M3.30971 58.1889L26.1152 53.9031L22.8054 38.0224L3.30971 58.1889Z" fill="#B03D4F"/>
</svg>
