<svg width="275" height="78" viewBox="0 0 275 78" fill="none" xmlns="http://www.w3.org/2000/svg">
<rect x="18.9219" width="256.558" height="60.3396" rx="18" transform="rotate(3.89137 18.9219 0)" fill="#995791"/>
<path d="M59.0278 43.9108C59.0172 44.0667 58.9365 44.1982 58.7856 44.3054C58.6478 44.4135 58.5359 44.5233 58.45 44.6349C58.3797 44.7085 58.348 44.7911 58.3548 44.883C58.3616 44.9748 58.3424 45.0648 58.2973 45.1531C58.2279 45.2137 58.1473 45.2473 58.0555 45.2541C57.9767 45.2618 57.9156 45.2968 57.8722 45.3591C57.7871 45.4577 57.7073 45.5763 57.6326 45.7148C57.558 45.8533 57.4768 45.9913 57.3891 46.1289C57.3153 46.2544 57.2225 46.3721 57.1106 46.4819C57.0117 46.5926 56.8886 46.6756 56.7413 46.7309C56.6607 46.7645 56.568 46.7843 56.4632 46.7902C56.3723 46.7841 56.2748 46.7774 56.1709 46.7704C55.8981 46.7518 55.6024 46.686 55.2838 46.573C54.9782 46.4608 54.742 46.2882 54.5751 46.0549C54.4999 46.0107 54.3795 45.9568 54.2142 45.8934C54.0627 45.8178 53.8978 45.7479 53.7195 45.6835C53.555 45.6071 53.3966 45.5376 53.2443 45.475C53.0928 45.3994 52.9924 45.3404 52.9431 45.2979C52.8825 45.2285 52.8307 45.1271 52.7876 44.9937C52.7453 44.8472 52.6948 44.7264 52.6361 44.631C52.5652 44.5218 52.48 44.4311 52.3805 44.3591C52.281 44.2871 52.2023 44.1969 52.1444 44.0886C52.0744 43.9664 52.0313 43.8329 52.015 43.6882C52.0126 43.5315 51.9829 43.3924 51.9259 43.2711C51.793 42.9227 51.6073 42.5838 51.3687 42.2544C51.1309 41.9119 50.8923 41.5825 50.6528 41.266C50.5214 41.0874 50.3333 40.8788 50.0885 40.6403C49.8437 40.4018 49.6751 40.1946 49.5827 40.0186C49.549 39.938 49.5353 39.8523 49.5414 39.7613C49.5476 39.6704 49.5339 39.5846 49.5002 39.504C49.4346 39.3168 49.3483 39.1478 49.2411 38.997C49.1347 38.8331 49.0696 38.6395 49.0457 38.416C48.9057 38.1715 48.7245 37.9569 48.5022 37.7721C48.2937 37.5752 48.1203 37.3416 47.9821 37.0712C47.8197 36.773 47.6295 36.499 47.4116 36.2493C47.2075 35.9875 47.003 35.7321 46.7981 35.4832C46.607 35.2223 46.4363 34.9497 46.286 34.6654C46.1357 34.3811 46.0404 34.0548 46.0002 33.6867C45.6984 33.3268 45.3693 32.9847 45.0129 32.6603C44.6574 32.3229 44.3963 31.9397 44.2297 31.5107C44.1382 31.3218 44.0644 31.1602 44.0082 31.0258C43.953 30.8785 43.8835 30.7498 43.7996 30.6397C43.7157 30.5296 43.6119 30.4246 43.4882 30.3249C43.3775 30.226 43.2152 30.117 43.0014 29.9981C42.9474 30.2163 42.906 30.4419 42.8771 30.6748C42.8621 30.8957 42.8471 31.1165 42.832 31.3373C42.7843 32.0389 42.776 32.7365 42.8071 33.4303C42.8391 34.1111 42.8313 34.8023 42.7835 35.5038C42.7668 35.7506 42.7249 35.9827 42.6579 36.2C42.5909 36.4173 42.5499 36.6364 42.5349 36.8572C42.5101 37.221 42.5248 37.5809 42.5789 37.9369C42.6468 38.2809 42.6685 38.6347 42.6437 38.9985C42.6366 39.1024 42.6439 39.1877 42.6655 39.2545C42.687 39.3212 42.7155 39.3818 42.751 39.4365C42.7873 39.4781 42.8167 39.5258 42.8391 39.5795C42.8624 39.6202 42.8715 39.6796 42.8662 39.7575C42.852 39.9654 42.8188 40.1654 42.7666 40.3576C42.7144 40.5498 42.6812 40.7499 42.6671 40.9577C42.66 41.0616 42.6698 41.2059 42.6964 41.3904C42.7359 41.5758 42.7816 41.7681 42.8333 41.9674C42.885 42.1667 42.9371 42.3595 42.9897 42.5458C43.0562 42.7199 43.1188 42.8547 43.1776 42.9501C43.0586 43.1638 42.9535 43.3655 42.8623 43.5551C42.772 43.7316 42.6942 43.9156 42.629 44.1069C42.5777 44.2861 42.5384 44.4792 42.5113 44.6862C42.4851 44.8802 42.4765 45.1015 42.4857 45.3501C42.4137 45.4496 42.2546 45.5823 42.0084 45.7483C41.7631 45.9012 41.4918 46.0525 41.1945 46.2019C40.8972 46.3513 40.6142 46.4822 40.3456 46.5944C40.0778 46.6936 39.892 46.7397 39.788 46.7327C39.6711 46.7247 39.5811 46.7055 39.5179 46.6751C39.4538 46.6577 39.4036 46.6282 39.3673 46.5866C39.331 46.545 39.2882 46.5029 39.2388 46.4604C39.2034 46.4058 39.142 46.3494 39.0546 46.2912C38.9811 46.221 38.8733 46.1745 38.7313 46.1518C38.6031 46.117 38.5023 46.0644 38.4288 45.9942C38.3189 45.8823 38.2009 45.6981 38.0748 45.4415C37.9626 45.1729 37.8577 44.8917 37.7603 44.5979C37.6758 44.3051 37.6038 44.0196 37.5445 43.7415C37.4851 43.4634 37.4607 43.2464 37.4713 43.0905C37.4854 42.8826 37.5511 42.6848 37.6683 42.497C37.7984 42.3101 37.8892 42.127 37.9405 41.9478C38.0285 41.6145 38.106 41.2413 38.1733 40.8282C38.2535 40.416 38.306 40.0281 38.3308 39.6643C38.3555 39.3006 38.3014 38.9446 38.1685 38.5962C38.2624 38.3677 38.3307 38.1309 38.3734 37.8858C38.4171 37.6278 38.4469 37.3818 38.4628 37.148C38.4972 36.6413 38.482 36.0987 38.4169 35.52C38.3528 34.9284 38.2058 34.4028 37.976 33.9435C38.004 33.7235 38.0571 33.5183 38.1353 33.3279C38.2274 33.1253 38.3191 32.9293 38.4103 32.7397C38.5015 32.5502 38.5927 32.3606 38.6839 32.171C38.776 31.9685 38.8421 31.7642 38.8822 31.5581C38.9692 31.2377 39.0039 30.9203 38.9861 30.6059C38.9813 30.2924 38.9891 29.9862 39.0094 29.6874C39.0209 29.5185 39.0436 29.3765 39.0776 29.2614C39.1124 29.1332 39.1671 28.9999 39.2418 28.8614C39.2282 28.6778 39.1881 28.4989 39.1217 28.3247C39.0682 28.1514 39.0347 27.9729 39.0211 27.7893C39.0083 27.5927 39.0151 27.3974 39.0414 27.2034C39.0685 26.9964 39.0896 26.7825 39.1046 26.5617C39.1214 26.3148 39.1178 26.0797 39.0938 25.8562C39.0699 25.6327 39.0663 25.3975 39.0831 25.1507C39.0964 24.9558 39.1477 24.7766 39.2371 24.613C39.3274 24.4365 39.3792 24.2507 39.3925 24.0559C39.4234 23.6012 39.4089 23.1434 39.3489 22.6826C39.2897 22.2087 39.2756 21.7444 39.3066 21.2898C39.3287 20.965 39.4659 20.6742 39.7183 20.4173C39.9846 20.1483 40.2408 19.9308 40.487 19.7648C41.3763 19.9297 42.1242 20.2546 42.7307 20.7396C43.3502 21.2255 43.7399 21.9241 43.8998 22.8355C43.9066 22.9273 43.9281 22.9941 43.9645 23.0357C44.0017 23.0643 44.0393 23.0865 44.0774 23.1021C44.1294 23.1056 44.1809 23.1157 44.232 23.1322C44.283 23.1487 44.3328 23.1847 44.3812 23.2402C44.4651 23.3503 44.503 23.4638 44.4951 23.5808C44.5001 23.6986 44.5316 23.8116 44.5895 23.92C44.7805 24.1809 44.9133 24.3401 44.9877 24.3973C45.076 24.4425 45.1448 24.4863 45.1941 24.5288C45.2564 24.5722 45.3216 24.668 45.3899 24.8162C45.472 24.9523 45.6024 25.2418 45.7811 25.6846C45.9627 25.8927 46.1235 26.119 46.2634 26.3634C46.4173 26.5958 46.5642 26.8342 46.7042 27.0786C46.8572 27.3239 47.0171 27.5632 47.1839 27.7964C47.3517 28.0166 47.5472 28.2126 47.7704 28.3844C47.7849 28.5551 47.8197 28.7141 47.875 28.8614C47.9302 29.0087 47.9651 29.1677 47.9796 29.3383C48.0253 29.4328 48.1317 29.5966 48.2985 29.8299C48.4792 30.051 48.6591 30.2851 48.838 30.5321C49.0309 30.7671 49.1986 30.9874 49.3412 31.1928C49.4847 31.3853 49.5556 31.4945 49.5539 31.5205C49.5503 31.5725 49.5745 31.6002 49.6265 31.6038C49.8031 31.6941 49.9519 31.8086 50.073 31.9473C50.207 32.087 50.348 32.2205 50.496 32.3481C50.6251 32.9441 50.8699 33.4698 51.2305 33.925C51.591 34.3802 52.0067 34.7935 52.4773 35.1648C52.4806 35.3086 52.5107 35.4412 52.5677 35.5625C52.6256 35.6708 52.69 35.7796 52.7609 35.8888C52.8456 35.986 52.9235 36.0891 52.9943 36.1984C53.0782 36.3085 53.1421 36.4238 53.1861 36.5442C53.2198 36.6248 53.234 36.7041 53.2287 36.782C53.2234 36.86 53.2376 36.9392 53.2712 37.0198C53.304 37.1134 53.3576 37.1889 53.432 37.2461C53.5194 37.3043 53.593 37.3745 53.6526 37.4569C53.6984 37.5514 53.7299 37.6644 53.747 37.7961C53.778 37.9157 53.8086 38.0417 53.8387 38.1743C53.8828 38.2947 53.9406 38.4031 54.0124 38.4993C54.085 38.5826 54.1924 38.6356 54.3344 38.6583C54.4256 38.4687 54.48 38.244 54.4977 37.9842C54.5162 37.7114 54.5019 37.4429 54.4546 37.1786C54.4073 36.9144 54.3471 36.6493 54.2738 36.3833C54.2144 36.1052 54.1611 35.834 54.1138 35.5698C54.0665 35.3055 54.0521 35.037 54.0707 34.7642C54.0831 34.5823 54.14 34.4165 54.2416 34.2668C54.3431 34.1171 54.4001 33.9514 54.4124 33.7695C54.4248 33.5876 54.3978 33.4096 54.3313 33.2354C54.2657 33.0482 54.2253 32.8758 54.2099 32.7182C54.1782 32.4158 54.1748 32.0828 54.1995 31.7191C54.2381 31.3432 54.2638 30.9665 54.2764 30.5889C54.289 30.2112 54.2748 29.8448 54.2337 29.4897C54.2056 29.1354 54.1155 28.8291 53.9634 28.5708C53.9947 28.4946 54.013 28.4175 54.0183 28.3396C54.0236 28.2616 54.0289 28.1837 54.0342 28.1058C54.0572 27.768 54.0546 27.422 54.0265 27.0677C53.9993 26.7004 53.9981 26.3349 54.0228 25.9712C54.0405 25.7113 54.0841 25.4533 54.1538 25.197C54.2243 24.9277 54.3524 24.6754 54.538 24.4401C54.5167 24.1776 54.4408 23.9506 54.3103 23.759C54.1928 23.5683 54.0831 23.3585 53.9812 23.1297C53.9856 23.0648 53.996 23.0068 54.0126 22.9557C54.03 22.8916 54.0409 22.8271 54.0453 22.7622C54.0542 22.6323 54.0439 22.4945 54.0147 22.349C53.9854 22.2034 53.9493 22.0639 53.9061 21.9305C53.8769 21.7849 53.8476 21.6394 53.8184 21.4938C53.8021 21.3492 53.8053 21.2058 53.828 21.0638L53.8466 20.791L53.991 20.6834C53.9998 20.5535 54.0012 20.4361 53.9953 20.3313C53.9894 20.2265 53.9904 20.1156 53.9984 19.9987C54.0134 19.7779 54.1189 19.5697 54.3149 19.3742C54.5248 19.1666 54.7654 18.9872 55.0367 18.836C55.3089 18.6718 55.5849 18.547 55.8648 18.4617C56.1586 18.3642 56.4029 18.3221 56.5977 18.3353C56.7276 18.3442 56.8553 18.3855 56.9808 18.4593C57.1063 18.5331 57.2249 18.6129 57.3365 18.6988C57.4611 18.7856 57.5792 18.8719 57.6908 18.9578C57.8154 19.0446 57.9478 19.1123 58.0881 19.161C58.1977 19.4687 58.3554 19.7404 58.5612 19.9763C58.7679 20.1991 58.9269 20.4514 59.0383 20.733C59.0814 20.8665 59.0972 21.0177 59.0857 21.1865C59.0881 21.3433 59.0831 21.5126 59.0708 21.6945C59.0593 21.8634 59.0538 22.0392 59.0545 22.222C59.069 22.3926 59.1099 22.5585 59.1772 22.7197C59.0922 22.8183 59.0314 22.9447 58.9948 23.0988C58.9591 23.24 58.9355 23.395 58.924 23.5639C58.9125 23.7327 58.9076 23.9021 58.9091 24.0718C58.9114 24.2286 58.9082 24.3719 58.8994 24.5018C58.8923 24.6058 58.8671 24.6889 58.8237 24.7512C58.7803 24.8135 58.7551 24.8966 58.748 25.0005C58.7418 25.0915 58.7564 25.1642 58.7919 25.2189C58.8282 25.2605 58.8442 25.3138 58.8397 25.3787C58.8318 25.4956 58.79 25.6298 58.7145 25.7813C58.6398 25.9198 58.5855 26.0466 58.5516 26.1618C58.4846 26.3791 58.4371 26.5977 58.4091 26.8177C58.3949 27.0255 58.3812 27.2269 58.368 27.4217C58.3256 28.0453 58.3503 28.6408 58.4422 29.2082C58.5341 29.7757 58.5927 30.3539 58.6179 30.9429C58.6164 31.3474 58.602 31.751 58.5747 32.1537C58.5481 32.5434 58.5147 32.9392 58.4743 33.341C58.4478 33.7308 58.4213 34.1205 58.3948 34.5102C58.3813 34.9008 58.3872 35.2927 58.4127 35.686C58.4328 36.1572 58.4657 36.5379 58.5112 36.8281C58.5697 37.1192 58.6221 37.4034 58.6685 37.6806C58.7158 37.9449 58.7544 38.2411 58.7843 38.5694C58.8141 38.8977 58.8105 39.3347 58.7734 39.8803C58.7487 40.2441 58.7633 40.6039 58.8174 40.96C58.8724 41.3031 58.8875 41.6565 58.8628 42.0202C58.8469 42.254 58.8769 42.4845 58.9528 42.7115C59.0426 42.9264 59.0795 43.1508 59.0636 43.3846L59.0543 43.521L58.902 43.7456C58.9929 43.7518 59.0349 43.8068 59.0278 43.9108ZM80.9394 45.2446C80.9987 45.5227 81.0196 45.7917 81.0019 46.0515C80.9798 46.3763 80.9006 46.6776 80.7643 46.9554C80.6409 47.2342 80.5106 47.5189 80.3733 47.8098C80.2225 47.917 80.0539 47.9969 79.8676 48.0495C79.6813 48.102 79.5067 48.175 79.3438 48.2683C79.0604 48.4056 78.819 48.5002 78.6197 48.5519C78.4334 48.6044 78.2489 48.631 78.0662 48.6317C77.8834 48.6323 77.6885 48.619 77.4816 48.5919C77.2746 48.5648 77.0152 48.5406 76.7034 48.5194C76.2228 48.4867 75.7771 48.5151 75.3665 48.6046C74.9697 48.6821 74.6024 48.7093 74.2646 48.6863C73.9269 48.6633 73.5714 48.613 73.1982 48.5354C72.8389 48.4458 72.4773 48.3885 72.1136 48.3638C71.8927 48.3488 71.6766 48.3602 71.4652 48.398C71.2677 48.4237 71.0615 48.4815 70.8466 48.5713C70.6517 48.558 70.4738 48.4872 70.3129 48.3588C70.1658 48.2183 69.9819 48.1405 69.7611 48.1255C69.6441 48.1175 69.5389 48.1299 69.4453 48.1627C69.3517 48.1955 69.24 48.2075 69.1101 48.1986C68.8892 48.1836 68.6844 48.124 68.4958 48.0198C68.3201 47.9165 68.1218 47.8573 67.901 47.8423C67.5762 47.8202 67.2336 47.8687 66.8731 47.9877C66.5135 48.0938 66.1519 48.1345 65.7881 48.1097C65.5803 48.0956 65.395 48.0373 65.2323 47.9349C65.0826 47.8333 64.9342 47.7123 64.7872 47.5718C64.654 47.4192 64.5273 47.267 64.4071 47.1153C64.2869 46.9635 64.1529 46.8239 64.0049 46.6964C63.9895 46.5387 63.9414 46.2875 63.8604 45.9426C63.7925 45.5987 63.7189 45.2413 63.6397 44.8705C63.5605 44.4997 63.4926 44.1557 63.4358 43.8387C63.3791 43.5216 63.3543 43.3111 63.3613 43.2072C63.371 43.0643 63.3998 42.9292 63.4476 42.8019C63.4963 42.6617 63.5255 42.5201 63.5352 42.3772C63.5476 42.1953 63.5266 42.0242 63.4723 41.8639C63.4188 41.6906 63.3983 41.513 63.4106 41.3312C63.4133 41.2922 63.4217 41.1688 63.4358 40.9609C63.4629 40.754 63.4845 40.5336 63.5004 40.2997C63.5301 40.0538 63.5521 39.8269 63.5662 39.619C63.5934 39.4121 63.6148 39.2895 63.6304 39.2514C63.6168 39.0678 63.5763 38.8954 63.509 38.7342C63.4555 38.5609 63.4025 38.3811 63.3499 38.1948C63.5284 37.4892 63.6458 36.8185 63.7021 36.1828C63.7593 35.5342 63.813 34.8396 63.8634 34.0991C63.8678 34.0342 63.8384 33.9865 63.7753 33.9561C63.713 33.9127 63.6368 33.8814 63.5467 33.8623C63.4697 33.844 63.3857 33.8317 63.2947 33.8255C63.2168 33.8202 63.1583 33.8163 63.1194 33.8136C63.0414 33.8083 62.9574 33.7961 62.8674 33.7769C62.7773 33.7577 62.7029 33.7004 62.6441 33.6051C62.4147 33.5242 62.2213 33.3936 62.0639 33.2132C61.9204 33.0208 61.7634 32.8339 61.5931 32.6527L61.609 32.4188C61.611 32.1971 61.6446 31.9906 61.7098 31.7992C61.7889 31.5958 61.8676 31.3989 61.9458 31.2084C62.0379 31.0059 62.123 30.8094 62.2012 30.6189C62.2803 30.4155 62.3404 30.2042 62.3814 29.9852C62.5036 29.9152 62.6305 29.8716 62.7622 29.8545C62.8948 29.8243 62.9482 29.7105 62.9225 29.513C63.0595 29.4179 63.2314 29.3839 63.4384 29.411C63.6592 29.4261 63.8411 29.4384 63.984 29.4482L64.062 29.4535C64.1107 29.3132 64.1394 29.1781 64.1483 29.0482C64.171 28.9062 64.1872 28.7638 64.1969 28.6209C64.2429 27.9453 64.2234 27.2719 64.1386 26.6005C64.0667 25.93 64.0538 25.257 64.0997 24.5815C64.113 24.3866 64.164 24.116 64.2528 23.7697C64.3425 23.4104 64.4456 23.0455 64.5622 22.6749C64.6796 22.2914 64.8023 21.9278 64.93 21.5841C65.0587 21.2274 65.1622 20.9538 65.2404 20.7634C65.6085 20.7232 65.9534 20.6422 66.2749 20.5205C66.6093 20.3997 66.9455 20.3508 67.2832 20.3738C67.4781 20.387 67.6781 20.4202 67.8833 20.4733C68.0885 20.5265 68.2821 20.5592 68.4639 20.5716C68.6458 20.5839 68.8095 20.5755 68.9551 20.5462C69.1006 20.517 69.2527 20.4882 69.4112 20.4598C69.5698 20.4314 69.7478 20.4044 69.9453 20.3787C70.1428 20.353 70.378 20.3494 70.6508 20.3679C71.69 20.4386 72.7454 20.4647 73.8168 20.4463C74.9021 20.4157 75.9771 20.3452 77.0417 20.235C77.1067 20.2394 77.166 20.2304 77.2197 20.2079C77.2865 20.1863 77.3588 20.1782 77.4367 20.1835C77.4757 20.1862 77.5125 20.2213 77.547 20.2889C77.5955 20.3444 77.6313 20.3925 77.6547 20.4333C77.7353 20.3996 77.8275 20.3863 77.9315 20.3934C78.0493 20.3883 78.1601 20.3893 78.264 20.3964C78.6408 20.422 79.0135 20.5061 79.3823 20.6487C79.752 20.7782 80.116 20.8943 80.4745 20.997C80.5218 21.2613 80.563 21.5185 80.5982 21.7689C80.6463 22.0202 80.6616 22.2757 80.6439 22.5355C80.6139 22.9772 80.5264 23.304 80.3814 23.516C80.2374 23.7151 80.0635 23.8729 79.8598 23.9895C79.657 24.0932 79.4412 24.196 79.2124 24.2979C78.9845 24.3868 78.7716 24.542 78.5739 24.7634L78.2816 24.7436C77.8044 24.6589 77.3233 24.6327 76.8383 24.665C76.3532 24.6972 75.8638 24.6965 75.3702 24.663C75.1753 24.6497 74.9986 24.6573 74.8401 24.6856C74.6954 24.7019 74.5563 24.7316 74.4229 24.7747C74.3024 24.8187 74.1751 24.8688 74.0407 24.9249C73.9073 24.968 73.7544 25.0098 73.5819 25.0503C73.3767 24.9972 73.1836 24.958 73.0027 24.9326C72.8226 24.8943 72.6286 24.868 72.4207 24.8539C71.7452 24.8079 71.0839 24.8412 70.4367 24.9538C69.7896 25.0664 69.1399 25.1201 68.4877 25.1149C68.3602 25.2628 68.2902 25.4277 68.2779 25.6096C68.2611 25.8564 68.2837 26.0994 68.3457 26.3386C68.4216 26.5656 68.4646 26.7969 68.4747 27.0325C68.4718 27.2672 68.455 27.514 68.4243 27.773C68.4076 28.0198 68.3908 28.2666 68.374 28.5135C68.3702 28.7612 68.3798 29.0033 68.4029 29.2398C68.4389 29.4771 68.5153 29.6977 68.6319 29.9014C68.7081 29.9326 68.7912 29.9579 68.8813 29.977C68.9843 29.9971 69.0878 30.0107 69.1917 30.0177C69.5165 30.0398 69.8435 30.0294 70.1727 29.9866C70.5157 29.9316 70.8432 29.9147 71.1549 29.9359C71.6746 29.9713 72.1764 30.0772 72.6603 30.2537C73.1581 30.418 73.6733 30.5183 74.2059 30.5546C74.3229 30.5625 74.4415 30.5445 74.562 30.5005C74.6954 30.4574 74.8336 30.4407 74.9765 30.4504C75.0415 30.4548 75.1046 30.4852 75.1661 30.5416C75.2275 30.598 75.3166 30.6301 75.4336 30.6381C75.6154 30.6505 75.7874 30.6165 75.9495 30.5361C76.1116 30.4558 76.2965 30.4227 76.5044 30.4368C76.6733 30.4483 76.8265 30.4979 76.9641 30.5856C77.1156 30.6611 77.2592 30.7557 77.395 30.8694C77.5318 30.97 77.6685 31.0707 77.8052 31.1714C77.9428 31.259 78.0891 31.3146 78.2441 31.3382C78.2264 31.5981 78.2746 31.8493 78.3886 32.092C78.5026 32.3346 78.5508 32.5859 78.5331 32.8457C78.5189 33.0536 78.426 33.2691 78.2542 33.4923C78.0833 33.7026 77.8808 33.8976 77.6467 34.0775C77.4126 34.2573 77.1668 34.4168 76.9094 34.5559C76.6649 34.6958 76.4565 34.7861 76.2841 34.8266C76.1784 34.8455 76.074 34.8449 75.971 34.8248C75.8809 34.8057 75.7969 34.7934 75.719 34.7881C75.5501 34.7766 75.3795 34.7911 75.207 34.8316C75.0346 34.8721 74.8618 34.919 74.6885 34.9725C74.5282 35.0269 74.3553 35.0738 74.1699 35.1134C73.9975 35.1539 73.8138 35.1675 73.619 35.1543C73.3332 35.1348 73.0487 35.0959 72.7656 35.0375C72.4954 34.9799 72.2109 34.941 71.9122 34.9207C71.7433 34.9092 71.5861 34.9181 71.4405 34.9473C71.295 34.9766 71.1377 34.9855 70.9689 34.974C70.826 34.9643 70.6593 34.9203 70.4688 34.8421C70.2784 34.7639 70.0884 34.6792 69.8988 34.588C69.7093 34.4968 69.5323 34.413 69.3678 34.3365C69.2033 34.2601 69.0756 34.2188 68.9847 34.2126C68.9327 34.209 68.886 34.2254 68.8443 34.2618C68.8166 34.286 68.7819 34.3162 68.7403 34.3526C68.7125 34.3768 68.6718 34.4001 68.6181 34.4226C68.5773 34.4459 68.5189 34.4419 68.4427 34.4106C68.3698 34.5231 68.3159 34.6434 68.2811 34.7716C68.2601 34.8876 68.2457 35.0041 68.2377 35.121C68.2201 35.3808 68.2288 35.6359 68.264 35.8863C68.3 36.1236 68.3097 36.3657 68.2929 36.6126C68.2805 36.7944 68.2417 36.981 68.1765 37.1724C68.1122 37.3507 68.0738 37.5308 68.0615 37.7127C68.05 37.8816 68.0596 38.1237 68.0904 38.439C68.122 38.7413 68.1588 39.0635 68.2008 39.4057C68.2558 39.7488 68.2973 40.0975 68.3254 40.4517C68.3544 40.793 68.3605 41.0871 68.3437 41.3339C68.3163 41.7366 68.2694 42.138 68.2031 42.5381C68.1376 42.9252 68.0911 43.3201 68.0637 43.7228C68.4204 43.8514 68.7732 43.9407 69.1222 43.9905C69.4712 44.0404 69.8276 44.0777 70.1913 44.1024C71.0487 44.1607 71.9161 44.1675 72.7936 44.1228C73.671 44.0781 74.5458 44.0723 75.418 44.1056C75.6908 44.1241 75.9567 44.1487 76.2156 44.1794C76.4875 44.211 76.7599 44.236 77.0327 44.2546C77.3575 44.2767 77.6676 44.226 77.9631 44.1025C78.2587 43.9791 78.5493 43.927 78.8351 43.9465C79.3288 43.9801 79.671 44.2252 79.8618 44.6819L80.0203 44.6535C80.1381 44.6485 80.2347 44.6681 80.31 44.7124C80.3853 44.7567 80.4536 44.807 80.515 44.8634C80.5894 44.9207 80.6569 44.984 80.7175 45.0533C80.778 45.1227 80.852 45.1865 80.9394 45.2446ZM100.276 26.592C100.36 26.8849 100.415 27.1366 100.44 27.3471C100.478 27.5455 100.498 27.736 100.499 27.9188C100.513 28.0894 100.507 28.2782 100.48 28.4852C100.466 28.6801 100.45 28.9204 100.431 29.2062C100.408 29.531 100.426 29.8454 100.484 30.1495C100.541 30.4536 100.573 30.7559 100.579 31.0565C100.59 31.2791 100.581 31.5004 100.553 31.7203C100.526 31.9273 100.505 32.1347 100.491 32.3426C100.453 32.9012 100.478 33.4053 100.565 33.8549C100.651 34.3046 100.869 34.75 101.218 35.1914C101.213 35.2563 101.202 35.3208 101.185 35.3849C101.167 35.449 101.156 35.52 101.151 35.5979C101.132 35.8707 101.179 36.1415 101.291 36.4101C101.404 36.6658 101.485 36.9257 101.532 37.19C101.559 37.3745 101.56 37.6421 101.536 37.9929C101.526 38.3315 101.515 38.6832 101.503 39.0478C101.505 39.4133 101.527 39.7542 101.571 40.0704C101.629 40.3744 101.732 40.5838 101.881 40.6983C101.913 40.9876 101.933 41.3674 101.94 41.8378C101.961 42.296 102.001 42.762 102.06 43.2359C102.132 43.7106 102.239 44.1551 102.381 44.5693C102.523 44.9705 102.732 45.2523 103.008 45.4146C103.12 45.122 103.236 44.8493 103.358 44.5966C103.48 44.3308 103.596 44.0647 103.706 43.798C103.815 43.5314 103.906 43.257 103.977 42.9747C104.061 42.6933 104.109 42.3833 104.119 42.0447C104.285 41.8994 104.407 41.7315 104.486 41.5411C104.577 41.3515 104.642 41.1537 104.683 40.9476C104.736 40.7424 104.776 40.5363 104.803 40.3294C104.843 40.1233 104.896 39.9246 104.961 39.7332C105.091 39.3636 105.223 39.0528 105.357 38.8009C105.493 38.5361 105.608 38.2764 105.704 38.0219C105.812 37.7683 105.903 37.4938 105.975 37.1986C106.06 36.9042 106.112 36.5357 106.129 36.0932C106.55 35.4562 106.886 34.7417 107.136 33.9495C107.386 33.1444 107.538 32.3521 107.591 31.5726C107.607 31.3388 107.656 31.1007 107.738 30.8582C107.833 30.6037 107.935 30.3497 108.044 30.096C108.153 29.8294 108.262 29.5758 108.37 29.3351C108.491 29.0824 108.593 28.8413 108.673 28.6119C108.729 28.3677 108.765 28.1287 108.781 27.8949C108.81 27.6619 108.878 27.4251 108.986 27.1845C109.064 26.994 109.149 26.804 109.24 26.6145C109.332 26.4119 109.417 26.2154 109.495 26.025C109.59 25.7835 109.659 25.5402 109.702 25.2951C109.757 25.0509 109.845 24.822 109.964 24.6082C110.131 24.4499 110.273 24.2834 110.389 24.1086C110.519 23.9217 110.692 23.7768 110.908 23.674L111.042 23.4287C111.244 23.338 111.425 23.2785 111.583 23.2501C111.742 23.2217 111.892 23.2124 112.035 23.2221C112.191 23.2327 112.354 23.2438 112.522 23.2553C112.691 23.2668 112.881 23.2666 113.09 23.2547C113.393 23.6016 113.608 23.9947 113.734 24.434C113.861 24.8733 113.909 25.3138 113.879 25.7555C113.863 26.0023 113.807 26.24 113.713 26.4685C113.633 26.6849 113.546 26.9074 113.453 27.1359C113.36 27.3515 113.266 27.5735 113.172 27.8021C113.092 28.0185 113.044 28.2501 113.027 28.4969C113.022 28.5749 113.016 28.6658 113.009 28.7697C113.016 28.8616 113.036 28.9478 113.069 29.0284C112.81 29.3892 112.615 29.7544 112.486 30.1241C112.369 30.4947 112.272 30.8665 112.195 31.2397C112.13 31.6138 112.065 31.9944 112 32.3815C111.948 32.7564 111.863 33.1422 111.745 33.5387C111.692 33.7439 111.601 33.9205 111.474 34.0684C111.346 34.2163 111.256 34.3929 111.203 34.5981C110.987 35.4709 110.759 36.3233 110.52 37.1553C110.294 37.9753 109.991 38.7964 109.608 39.6187C109.469 39.9355 109.317 40.2514 109.152 40.5665C108.987 40.8815 108.835 41.1975 108.696 41.5143C108.557 41.8311 108.444 42.1562 108.356 42.4895C108.268 42.8229 108.225 43.1723 108.226 43.5378C107.88 43.8275 107.64 44.1961 107.505 44.6437C107.37 45.0914 107.287 45.5425 107.256 45.9972C107.145 46.094 107.009 46.2675 106.849 46.5176C106.701 46.7686 106.552 47.0391 106.402 47.329C106.252 47.619 106.102 47.9024 105.953 48.1794C105.816 48.4572 105.703 48.6779 105.614 48.8415L105.601 49.0364C105.618 49.1681 105.603 49.2845 105.557 49.3858C105.511 49.4871 105.471 49.5953 105.437 49.7104C105.227 49.931 105.015 50.1581 104.804 50.3917C104.605 50.6261 104.388 50.8398 104.153 51.0326C103.931 51.2263 103.685 51.3858 103.416 51.511C103.145 51.6492 102.854 51.7207 102.54 51.7255C102.099 51.4997 101.74 51.3056 101.464 51.1433C101.2 50.9948 100.977 50.823 100.794 50.6279C100.612 50.4198 100.453 50.174 100.316 49.8906C100.192 49.5951 100.056 49.2008 99.9067 48.7078L99.6626 48.5542C99.4951 48.1382 99.3736 47.7188 99.2979 47.296C99.2232 46.8603 99.0947 46.447 98.9124 46.0561C98.8572 45.9088 98.7881 45.7736 98.7051 45.6505C98.623 45.5144 98.5544 45.3727 98.4991 45.2253C98.3869 44.9567 98.3275 44.6786 98.321 44.391C98.3144 44.1034 98.2624 43.8128 98.1649 43.519C97.9794 42.9844 97.8654 42.4546 97.8228 41.9296C97.7941 41.3926 97.7398 40.8473 97.66 40.2937C97.4802 40.0596 97.3865 39.8053 97.3791 39.5307C97.3726 39.2432 97.3456 38.9673 97.2984 38.703C97.2618 38.8571 97.2057 39.0099 97.1301 39.1614C97.0676 39.3138 96.9925 39.4587 96.9048 39.5963C96.7897 40.1367 96.6548 40.6821 96.4998 41.2328C96.3449 41.7834 96.1394 42.3111 95.8832 42.8157C95.7477 43.0805 95.6568 43.3615 95.6105 43.6585C95.5651 43.9425 95.4742 44.2235 95.3378 44.5013C95.2632 44.6398 95.1695 44.7705 95.0567 44.8933C94.9578 45.004 94.871 45.1286 94.7963 45.2671C94.5481 45.6548 94.3505 46.0655 94.2035 46.4993C94.0696 46.9339 93.891 47.3524 93.6679 47.7549L93.4261 47.8559C93.1977 48.3363 92.9953 48.7206 92.8191 49.0087C92.6568 49.2848 92.4711 49.5202 92.2621 49.7148C92.0531 49.9094 91.8004 50.0749 91.504 50.2113C91.2067 50.3608 90.8163 50.5365 90.3327 50.7385C90.0209 50.7173 89.7395 50.6329 89.4886 50.4853C89.2367 50.3507 89.0065 50.185 88.7981 49.9881C88.6035 49.7791 88.4227 49.558 88.2559 49.3248C88.0899 49.0786 87.9231 48.8454 87.7553 48.6251C87.74 48.4675 87.7241 48.3163 87.7079 48.1717C87.6916 48.027 87.6892 47.8702 87.7007 47.7013C87.6334 47.5401 87.5505 47.3192 87.4522 47.0384C87.3538 46.7576 87.2494 46.47 87.1389 46.1753C87.0285 45.8807 86.9167 45.6055 86.8036 45.3499C86.7043 45.0821 86.5998 44.8923 86.4899 44.7804C86.5442 44.3665 86.5344 43.9351 86.4605 43.4864C86.3866 43.0376 86.1983 42.6398 85.8956 42.2929C85.9009 42.215 85.9123 42.144 85.9297 42.0799C85.9471 42.0158 85.9589 41.9383 85.9651 41.8474C85.9837 41.5746 85.9572 41.2922 85.8857 41.0002C85.8281 40.6961 85.7505 40.3972 85.653 40.1034C85.5564 39.7967 85.4464 39.4956 85.323 39.2001C85.2134 38.8924 85.122 38.6056 85.0487 38.3396C84.8056 37.5009 84.6339 36.667 84.5337 35.838C84.4344 34.9959 84.3359 34.1409 84.2383 33.2729C84.2014 33.0486 84.1293 32.8609 84.0221 32.7101C83.9149 32.5592 83.848 32.3916 83.8214 32.207C83.7709 31.799 83.7454 31.4058 83.7451 31.0273C83.7456 30.6358 83.7387 30.2568 83.7245 29.8904C83.7112 29.511 83.6714 29.1364 83.6052 28.7665C83.539 28.3965 83.4079 28.0222 83.2118 27.6434C83.2448 27.5413 83.2705 27.4516 83.2888 27.3746C83.308 27.2845 83.3211 27.1875 83.3281 27.0836C83.3441 26.8498 83.327 26.6202 83.2771 26.395C83.2281 26.1567 83.1651 25.9306 83.0883 25.7165C83.0254 25.4904 82.969 25.2647 82.9191 25.0394C82.87 24.8012 82.8534 24.5651 82.8693 24.3313C82.9003 23.8766 83.0087 23.4337 83.1946 23.0027C83.3936 22.5725 83.6604 22.1991 83.9952 21.8825L84.3264 21.9051C84.4823 21.9157 84.6326 21.9128 84.7773 21.8966C84.9219 21.8803 85.0787 21.8779 85.2476 21.8894C85.3905 21.8991 85.5256 21.9279 85.6528 21.9757C85.7939 22.0114 85.9337 22.0666 86.0722 22.1413L86.1732 22.3831C86.348 22.4993 86.4812 22.652 86.5728 22.8409C86.6773 23.0307 86.8027 23.2024 86.9488 23.3559C87.0378 23.5838 87.0803 23.8216 87.0765 24.0693C87.0857 24.3179 87.1144 24.5678 87.1625 24.8191C87.2142 25.0184 87.2794 25.212 87.3579 25.4001C87.4504 25.576 87.5086 25.7758 87.5325 25.9993C87.5954 26.2254 87.6125 26.455 87.5836 26.6879C87.5677 26.9217 87.5838 27.1643 87.6319 27.4155C87.6828 27.6278 87.7475 27.828 87.826 28.016C87.9176 28.205 87.9892 28.3991 88.0409 28.5983C88.058 28.73 88.0557 28.8604 88.0339 28.9894C88.025 29.1193 88.0361 29.244 88.0672 29.3636C88.0861 29.4693 88.1119 29.5689 88.1447 29.6625C88.1914 29.744 88.2315 29.8251 88.2652 29.9056C88.2909 30.1032 88.2837 30.305 88.2436 30.511C88.2173 30.705 88.1976 30.8994 88.1843 31.0943C88.1684 31.3281 88.1875 31.6231 88.2416 31.9791C88.2957 32.3352 88.3619 32.7051 88.4402 33.0889C88.5324 33.4606 88.6315 33.8263 88.7375 34.1859C88.8575 34.5333 88.9692 34.8085 89.0729 35.0113L89.0517 35.3231C89.0131 35.6989 89.0105 36.025 89.0439 36.3014C89.0782 36.5647 89.1328 36.8164 89.2079 37.0564C89.2838 37.2834 89.3588 37.5235 89.433 37.7765C89.521 38.0174 89.599 38.3098 89.6669 38.6538C89.7186 38.853 89.75 39.064 89.7609 39.2866C89.7728 39.4962 89.7846 39.7058 89.7964 39.9155C89.8222 40.113 89.8613 40.3049 89.9139 40.4912C89.9665 40.6774 90.0589 40.8534 90.1912 41.019L90.1634 41.4282C90.1318 41.7001 90.1401 41.9617 90.1883 42.213C90.2365 42.4642 90.2976 42.7163 90.3718 42.9694C90.4468 43.2094 90.5279 43.4563 90.615 43.7102C90.703 43.9511 90.7781 44.1911 90.8401 44.4303C91.1374 44.2808 91.3777 44.0101 91.561 43.618C91.7572 43.2267 91.9167 42.8004 92.0395 42.3389C92.1761 41.8653 92.2863 41.3964 92.3701 40.9323C92.4539 40.4682 92.5323 40.082 92.6055 39.7737C92.7147 39.7029 92.8119 39.6181 92.8969 39.5195C92.9837 39.3949 93.0498 39.1906 93.0952 38.9065C93.1536 38.6234 93.1999 38.3264 93.2341 38.0155C93.2822 37.6925 93.3233 37.3755 93.3575 37.0646C93.3917 36.7537 93.4349 36.5022 93.4871 36.31C93.5376 36.1437 93.6006 35.9849 93.6762 35.8334C93.7656 35.6698 93.8416 35.5119 93.9042 35.3595C93.9806 35.195 94.0306 35.0353 94.0542 34.8803C94.0917 34.7132 94.0906 34.5369 94.051 34.3515C94.3737 34.0211 94.6132 33.6654 94.7696 33.2845C94.9269 32.8907 95.0397 32.4807 95.1078 32.0547C95.1889 31.6295 95.2376 31.2021 95.2537 30.7725C95.2838 30.3309 95.3329 29.897 95.401 29.4709C95.4411 29.2649 95.4873 29.0657 95.5395 28.8735C95.6047 28.6822 95.6639 28.4839 95.717 28.2787C95.8285 27.7904 95.9201 27.3072 95.9918 26.8292C96.0643 26.3382 96.1694 25.8494 96.3069 25.3628C96.2516 25.2155 96.1969 25.0617 96.1425 24.9014C96.1011 24.7419 96.0858 24.5843 96.0964 24.4284C96.1087 24.2465 96.1527 24.0798 96.2283 23.9284C96.3168 23.7778 96.4235 23.648 96.5484 23.539C96.6821 23.3002 96.8006 23.0929 96.9039 22.9172C97.0211 22.7294 97.1491 22.575 97.2878 22.4539C97.4274 22.3198 97.5969 22.227 97.7962 22.1753C97.9963 22.1106 98.2458 22.0884 98.5446 22.1087C98.7914 22.1255 99.007 22.2185 99.1912 22.3876C99.3764 22.5438 99.5845 22.6493 99.8157 22.7042C99.9279 22.9728 100.033 23.2475 100.132 23.5283C100.244 23.7969 100.33 24.0703 100.389 24.3484C100.487 24.4464 100.564 24.5626 100.62 24.6969C100.69 24.8191 100.72 24.9517 100.71 25.0946C100.693 25.3544 100.63 25.6047 100.522 25.8453C100.414 26.0859 100.332 26.3348 100.276 26.592ZM134.364 32.8065C134.337 33.2092 134.291 33.5976 134.226 33.9717C134.162 34.3458 134.065 34.7176 133.935 35.0873C133.555 35.3094 133.147 35.4578 132.711 35.5326C132.288 35.6082 131.856 35.631 131.414 35.601C131.31 35.5939 131.207 35.5803 131.104 35.5603C131.014 35.5411 130.917 35.528 130.813 35.5209C130.736 35.3069 130.654 35.1708 130.566 35.1126C130.48 35.0415 130.399 34.9773 130.325 34.92C130.264 34.8636 130.211 34.7752 130.167 34.6548C130.136 34.5352 130.131 34.313 130.153 33.9883C130.167 33.7934 130.137 33.6609 130.063 33.5906C129.99 33.5203 129.945 33.4129 129.928 33.2682C129.882 32.7952 129.874 32.4423 129.903 32.2093C129.945 31.9643 129.974 31.7378 129.988 31.53C130.015 31.323 129.998 31.0869 129.938 30.8218C129.892 30.5446 129.756 30.1438 129.531 29.6195C129.497 29.5389 129.465 29.4259 129.436 29.2803C129.408 29.1218 129.363 29.0143 129.301 28.9579C129.241 28.8885 129.148 28.817 129.022 28.7432C128.898 28.6564 128.76 28.5752 128.608 28.4997C128.458 28.4111 128.313 28.336 128.173 28.2743C128.035 28.1996 127.922 28.1332 127.835 28.0751C127.734 28.016 127.615 27.9427 127.478 27.855C127.354 27.7553 127.217 27.6611 127.066 27.5726C126.916 27.471 126.772 27.3894 126.633 27.3277C126.494 27.253 126.366 27.2117 126.249 27.2038C126.107 27.1941 125.969 27.2043 125.836 27.2344C125.704 27.2645 125.559 27.2743 125.404 27.2637C125.261 27.254 125.119 27.2248 124.979 27.1761C124.852 27.1283 124.716 27.0995 124.574 27.0898C124.405 27.0783 124.174 27.1083 123.882 27.1798C123.603 27.2522 123.296 27.3553 122.961 27.4891C122.639 27.6108 122.303 27.7575 121.952 27.9294C121.615 28.0892 121.29 28.2629 120.977 28.4504C120.678 28.6258 120.411 28.8034 120.177 28.9833C119.956 29.164 119.801 29.3297 119.713 29.4803C119.566 29.7182 119.457 29.9719 119.387 30.2411C119.329 30.5113 119.272 30.7815 119.214 31.0516C119.17 31.3227 119.112 31.5928 119.042 31.8621C118.971 32.1314 118.856 32.3845 118.696 32.6216C118.815 32.7994 118.893 32.9939 118.931 33.2053C118.969 33.4037 119.002 33.6017 119.027 33.7992C119.053 33.9967 119.079 34.1877 119.106 34.3722C119.145 34.5576 119.226 34.7197 119.347 34.8585C119.443 34.9824 119.553 35.0943 119.676 35.1941C119.813 35.2947 119.936 35.401 120.046 35.5129C120.157 35.6118 120.247 35.7288 120.316 35.864C120.398 36.0001 120.432 36.1721 120.418 36.38C120.562 36.3767 120.735 36.4146 120.939 36.4937C121.143 36.5598 121.346 36.6454 121.548 36.7505C121.763 36.8434 121.972 36.9424 122.174 37.0475C122.375 37.1526 122.546 37.236 122.685 37.2977C122.799 37.3446 122.899 37.4166 122.984 37.5137C123.068 37.6108 123.168 37.6829 123.282 37.7298C123.575 37.8411 123.871 37.8939 124.172 37.8882C124.486 37.8704 124.791 37.9042 125.085 37.9895C125.315 38.0573 125.499 38.1351 125.637 38.2228C125.788 38.2983 125.927 38.373 126.052 38.4468C126.191 38.5215 126.343 38.5905 126.508 38.654C126.674 38.7044 126.9 38.7394 127.186 38.7588C127.29 38.7659 127.398 38.8059 127.511 38.8788C127.623 38.9517 127.742 39.0251 127.868 39.0988C127.993 39.1726 128.125 39.2469 128.264 39.3215C128.416 39.3841 128.578 39.4081 128.748 39.3936C128.93 39.6018 129.09 39.8345 129.229 40.092C129.369 40.3364 129.502 40.5869 129.628 40.8434C129.768 41.0879 129.915 41.3328 130.068 41.5781C130.222 41.8104 130.402 42.0315 130.61 42.2414C130.606 42.3064 130.589 42.3639 130.559 42.4141C130.543 42.4522 130.533 42.5037 130.529 42.5687C130.51 42.8415 130.561 43.0603 130.68 43.225C130.813 43.3776 130.924 43.5679 131.013 43.7958C130.979 43.9109 130.959 44.0205 130.952 44.1244C130.945 44.2283 130.938 44.3323 130.931 44.4362C130.9 44.8909 130.92 45.3556 130.992 45.8303C131.065 46.2921 131.086 46.7503 131.055 47.205C131.025 47.6596 130.972 48.0411 130.899 48.3493C130.827 48.6446 130.73 48.9251 130.607 49.1908C130.486 49.4436 130.331 49.6941 130.145 49.9424C129.971 50.1917 129.755 50.4902 129.497 50.838C129.312 51.0604 129.151 51.3105 129.015 51.5883C128.892 51.867 128.726 52.0972 128.518 52.2788L128.225 52.2589L128.206 52.5512C128.096 52.6221 127.969 52.6787 127.822 52.7209C127.689 52.764 127.561 52.8206 127.439 52.8906C126.99 53.1472 126.651 53.3395 126.421 53.4673C126.189 53.6082 125.967 53.7106 125.754 53.7744C125.553 53.839 125.316 53.8751 125.042 53.8825C124.779 53.9038 124.386 53.9228 123.863 53.9394C123.563 53.9451 123.267 53.9706 122.977 54.0162C122.7 54.0626 122.418 54.076 122.132 54.0566C121.86 54.038 121.642 53.9776 121.479 53.8751C121.329 53.7866 121.145 53.7023 120.929 53.6223C120.775 53.5728 120.621 53.5362 120.466 53.5126C120.311 53.489 120.156 53.4654 120.001 53.4418C119.846 53.4182 119.698 53.3886 119.557 53.3529C119.415 53.3301 119.281 53.2819 119.156 53.2081C119.017 53.1334 118.9 53.0406 118.803 52.9296C118.718 52.8325 118.62 52.741 118.508 52.6551C118.471 52.6264 118.415 52.59 118.339 52.5457C118.276 52.5153 118.214 52.4784 118.151 52.435C118.102 52.3925 118.06 52.344 118.024 52.2893C118.002 52.2356 118.013 52.1711 118.057 52.0958C117.607 51.9869 117.248 51.8059 116.978 51.5526C116.709 51.2863 116.468 50.9958 116.254 50.6811C116.055 50.3543 115.855 50.0275 115.655 49.7007C115.47 49.3618 115.223 49.0579 114.915 48.789C114.919 48.724 114.929 48.6725 114.945 48.6344C114.96 48.5963 114.97 48.5448 114.975 48.4799C114.986 48.311 114.965 48.1399 114.912 47.9666C114.871 47.7942 114.824 47.6278 114.77 47.4675C114.715 47.3072 114.661 47.1469 114.607 46.9866C114.565 46.8272 114.549 46.676 114.559 46.5331C114.573 46.3253 114.646 46.1149 114.778 45.902C114.924 45.677 115.094 45.4797 115.288 45.3102C115.496 45.1286 115.715 44.9869 115.944 44.885C116.186 44.771 116.405 44.7206 116.6 44.7339C116.821 44.7489 117.026 44.802 117.216 44.8932C117.405 44.9844 117.587 45.0946 117.761 45.2239C117.935 45.3532 118.101 45.4951 118.26 45.6494C118.42 45.8038 118.573 45.9513 118.72 46.0918C118.758 46.3032 118.829 46.5038 118.933 46.6936C119.038 46.8834 119.142 47.0733 119.247 47.2631C119.351 47.4529 119.449 47.6488 119.54 47.8507C119.631 48.0397 119.689 48.2524 119.712 48.4889C119.902 48.5671 120.077 48.6769 120.237 48.8183C120.41 48.9605 120.577 49.1024 120.737 49.2438C120.91 49.3861 121.084 49.5088 121.26 49.6122C121.436 49.7155 121.641 49.7751 121.874 49.791C121.887 49.7919 122.019 49.7747 122.269 49.7395C122.52 49.7044 122.79 49.664 123.08 49.6185C123.384 49.5739 123.66 49.534 123.911 49.4988C124.161 49.4636 124.293 49.44 124.307 49.4279C124.388 49.3942 124.457 49.3402 124.514 49.2658C124.571 49.1913 124.641 49.1243 124.723 49.0647C124.832 49.0068 124.937 48.9944 125.039 49.0274C125.154 49.0613 125.266 49.0494 125.374 48.9915C125.535 48.9241 125.68 48.8165 125.807 48.6686C125.949 48.5085 126.124 48.4226 126.334 48.4107C126.344 48.2678 126.347 48.1245 126.344 47.9807C126.341 47.8239 126.345 47.6741 126.355 47.5312C126.357 47.4922 126.36 47.4468 126.364 47.3948C126.367 47.3428 126.383 47.2983 126.412 47.2611L126.666 46.9847L126.684 46.7119C126.692 46.5949 126.737 46.5067 126.82 46.447C126.903 46.3744 126.95 46.2666 126.959 46.1237C126.963 46.0717 126.956 45.9799 126.939 45.8482C126.922 45.7166 126.898 45.5844 126.868 45.4519C126.838 45.3193 126.807 45.1933 126.776 45.0737C126.745 44.9541 126.718 44.874 126.695 44.8332L126.434 44.6393C126.4 44.5587 126.392 44.4799 126.411 44.4028C126.43 44.3128 126.409 44.233 126.349 44.1637L126.106 43.9906C126.035 43.8813 125.984 43.7734 125.952 43.6668C125.921 43.5473 125.857 43.432 125.76 43.321C125.626 43.1814 125.42 43.0434 125.142 42.907C124.878 42.7586 124.587 42.6278 124.268 42.5148C123.964 42.3896 123.664 42.2909 123.368 42.2186C123.074 42.1334 122.829 42.0841 122.634 42.0709C122.492 42.0611 122.348 42.0644 122.203 42.0807C122.072 42.0848 121.946 42.1154 121.825 42.1724C121.672 42.1228 121.558 42.0694 121.483 42.0121C121.422 41.9558 121.367 41.8998 121.319 41.8443C121.27 41.7888 121.222 41.7333 121.173 41.6778C121.125 41.6223 121.037 41.5707 120.91 41.5229C120.796 41.4759 120.629 41.432 120.41 41.391C120.191 41.35 119.893 41.3166 119.516 41.291C119.139 41.2654 118.765 41.1159 118.392 40.8426C118.019 40.5692 117.655 40.2509 117.302 39.8875C116.962 39.512 116.648 39.1318 116.361 38.7468C116.075 38.3489 115.843 38.0134 115.666 37.7403C115.632 37.6727 115.618 37.5869 115.625 37.483C115.633 37.3661 115.607 37.2729 115.546 37.2036L115.32 37.0708C115.289 36.9512 115.257 36.8446 115.225 36.751C115.205 36.6583 115.112 36.5867 114.945 36.5363L114.953 36.4194C114.973 36.1336 114.946 35.8577 114.873 35.5917C114.799 35.3257 114.693 35.0704 114.553 34.826C114.586 34.7238 114.605 34.6338 114.61 34.5558C114.617 34.4649 114.623 34.3675 114.63 34.2635C114.663 33.7829 114.643 33.3052 114.571 32.8305C114.513 32.3436 114.5 31.8599 114.533 31.3792C114.542 31.2493 114.582 31.1346 114.654 31.0351C114.739 30.9364 114.799 30.8166 114.835 30.6754C114.962 30.3447 115.064 29.9993 115.141 29.6391C115.231 29.2668 115.308 28.9001 115.372 28.539C115.632 28.3609 115.839 28.1923 115.994 28.0331C116.161 27.8748 116.237 27.6255 116.221 27.2851C116.383 27.2048 116.532 27.117 116.669 27.022C116.807 26.9139 116.939 26.8054 117.063 26.6964C117.086 26.5544 117.134 26.4271 117.207 26.3146C117.293 26.203 117.372 26.0909 117.445 25.9784C117.531 25.8668 117.604 25.7543 117.664 25.641C117.738 25.5155 117.786 25.3752 117.81 25.2202C118.001 25.0897 118.199 24.9661 118.403 24.8494C118.607 24.7198 118.775 24.5615 118.905 24.3746C118.957 24.3781 119.104 24.3229 119.347 24.2089C119.603 24.0958 119.885 23.9714 120.194 23.8359C120.505 23.6873 120.801 23.5509 121.084 23.4265C121.367 23.2892 121.563 23.1981 121.67 23.1532C121.871 23.0755 122.116 23.0269 122.404 23.0074C122.694 22.9748 122.983 22.9423 123.272 22.9098C123.562 22.8773 123.832 22.8369 124.083 22.7888C124.347 22.7415 124.561 22.6647 124.725 22.5584C125.122 22.6767 125.585 22.7735 126.115 22.8487C126.658 22.9248 127.193 23.0199 127.72 23.1341C128.248 23.2482 128.739 23.4122 129.194 23.6259C129.664 23.8274 130.029 24.1198 130.29 24.503C130.575 24.5354 130.817 24.6107 131.018 24.7287C131.22 24.8338 131.407 24.9575 131.58 25.0998C131.766 25.2429 131.946 25.3857 132.119 25.5279C132.306 25.6581 132.521 25.7576 132.764 25.8263C132.754 25.9822 132.783 26.1213 132.853 26.2435L133.118 26.379C133.187 26.5142 133.242 26.6615 133.284 26.8209C133.339 26.9682 133.381 27.1147 133.411 27.2602C133.453 27.4066 133.495 27.5531 133.537 27.6995C133.592 27.8468 133.668 27.9825 133.764 28.1065C133.825 28.1758 133.892 28.2392 133.966 28.2964C134.055 28.3416 134.115 28.411 134.148 28.5045C134.169 28.5843 134.163 28.6622 134.132 28.7384C134.102 28.8016 134.084 28.8656 134.08 28.9306L134.114 29.0112L134.329 29.2999C134.368 29.4983 134.389 29.7543 134.394 30.0678C134.413 30.3692 134.417 30.6893 134.407 31.0279C134.41 31.3675 134.407 31.7001 134.398 32.0257C134.39 32.3384 134.379 32.5986 134.364 32.8065ZM152.796 52.2075C152.776 52.4933 152.691 52.7812 152.541 53.0711C152.404 53.362 152.288 53.6347 152.192 53.8892C152.02 53.9167 151.874 53.9524 151.754 53.9964C151.647 54.0283 151.541 54.0602 151.434 54.0921C151.328 54.124 151.208 54.155 151.076 54.1852C150.944 54.2023 150.774 54.2038 150.566 54.1897C150.449 54.1817 150.371 54.1894 150.33 54.2128C150.289 54.2361 150.248 54.2659 150.206 54.3022C150.165 54.3386 150.117 54.3679 150.063 54.3904C150.009 54.4128 149.918 54.4196 149.788 54.4108C149.632 54.4002 149.471 54.3697 149.305 54.3192C149.151 54.2696 148.985 54.2257 148.805 54.1873C148.804 54.2003 148.796 54.2129 148.782 54.225C148.782 54.238 148.78 54.2574 148.778 54.2834C148.764 54.3085 148.756 54.3276 148.755 54.3406C148.677 54.3353 148.588 54.3031 148.487 54.2441C148.387 54.185 148.278 54.1515 148.162 54.1436L146.018 53.9978C145.641 53.9721 145.281 53.9933 144.937 54.0613C144.593 54.1292 144.239 54.1508 143.875 54.1261C143.616 54.1084 143.364 54.0717 143.119 54.0159C142.875 53.9602 142.623 53.9235 142.363 53.9058C141.818 53.8687 141.281 53.8909 140.754 53.9725C140.225 54.067 139.688 54.0958 139.143 54.0587C138.649 54.0251 138.154 53.9131 137.658 53.7228C137.162 53.5324 136.735 53.288 136.377 52.9896C136.228 52.4965 136.077 52.0165 135.927 51.5495C135.789 51.0703 135.739 50.5709 135.774 50.0513C135.796 49.7265 135.882 49.4256 136.031 49.1487C136.18 48.8717 136.266 48.5708 136.288 48.2461C136.299 48.0902 136.283 47.9455 136.239 47.8121C136.197 47.6656 136.148 47.5253 136.092 47.3909C136.036 47.2566 135.986 47.1227 135.943 46.9893C135.9 46.8558 135.882 46.7307 135.89 46.6137C135.904 46.4189 135.943 46.2258 136.008 46.0345C136.074 45.8301 136.146 45.6328 136.224 45.4423C136.303 45.2519 136.374 45.061 136.44 44.8697C136.506 44.6653 136.546 44.4593 136.56 44.2514C136.596 43.7188 136.567 43.1882 136.473 42.6598C136.379 42.1183 136.351 41.5748 136.388 41.0292C136.426 40.4705 136.49 39.9137 136.58 39.3586C136.67 38.8036 136.734 38.2337 136.774 37.6492L136.946 34.5482C136.961 34.3273 136.956 34.1182 136.93 33.9207C136.904 33.7231 136.899 33.514 136.914 33.2931C136.932 33.0333 136.995 32.7766 137.103 32.523C137.212 32.2693 137.275 32.0126 137.293 31.7528C137.305 31.5709 137.291 31.3938 137.251 31.2214C137.211 31.0359 137.197 30.8523 137.21 30.6704C137.222 30.4886 137.26 30.315 137.323 30.1496C137.388 29.9713 137.426 29.7912 137.439 29.6093C137.461 29.2845 137.436 28.9697 137.366 28.6647C137.296 28.3467 137.272 28.0253 137.294 27.7006C137.313 27.4278 137.364 27.1507 137.449 26.8693C137.547 26.5758 137.676 26.3105 137.836 26.0734C138.008 25.8372 138.21 25.6486 138.442 25.5078C138.674 25.3539 138.946 25.2876 139.258 25.3088C139.44 25.3212 139.66 25.3492 139.918 25.3928C140.189 25.4374 140.406 25.5109 140.568 25.6133C140.72 25.6888 140.867 25.8358 141.008 26.0543C141.164 26.2607 141.305 26.4921 141.431 26.7486C141.558 26.9922 141.665 27.2409 141.752 27.4948C141.839 27.7487 141.897 27.9614 141.924 28.133C141.975 28.541 141.992 28.9598 141.976 29.3894C141.973 29.8068 141.957 30.2364 141.927 30.6781C141.898 31.1068 141.855 31.5411 141.799 31.981C141.757 32.4088 141.722 32.8241 141.695 33.2268C141.658 33.7724 141.647 34.3198 141.662 34.869C141.676 35.4181 141.664 35.9785 141.626 36.5501C141.598 36.9528 141.513 37.345 141.369 37.7268C141.239 38.1095 141.16 38.5021 141.133 38.9049C141.112 39.2037 141.145 39.4865 141.231 39.7534C141.332 40.0082 141.373 40.2655 141.355 40.5253C141.316 41.0969 141.259 41.6541 141.183 42.1971C141.108 42.7271 141.051 43.2714 141.013 43.83C140.976 44.3756 140.953 44.9091 140.943 45.4305C140.934 45.9519 140.911 46.4724 140.876 46.992C140.858 47.2519 140.835 47.5047 140.805 47.7507C140.776 47.9836 140.74 48.2226 140.697 48.4677C140.758 48.7328 140.999 48.9319 141.42 49.065C141.843 49.1851 142.32 49.2763 142.85 49.3385C143.382 49.3877 143.902 49.4165 144.411 49.425C144.92 49.4205 145.291 49.4262 145.525 49.4421C145.707 49.4545 145.881 49.4924 146.046 49.5558C146.224 49.6202 146.405 49.6585 146.586 49.6709C146.872 49.6903 147.148 49.6634 147.414 49.5902C147.68 49.5169 147.956 49.49 148.242 49.5094C148.424 49.5218 148.591 49.5528 148.744 49.6024C148.911 49.6528 149.085 49.6842 149.267 49.6966C149.707 49.7526 150.081 49.8172 150.389 49.8904C150.698 49.9506 150.979 50.048 151.23 50.1826C151.482 50.3171 151.712 50.4959 151.918 50.7188C152.138 50.9425 152.372 51.239 152.621 51.6084C152.752 51.7999 152.81 51.9997 152.796 52.2075ZM172.752 51.4899C172.812 51.768 172.832 52.037 172.815 52.2968C172.793 52.6216 172.713 52.9229 172.577 53.2007C172.454 53.4794 172.323 53.7642 172.186 54.0551C172.035 54.1623 171.867 54.2421 171.68 54.2947C171.494 54.3473 171.32 54.4203 171.157 54.5136C170.873 54.6509 170.632 54.7454 170.433 54.7971C170.246 54.8497 170.062 54.8763 169.879 54.8769C169.696 54.8776 169.501 54.8643 169.294 54.8372C169.087 54.81 168.828 54.7859 168.516 54.7647C168.036 54.732 167.59 54.7604 167.179 54.8499C166.782 54.9273 166.415 54.9545 166.077 54.9316C165.74 54.9086 165.384 54.8583 165.011 54.7807C164.652 54.691 164.29 54.6338 163.926 54.6091C163.706 54.594 163.489 54.6054 163.278 54.6433C163.081 54.669 162.874 54.7267 162.659 54.8165C162.465 54.8033 162.287 54.7324 162.126 54.604C161.979 54.4635 161.795 54.3858 161.574 54.3707C161.457 54.3628 161.352 54.3752 161.258 54.408C161.165 54.4408 161.053 54.4527 160.923 54.4439C160.702 54.4289 160.497 54.3693 160.309 54.2651C160.133 54.1618 159.935 54.1026 159.714 54.0876C159.389 54.0655 159.046 54.114 158.686 54.233C158.326 54.3391 157.965 54.3797 157.601 54.355C157.393 54.3408 157.208 54.2826 157.045 54.1801C156.895 54.0786 156.747 53.9576 156.6 53.8171C156.467 53.6644 156.34 53.5123 156.22 53.3605C156.1 53.2088 155.966 53.0692 155.818 52.9416C155.802 52.784 155.754 52.5327 155.673 52.1879C155.605 51.844 155.532 51.4866 155.453 51.1158C155.373 50.745 155.305 50.401 155.249 50.0839C155.192 49.7669 155.167 49.5563 155.174 49.4524C155.184 49.3095 155.213 49.1744 155.26 49.0472C155.309 48.9069 155.338 48.7654 155.348 48.6225C155.36 48.4406 155.339 48.2695 155.285 48.1092C155.232 47.9359 155.211 47.7583 155.223 47.5764C155.226 47.5375 155.235 47.4141 155.249 47.2062C155.276 46.9992 155.297 46.7788 155.313 46.545C155.343 46.2991 155.365 46.0722 155.379 45.8643C155.406 45.6573 155.428 45.5348 155.443 45.4967C155.43 45.3131 155.389 45.1407 155.322 44.9795C155.268 44.8062 155.215 44.6264 155.163 44.4401C155.341 43.7344 155.459 43.0638 155.515 42.4281C155.572 41.7794 155.626 41.0849 155.676 40.3444C155.681 40.2795 155.651 40.2318 155.588 40.2014C155.526 40.158 155.45 40.1267 155.36 40.1075C155.283 40.0892 155.199 40.077 155.108 40.0708C155.03 40.0655 154.971 40.0615 154.932 40.0589C154.854 40.0536 154.77 40.0413 154.68 40.0222C154.59 40.003 154.516 39.9457 154.457 39.8504C154.228 39.7695 154.034 39.6389 153.877 39.4585C153.733 39.266 153.576 39.0792 153.406 38.8979L153.422 38.6641C153.424 38.4424 153.457 38.2358 153.523 38.0445C153.602 37.8411 153.68 37.6441 153.759 37.4537C153.851 37.2511 153.936 37.0546 154.014 36.8642C154.093 36.6608 154.153 36.4495 154.194 36.2304C154.316 36.1604 154.443 36.1169 154.575 36.0997C154.708 36.0696 154.761 35.9558 154.735 35.7583C154.872 35.6632 155.044 35.6292 155.251 35.6563C155.472 35.6713 155.654 35.6837 155.797 35.6934L155.875 35.6987C155.923 35.5585 155.952 35.4234 155.961 35.2935C155.984 35.1515 156 35.009 156.01 34.8661C156.056 34.1906 156.036 33.5172 155.951 32.8458C155.88 32.1753 155.867 31.5023 155.913 30.8268C155.926 30.6319 155.977 30.3613 156.066 30.015C156.155 29.6557 156.258 29.2907 156.375 28.9202C156.492 28.5366 156.615 28.173 156.743 27.8293C156.872 27.4727 156.975 27.1991 157.053 27.0087C157.421 26.9685 157.766 26.8875 158.088 26.7658C158.422 26.645 158.758 26.5961 159.096 26.6191C159.291 26.6323 159.491 26.6655 159.696 26.7186C159.901 26.7717 160.095 26.8045 160.277 26.8168C160.459 26.8292 160.622 26.8208 160.768 26.7915C160.913 26.7623 161.066 26.7335 161.224 26.7051C161.383 26.6767 161.561 26.6497 161.758 26.624C161.956 26.5982 162.191 26.5947 162.464 26.6132C163.503 26.6839 164.558 26.71 165.63 26.6915C166.715 26.661 167.79 26.5905 168.855 26.4802C168.92 26.4846 168.979 26.4756 169.033 26.4532C169.099 26.4316 169.172 26.4235 169.25 26.4288C169.289 26.4314 169.325 26.4666 169.36 26.5342C169.408 26.5897 169.444 26.6378 169.468 26.6785C169.548 26.6449 169.64 26.6316 169.744 26.6386C169.862 26.6336 169.973 26.6346 170.077 26.6417C170.454 26.6673 170.826 26.7514 171.195 26.8939C171.565 27.0235 171.929 27.1396 172.287 27.2423C172.335 27.5065 172.376 27.7638 172.411 28.0142C172.459 28.2654 172.474 28.521 172.457 28.7808C172.427 29.2225 172.339 29.5493 172.194 29.7613C172.05 29.9603 171.876 30.1182 171.673 30.2348C171.47 30.3385 171.254 30.4413 171.025 30.5432C170.797 30.6321 170.584 30.7872 170.387 31.0087L170.094 30.9888C169.617 30.9042 169.136 30.878 168.651 30.9102C168.166 30.9425 167.677 30.9418 167.183 30.9082C166.988 30.895 166.811 30.9025 166.653 30.9309C166.508 30.9472 166.369 30.9769 166.236 31.02C166.115 31.064 165.988 31.1141 165.854 31.1702C165.72 31.2133 165.567 31.2551 165.395 31.2956C165.19 31.2425 164.996 31.2032 164.815 31.1779C164.635 31.1395 164.441 31.1133 164.234 31.0991C163.558 31.0532 162.897 31.0865 162.25 31.1991C161.602 31.3117 160.953 31.3654 160.301 31.3602C160.173 31.5081 160.103 31.673 160.091 31.8549C160.074 32.1017 160.097 32.3447 160.159 32.5838C160.234 32.8109 160.277 33.0422 160.288 33.2778C160.285 33.5125 160.268 33.7593 160.237 34.0183C160.22 34.2651 160.204 34.5119 160.187 34.7587C160.183 35.0064 160.193 35.2485 160.216 35.485C160.252 35.7224 160.328 35.9429 160.445 36.1466C160.521 36.1779 160.604 36.2031 160.694 36.2223C160.797 36.2424 160.901 36.2559 161.005 36.263C161.329 36.2851 161.656 36.2747 161.986 36.2319C162.329 36.1769 162.656 36.16 162.968 36.1812C163.487 36.2166 163.989 36.3225 164.473 36.4989C164.971 36.6633 165.486 36.7636 166.019 36.7998C166.136 36.8078 166.254 36.7898 166.375 36.7458C166.508 36.7026 166.646 36.6859 166.789 36.6957C166.854 36.7001 166.917 36.7305 166.979 36.7869C167.04 36.8432 167.129 36.8754 167.246 36.8834C167.428 36.8957 167.6 36.8617 167.762 36.7814C167.924 36.7011 168.109 36.668 168.317 36.6821C168.486 36.6936 168.639 36.7432 168.777 36.8309C168.928 36.9064 169.072 37.001 169.208 37.1147C169.345 37.2153 169.481 37.316 169.618 37.4166C169.756 37.5043 169.902 37.5599 170.057 37.5835C170.039 37.8433 170.087 38.0946 170.201 38.3372C170.315 38.5799 170.364 38.8312 170.346 39.091C170.332 39.2988 170.239 39.5144 170.067 39.7376C169.896 39.9478 169.694 40.1429 169.459 40.3227C169.225 40.5026 168.98 40.662 168.722 40.8011C168.478 40.9411 168.269 41.0313 168.097 41.0718C167.991 41.0907 167.887 41.0902 167.784 41.0701C167.694 41.0509 167.61 41.0387 167.532 41.0334C167.363 41.0219 167.192 41.0364 167.02 41.0769C166.847 41.1173 166.675 41.1643 166.501 41.2178C166.341 41.2721 166.168 41.3191 165.983 41.3587C165.81 41.3992 165.627 41.4128 165.432 41.3995C165.146 41.3801 164.862 41.3412 164.578 41.2827C164.308 41.2252 164.024 41.1863 163.725 41.166C163.556 41.1545 163.399 41.1634 163.253 41.1926C163.108 41.2219 162.951 41.2307 162.782 41.2193C162.639 41.2095 162.472 41.1656 162.282 41.0874C162.091 41.0092 161.901 40.9245 161.712 40.8333C161.522 40.7421 161.345 40.6582 161.181 40.5818C161.016 40.5053 160.888 40.464 160.798 40.4578C160.746 40.4543 160.699 40.4707 160.657 40.507C160.629 40.5312 160.595 40.5615 160.553 40.5978C160.525 40.622 160.485 40.6454 160.431 40.6678C160.39 40.6912 160.332 40.6872 160.256 40.6559C160.183 40.7684 160.129 40.8887 160.094 41.0169C160.073 41.1329 160.059 41.2494 160.051 41.3663C160.033 41.6261 160.042 41.8812 160.077 42.1315C160.113 42.3689 160.123 42.611 160.106 42.8578C160.093 43.0397 160.055 43.2263 159.989 43.4176C159.925 43.596 159.887 43.7761 159.874 43.9579C159.863 44.1268 159.872 44.3689 159.903 44.6842C159.935 44.9866 159.972 45.3088 160.014 45.651C160.069 45.9941 160.11 46.3427 160.138 46.697C160.167 47.0383 160.173 47.3324 160.157 47.5792C160.129 47.9819 160.082 48.3833 160.016 48.7834C159.95 49.1704 159.904 49.5653 159.877 49.9681C160.233 50.0967 160.586 50.186 160.935 50.2358C161.284 50.2857 161.64 50.3229 162.004 50.3477C162.862 50.406 163.729 50.4128 164.606 50.3681C165.484 50.3234 166.359 50.3176 167.231 50.3508C167.504 50.3694 167.77 50.394 168.028 50.4247C168.3 50.4562 168.573 50.4813 168.846 50.4998C169.17 50.5219 169.48 50.4712 169.776 50.3478C170.071 50.2243 170.362 50.1723 170.648 50.1918C171.142 50.2253 171.484 50.4705 171.675 50.9272L171.833 50.8988C171.951 50.8938 172.048 50.9134 172.123 50.9577C172.198 51.0019 172.266 51.0523 172.328 51.1087C172.402 51.1659 172.47 51.2292 172.53 51.2986C172.591 51.368 172.665 51.4317 172.752 51.4899ZM191.222 34.3445C191.121 34.2984 191.025 34.2723 190.934 34.2661C190.844 34.247 190.747 34.2338 190.643 34.2268C190.305 34.2038 189.964 34.2328 189.619 34.3137C189.287 34.3956 188.953 34.425 188.615 34.402C188.459 34.3914 188.297 34.3674 188.13 34.3299C187.963 34.2924 187.796 34.255 187.629 34.2175C187.507 34.2875 187.374 34.3176 187.231 34.3079C187.088 34.2982 186.994 34.2526 186.947 34.1711C186.913 34.0905 186.838 34.0462 186.721 34.0383C186.604 34.0303 186.492 34.0488 186.385 34.0937C186.291 34.1265 186.191 34.1588 186.084 34.1907C185.991 34.2235 185.891 34.2494 185.785 34.2683C185.681 34.2742 185.558 34.2463 185.419 34.1846C185.388 34.2608 185.369 34.3509 185.362 34.4548C185.355 34.5457 185.35 34.6302 185.344 34.7081C185.32 35.0719 185.32 35.4439 185.347 35.8241C185.387 36.1923 185.394 36.5647 185.369 36.9415C185.351 37.2013 185.287 37.4645 185.178 37.7311C185.082 37.9856 185.025 38.2493 185.007 38.5221C184.985 38.8469 185.001 39.1743 185.057 39.5044C185.126 39.8353 185.149 40.1697 185.126 40.5075C185.108 40.7673 185.045 41.024 184.937 41.2776C184.841 41.5321 184.784 41.7893 184.767 42.0491C184.752 42.27 184.77 42.4865 184.82 42.6988C184.885 42.899 184.923 43.1103 184.934 43.333C184.963 43.857 184.968 44.3728 184.946 44.8803C184.938 45.3887 184.916 45.9027 184.88 46.4224C184.847 46.916 184.786 47.4209 184.699 47.937C184.613 48.4401 184.552 48.945 184.518 49.4516C184.495 49.7894 184.518 50.1173 184.588 50.4352C184.658 50.7402 184.684 51.0421 184.663 51.3409C184.653 51.4968 184.623 51.6448 184.574 51.7851C184.526 51.9253 184.495 52.0799 184.484 52.2488C184.436 52.5718 184.407 52.8961 184.398 53.2217C184.39 53.5344 184.374 53.8596 184.351 54.1974C184.326 54.5741 184.262 54.9352 184.16 55.2807C184.059 55.6261 183.995 55.9807 183.97 56.3444C183.962 56.4744 183.908 56.5947 183.809 56.7054C183.723 56.817 183.612 56.9139 183.476 56.996C183.353 57.079 183.218 57.1416 183.072 57.1838C182.937 57.2399 182.812 57.264 182.695 57.2561C182.474 57.241 182.26 57.2135 182.054 57.1734C181.861 57.1341 181.667 57.1079 181.472 57.0946C181.368 57.0875 181.265 57.0805 181.161 57.0734C181.069 57.0802 180.982 57.1134 180.899 57.1731C180.441 56.8156 180.131 56.3834 179.97 55.8765C179.822 55.3575 179.767 54.8187 179.805 54.2601C179.833 53.8574 179.892 53.4634 179.984 53.0781C180.088 52.6937 180.193 52.3092 180.297 51.9248C180.415 51.5413 180.519 51.1633 180.609 50.791C180.714 50.4066 180.78 50.0065 180.808 49.5908C180.822 49.396 180.835 49.1946 180.849 48.9868C180.864 48.7659 180.866 48.5507 180.854 48.3411C180.828 48.1436 180.764 47.9369 180.661 47.7211C180.572 47.4932 180.535 47.2818 180.548 47.0869C180.553 47.009 180.578 46.9259 180.624 46.8376C180.67 46.7363 180.696 46.6337 180.703 46.5298C180.71 46.4259 180.697 46.3271 180.665 46.2335C180.633 46.1269 180.621 46.0152 180.629 45.8983C180.648 45.6125 180.732 45.3376 180.881 45.0736C181.03 44.7967 181.115 44.5088 181.135 44.21C181.151 43.9762 181.14 43.747 181.104 43.5227C181.068 43.2853 181.025 43.054 180.975 42.8287C180.926 42.5905 180.883 42.3527 180.847 42.1153C180.811 41.8779 180.801 41.6423 180.817 41.4085C180.83 41.2136 180.863 41.0201 180.915 40.8279C180.968 40.6227 181.001 40.4226 181.014 40.2278C181.029 40.0199 181.022 39.8237 180.996 39.6392C180.969 39.4547 180.963 39.2585 180.977 39.0506C180.985 38.9337 181.012 38.8181 181.059 38.7039C181.107 38.5766 181.136 38.4415 181.146 38.2986C181.163 38.0388 181.135 37.7824 181.061 37.5294C181.001 37.2643 180.979 37.0018 180.997 36.742C181.015 36.4822 181.078 36.2255 181.186 35.9718C181.308 35.7191 181.378 35.4628 181.395 35.203C181.416 34.9042 181.381 34.6473 181.291 34.4324C181.012 34.309 180.718 34.2238 180.408 34.1766C180.098 34.1294 179.794 34.0956 179.495 34.0753C178.975 34.04 178.461 34.0245 177.952 34.0291C177.455 34.0344 176.947 34.0195 176.428 33.9841C176.129 33.9638 175.806 33.9092 175.46 33.8204C175.127 33.7325 174.815 33.6069 174.526 33.4437C174.251 33.2684 174.024 33.0507 173.846 32.7906C173.682 32.5184 173.613 32.1939 173.639 31.8172C173.662 31.4794 173.756 31.1465 173.922 30.8185C174.102 30.4783 174.241 30.1485 174.342 29.8291C174.879 29.6046 175.443 29.4668 176.034 29.4156C176.625 29.3514 177.221 29.3267 177.82 29.3414C178.419 29.356 179.011 29.3897 179.595 29.4425C180.191 29.4961 180.77 29.529 181.33 29.541C181.454 29.445 181.535 29.32 181.571 29.1658C181.622 28.9996 181.659 28.8325 181.684 28.6645C181.709 28.4835 181.734 28.309 181.758 28.141C181.796 27.9739 181.87 27.8419 181.981 27.7451L181.986 27.6671C181.99 27.6152 182.059 27.5546 182.194 27.4855C182.344 27.4043 182.512 27.3309 182.699 27.2653C182.886 27.1998 183.066 27.1467 183.238 27.1063C183.411 27.0658 183.529 27.0477 183.594 27.0522C183.997 27.0796 184.293 27.1454 184.481 27.2495C184.67 27.3537 184.806 27.4674 184.889 27.5905C184.985 27.7145 185.062 27.8306 185.12 27.939C185.178 28.0473 185.284 28.1133 185.439 28.1369C185.527 28.3778 185.594 28.6369 185.641 28.9141C185.701 29.1792 185.775 29.4387 185.862 29.6926C186.097 29.6825 186.328 29.6525 186.553 29.6026C186.792 29.5406 187.042 29.5184 187.301 29.536C187.444 29.5458 187.585 29.5945 187.722 29.6821C187.874 29.7577 188.02 29.8133 188.161 29.849L188.461 29.752L188.57 29.8768C188.826 29.9595 189.097 29.9975 189.385 29.991C189.673 29.9714 189.947 29.9705 190.207 29.9882C190.623 30.0165 191.022 30.0893 191.406 30.2068C191.803 30.3251 192.143 30.4984 192.428 30.7265C192.726 30.9426 192.955 31.2192 193.115 31.5563C193.275 31.8935 193.339 32.2959 193.307 32.7636C193.292 32.9844 193.201 33.174 193.034 33.3322C192.88 33.4784 192.695 33.6094 192.478 33.7252C192.262 33.8279 192.04 33.9303 191.811 34.0322C191.583 34.1341 191.386 34.2382 191.222 34.3445ZM210.239 35.638C210.138 35.592 210.042 35.5659 209.951 35.5597C209.861 35.5405 209.764 35.5274 209.66 35.5203C209.322 35.4974 208.981 35.5263 208.636 35.6073C208.304 35.6891 207.97 35.7186 207.632 35.6956C207.476 35.685 207.314 35.6609 207.147 35.6235C206.98 35.586 206.813 35.5485 206.646 35.5111C206.524 35.5811 206.391 35.6112 206.248 35.6015C206.105 35.5918 206.011 35.5462 205.964 35.4647C205.93 35.3841 205.855 35.3398 205.738 35.3319C205.621 35.3239 205.509 35.3424 205.402 35.3873C205.308 35.4201 205.208 35.4524 205.101 35.4843C205.008 35.5171 204.908 35.5429 204.802 35.5619C204.698 35.5678 204.575 35.5399 204.436 35.4782C204.405 35.5544 204.386 35.6444 204.379 35.7484C204.372 35.8393 204.367 35.9237 204.361 36.0017C204.337 36.3654 204.337 36.7374 204.364 37.1177C204.404 37.4859 204.411 37.8583 204.386 38.235C204.368 38.4949 204.304 38.7581 204.195 39.0247C204.099 39.2792 204.042 39.5429 204.024 39.8157C204.001 40.1405 204.018 40.4679 204.074 40.7979C204.143 41.1289 204.166 41.4633 204.143 41.801C204.125 42.0608 204.062 42.3176 203.954 42.5712C203.858 42.8257 203.801 43.0829 203.784 43.3427C203.769 43.5635 203.787 43.7801 203.837 43.9924C203.902 44.1925 203.94 44.4039 203.951 44.6265C203.98 45.1506 203.985 45.6664 203.963 46.1739C203.955 46.6823 203.933 47.1963 203.897 47.716C203.864 48.2096 203.803 48.7145 203.716 49.2306C203.63 49.7337 203.569 50.2386 203.535 50.7452C203.512 51.083 203.535 51.4108 203.605 51.7288C203.675 52.0338 203.701 52.3356 203.68 52.6344C203.67 52.7903 203.64 52.9384 203.591 53.0786C203.543 53.2189 203.512 53.3735 203.501 53.5423C203.453 53.8653 203.424 54.1897 203.415 54.5153C203.407 54.828 203.391 55.1532 203.368 55.491C203.343 55.8677 203.279 56.2288 203.177 56.5742C203.075 56.9197 203.012 57.2743 202.987 57.638C202.979 57.7679 202.925 57.8882 202.826 57.999C202.74 58.1106 202.629 58.2074 202.493 58.2895C202.37 58.3725 202.235 58.4351 202.089 58.4774C201.954 58.5335 201.829 58.5576 201.712 58.5496C201.491 58.5346 201.277 58.507 201.071 58.4669C200.878 58.4277 200.684 58.4014 200.489 58.3882C200.385 58.3811 200.282 58.374 200.178 58.367C200.086 58.3738 199.999 58.407 199.916 58.4667C199.458 58.1092 199.148 57.677 198.987 57.1701C198.839 56.6511 198.784 56.1123 198.822 55.5537C198.85 55.151 198.909 54.757 199.001 54.3716C199.105 53.9872 199.21 53.6028 199.314 53.2184C199.432 52.8348 199.536 52.4569 199.626 52.0846C199.731 51.7002 199.797 51.3001 199.825 50.8844C199.838 50.6895 199.852 50.4882 199.866 50.2803C199.881 50.0595 199.883 49.8443 199.871 49.6346C199.845 49.4371 199.781 49.2305 199.678 49.0147C199.589 48.7867 199.552 48.5754 199.565 48.3805C199.57 48.3025 199.595 48.2194 199.641 48.1311C199.687 48.0299 199.713 47.9273 199.72 47.8233C199.727 47.7194 199.714 47.6207 199.682 47.5271C199.65 47.4205 199.638 47.3088 199.646 47.1918C199.665 46.906 199.749 46.6312 199.898 46.3672C200.047 46.0902 200.132 45.8023 200.152 45.5036C200.168 45.2697 200.157 45.0406 200.121 44.8162C200.084 44.5789 200.041 44.3476 199.992 44.1223C199.943 43.884 199.9 43.6462 199.864 43.4089C199.828 43.1715 199.818 42.9359 199.834 42.7021C199.847 42.5072 199.88 42.3137 199.932 42.1214C199.985 41.9162 200.018 41.7162 200.031 41.5213C200.046 41.3135 200.039 41.1173 200.013 40.9328C199.986 40.7483 199.98 40.5521 199.994 40.3442C200.002 40.2273 200.029 40.1117 200.076 39.9974C200.124 39.8702 200.153 39.7351 200.163 39.5922C200.18 39.3324 200.152 39.076 200.078 38.823C200.018 38.5578 199.996 38.2954 200.014 38.0356C200.032 37.7757 200.095 37.519 200.203 37.2654C200.325 37.0126 200.395 36.7564 200.412 36.4966C200.433 36.1978 200.398 35.9409 200.308 35.726C200.029 35.6026 199.735 35.5173 199.425 35.4701C199.115 35.423 198.811 35.3892 198.512 35.3689C197.992 35.3335 197.478 35.3181 196.968 35.3226C196.472 35.328 195.964 35.313 195.445 35.2777C195.146 35.2574 194.823 35.2028 194.477 35.114C194.144 35.0261 193.832 34.9005 193.543 34.7373C193.268 34.5619 193.041 34.3442 192.863 34.0841C192.699 33.812 192.63 33.4875 192.656 33.1108C192.679 32.773 192.773 32.4401 192.939 32.1121C193.119 31.7719 193.258 31.4421 193.358 31.1226C193.896 30.8982 194.46 30.7603 195.051 30.7092C195.642 30.645 196.238 30.6203 196.837 30.6349C197.436 30.6496 198.028 30.6833 198.612 30.7361C199.208 30.7897 199.787 30.8225 200.347 30.8345C200.471 30.7386 200.552 30.6135 200.588 30.4594C200.639 30.2932 200.676 30.1261 200.701 29.9581C200.726 29.7771 200.751 29.6026 200.775 29.4346C200.813 29.2675 200.887 29.1355 200.998 29.0386L201.003 28.9607C201.007 28.9087 201.076 28.8482 201.211 28.7791C201.361 28.6979 201.529 28.6245 201.716 28.5589C201.903 28.4933 202.083 28.4403 202.255 28.3998C202.428 28.3593 202.546 28.3413 202.611 28.3457C203.014 28.3731 203.31 28.4389 203.498 28.5431C203.687 28.6473 203.823 28.7609 203.906 28.884C204.002 29.008 204.079 29.1242 204.137 29.2325C204.194 29.3409 204.301 29.4069 204.456 29.4305C204.544 29.6714 204.611 29.9304 204.658 30.2077C204.718 30.4728 204.792 30.7323 204.879 30.9862C205.114 30.9761 205.345 30.9461 205.57 30.8962C205.809 30.8341 206.059 30.8119 206.318 30.8296C206.461 30.8393 206.602 30.888 206.739 30.9757C206.891 31.0512 207.037 31.1069 207.178 31.1426L207.478 31.0455L207.587 31.1704C207.843 31.253 208.114 31.2911 208.402 31.2845C208.69 31.265 208.964 31.2641 209.224 31.2818C209.64 31.31 210.039 31.3829 210.423 31.5003C210.82 31.6187 211.16 31.7919 211.445 32.0201C211.743 32.2362 211.972 32.5128 212.132 32.8499C212.292 33.1871 212.356 33.5895 212.324 34.0571C212.309 34.278 212.218 34.4675 212.051 34.6258C211.897 34.772 211.712 34.9029 211.495 35.0187C211.279 35.1215 211.057 35.2238 210.828 35.3257C210.6 35.4276 210.403 35.5317 210.239 35.638ZM231.167 55.4634C231.227 55.7415 231.247 56.0105 231.23 56.2703C231.208 56.595 231.128 56.8964 230.992 57.1742C230.869 57.4529 230.738 57.7377 230.601 58.0285C230.45 58.1357 230.282 58.2156 230.095 58.2682C229.909 58.3208 229.735 58.3938 229.572 58.4871C229.288 58.6244 229.047 58.7189 228.848 58.7706C228.661 58.8232 228.477 58.8498 228.294 58.8504C228.111 58.851 227.916 58.8378 227.709 58.8107C227.502 58.7835 227.243 58.7594 226.931 58.7382C226.451 58.7055 226.005 58.7339 225.594 58.8234C225.198 58.9008 224.83 58.928 224.492 58.9051C224.155 58.8821 223.799 58.8318 223.426 58.7542C223.067 58.6645 222.705 58.6073 222.341 58.5826C222.121 58.5675 221.904 58.5789 221.693 58.6168C221.496 58.6425 221.289 58.7002 221.074 58.79C220.88 58.7768 220.702 58.7059 220.541 58.5775C220.394 58.437 220.21 58.3593 219.989 58.3442C219.872 58.3363 219.767 58.3487 219.673 58.3815C219.58 58.4143 219.468 58.4262 219.338 58.4174C219.117 58.4024 218.912 58.3428 218.724 58.2386C218.548 58.1353 218.35 58.0761 218.129 58.0611C217.804 58.039 217.461 58.0875 217.101 58.2065C216.741 58.3126 216.38 58.3532 216.016 58.3285C215.808 58.3143 215.623 58.2561 215.46 58.1536C215.31 58.0521 215.162 57.9311 215.015 57.7906C214.882 57.6379 214.755 57.4858 214.635 57.334C214.515 57.1823 214.381 57.0427 214.233 56.9151C214.217 56.7575 214.169 56.5062 214.088 56.1614C214.02 55.8175 213.947 55.4601 213.868 55.0893C213.788 54.7185 213.72 54.3745 213.664 54.0574C213.607 53.7403 213.582 53.5298 213.589 53.4259C213.599 53.283 213.628 53.1479 213.675 53.0207C213.724 52.8804 213.753 52.7389 213.763 52.596C213.775 52.4141 213.754 52.243 213.7 52.0827C213.647 51.9094 213.626 51.7318 213.638 51.5499C213.641 51.511 213.65 51.3876 213.664 51.1797C213.691 50.9727 213.712 50.7523 213.728 50.5185C213.758 50.2726 213.78 50.0457 213.794 49.8378C213.821 49.6308 213.843 49.5083 213.858 49.4702C213.845 49.2866 213.804 49.1142 213.737 48.953C213.683 48.7797 213.63 48.5999 213.578 48.4136C213.756 47.7079 213.874 47.0373 213.93 46.4016C213.987 45.7529 214.041 45.0584 214.091 44.3179C214.096 44.2529 214.066 44.2053 214.003 44.1749C213.941 44.1315 213.865 44.1002 213.775 44.081C213.698 44.0627 213.614 44.0505 213.523 44.0443C213.445 44.039 213.386 44.035 213.347 44.0324C213.269 44.0271 213.185 44.0148 213.095 43.9957C213.005 43.9765 212.931 43.9192 212.872 43.8239C212.643 43.743 212.449 43.6124 212.292 43.432C212.148 43.2395 211.991 43.0527 211.821 42.8714L211.837 42.6376C211.839 42.4159 211.872 42.2093 211.938 42.018C212.017 41.8146 212.095 41.6176 212.174 41.4272C212.266 41.2246 212.351 41.0281 212.429 40.8377C212.508 40.6343 212.568 40.423 212.609 40.2039C212.731 40.1339 212.858 40.0904 212.99 40.0732C213.123 40.0431 213.176 39.9293 213.15 39.7318C213.287 39.6367 213.459 39.6027 213.666 39.6298C213.887 39.6448 214.069 39.6572 214.212 39.6669L214.29 39.6722C214.339 39.532 214.367 39.3969 214.376 39.267C214.399 39.125 214.415 38.9825 214.425 38.8396C214.471 38.1641 214.451 37.4907 214.366 36.8193C214.295 36.1488 214.282 35.4758 214.328 34.8003C214.341 34.6054 214.392 34.3348 214.481 33.9885C214.57 33.6292 214.673 33.2642 214.79 32.8937C214.907 32.5101 215.03 32.1465 215.158 31.8028C215.287 31.4462 215.39 31.1726 215.468 30.9822C215.836 30.942 216.181 30.861 216.503 30.7393C216.837 30.6185 217.173 30.5696 217.511 30.5926C217.706 30.6058 217.906 30.639 218.111 30.6921C218.316 30.7452 218.51 30.778 218.692 30.7903C218.874 30.8027 219.037 30.7943 219.183 30.765C219.328 30.7358 219.481 30.7069 219.639 30.6786C219.798 30.6502 219.976 30.6232 220.173 30.5975C220.371 30.5717 220.606 30.5682 220.879 30.5867C221.918 30.6574 222.973 30.6835 224.045 30.665C225.13 30.6345 226.205 30.564 227.27 30.4537C227.335 30.4581 227.394 30.4491 227.448 30.4267C227.514 30.4051 227.587 30.397 227.665 30.4023C227.704 30.4049 227.74 30.4401 227.775 30.5077C227.823 30.5632 227.859 30.6113 227.883 30.652C227.963 30.6184 228.055 30.6051 228.159 30.6121C228.277 30.6071 228.388 30.6081 228.492 30.6152C228.869 30.6408 229.241 30.7249 229.61 30.8674C229.98 30.997 230.344 31.1131 230.702 31.2158C230.75 31.48 230.791 31.7373 230.826 31.9877C230.874 32.2389 230.889 32.4944 230.872 32.7543C230.842 33.196 230.754 33.5228 230.609 33.7348C230.465 33.9338 230.291 34.0917 230.088 34.2083C229.885 34.312 229.669 34.4148 229.44 34.5166C229.212 34.6056 228.999 34.7607 228.802 34.9822L228.509 34.9623C228.032 34.8777 227.551 34.8515 227.066 34.8837C226.581 34.916 226.092 34.9153 225.598 34.8817C225.403 34.8685 225.226 34.876 225.068 34.9044C224.923 34.9207 224.784 34.9504 224.651 34.9935C224.53 35.0375 224.403 35.0876 224.269 35.1437C224.135 35.1868 223.982 35.2286 223.81 35.2691C223.605 35.216 223.412 35.1767 223.231 35.1514C223.05 35.113 222.856 35.0868 222.649 35.0726C221.973 35.0267 221.312 35.06 220.665 35.1726C220.017 35.2852 219.368 35.3389 218.716 35.3337C218.588 35.4816 218.518 35.6465 218.506 35.8284C218.489 36.0752 218.512 36.3182 218.574 36.5573C218.649 36.7844 218.692 37.0157 218.703 37.2513C218.7 37.486 218.683 37.7328 218.652 37.9917C218.635 38.2386 218.619 38.4854 218.602 38.7322C218.598 38.9799 218.608 39.222 218.631 39.4585C218.667 39.6959 218.743 39.9164 218.86 40.1201C218.936 40.1514 219.019 40.1766 219.109 40.1958C219.212 40.2159 219.316 40.2294 219.42 40.2365C219.744 40.2586 220.071 40.2482 220.401 40.2053C220.744 40.1504 221.071 40.1335 221.383 40.1547C221.902 40.19 222.404 40.296 222.888 40.4724C223.386 40.6368 223.901 40.7371 224.434 40.7733C224.551 40.7813 224.669 40.7633 224.79 40.7193C224.923 40.6761 225.061 40.6594 225.204 40.6691C225.269 40.6736 225.332 40.704 225.394 40.7603C225.455 40.8167 225.544 40.8489 225.661 40.8568C225.843 40.8692 226.015 40.8352 226.177 40.7549C226.339 40.6746 226.524 40.6415 226.732 40.6556C226.901 40.6671 227.054 40.7167 227.192 40.8043C227.343 40.8799 227.487 40.9745 227.623 41.0882C227.76 41.1888 227.896 41.2895 228.033 41.3901C228.171 41.4778 228.317 41.5334 228.472 41.557C228.454 41.8168 228.502 42.0681 228.616 42.3107C228.73 42.5534 228.779 42.8047 228.761 43.0645C228.747 43.2723 228.654 43.4879 228.482 43.7111C228.311 43.9213 228.109 44.1164 227.875 44.2962C227.64 44.4761 227.395 44.6355 227.137 44.7746C226.893 44.9146 226.684 45.0048 226.512 45.0453C226.406 45.0642 226.302 45.0637 226.199 45.0436C226.109 45.0244 226.025 45.0122 225.947 45.0069C225.778 44.9954 225.607 45.0099 225.435 45.0504C225.262 45.0908 225.09 45.1378 224.916 45.1913C224.756 45.2456 224.583 45.2926 224.398 45.3322C224.225 45.3727 224.042 45.3863 223.847 45.373C223.561 45.3536 223.277 45.3147 222.993 45.2562C222.723 45.1987 222.439 45.1598 222.14 45.1395C221.971 45.128 221.814 45.1369 221.668 45.1661C221.523 45.1954 221.366 45.2042 221.197 45.1928C221.054 45.183 220.887 45.1391 220.697 45.0609C220.506 44.9826 220.316 44.8979 220.127 44.8067C219.937 44.7155 219.76 44.6317 219.596 44.5553C219.431 44.4788 219.303 44.4375 219.213 44.4313C219.161 44.4278 219.114 44.4442 219.072 44.4805C219.044 44.5047 219.01 44.535 218.968 44.5713C218.94 44.5955 218.9 44.6189 218.846 44.6413C218.805 44.6646 218.747 44.6607 218.671 44.6294C218.598 44.7419 218.544 44.8622 218.509 44.9903C218.488 45.1064 218.474 45.2229 218.466 45.3398C218.448 45.5996 218.457 45.8547 218.492 46.105C218.528 46.3424 218.538 46.5845 218.521 46.8313C218.508 47.0132 218.47 47.1998 218.404 47.3911C218.34 47.5695 218.302 47.7496 218.289 47.9314C218.278 48.1003 218.287 48.3424 218.318 48.6577C218.35 48.9601 218.387 49.2823 218.429 49.6245C218.484 49.9676 218.525 50.3162 218.553 50.6705C218.582 51.0118 218.588 51.3059 218.572 51.5527C218.544 51.9554 218.497 52.3568 218.431 52.7569C218.365 53.1439 218.319 53.5388 218.292 53.9415C218.648 54.0702 219.001 54.1595 219.35 54.2093C219.699 54.2592 220.055 54.2964 220.419 54.3212C221.277 54.3795 222.144 54.3863 223.021 54.3416C223.899 54.2969 224.774 54.2911 225.646 54.3243C225.919 54.3429 226.185 54.3675 226.443 54.3982C226.715 54.4297 226.988 54.4548 227.261 54.4733C227.585 54.4954 227.895 54.4447 228.191 54.3213C228.487 54.1978 228.777 54.1458 229.063 54.1652C229.557 54.1988 229.899 54.444 230.09 54.9007L230.248 54.8723C230.366 54.8673 230.463 54.8869 230.538 54.9312C230.613 54.9754 230.681 55.0258 230.743 55.0822C230.817 55.1394 230.885 55.2027 230.945 55.2721C231.006 55.3415 231.08 55.4052 231.167 55.4634ZM252.06 44.7276C252.038 45.0394 251.949 45.3922 251.792 45.7861C251.648 46.1808 251.485 46.5613 251.303 46.9274C251.135 47.2814 250.976 47.6034 250.826 47.8934C250.69 48.1712 250.625 48.3561 250.632 48.4479C250.517 48.5967 250.378 48.7243 250.214 48.8306C250.051 48.9239 249.906 49.0445 249.779 49.1925C249.665 49.3283 249.582 49.4988 249.529 49.704C249.475 49.9092 249.367 50.0585 249.204 50.1518C249.122 50.2115 249.014 50.2693 248.879 50.3255C248.746 50.3686 248.606 50.4178 248.458 50.473C248.311 50.5282 248.171 50.5774 248.037 50.6205C247.904 50.6637 247.81 50.7029 247.755 50.7384C247.647 50.7963 247.55 50.8745 247.465 50.9731C247.394 51.0597 247.303 51.1449 247.193 51.2287C247.126 51.2503 247.061 51.2589 246.996 51.2544C246.932 51.237 246.865 51.2586 246.795 51.3191L246.663 51.545C246.567 51.6038 246.462 51.6227 246.346 51.6017C246.229 51.5808 246.118 51.5863 246.012 51.6182C245.435 51.84 244.853 52.0549 244.265 52.2628C243.69 52.4587 243.086 52.6068 242.453 52.7073C242.529 52.9343 242.647 53.1186 242.807 53.26C242.967 53.4013 243.141 53.5241 243.33 53.6283C243.532 53.7204 243.735 53.8125 243.938 53.9046C244.153 53.9975 244.354 54.1091 244.541 54.2393C244.641 54.3113 244.719 54.4015 244.777 54.5098C244.848 54.6191 244.933 54.7162 245.032 54.8012C245.34 55.0571 245.663 55.301 246 55.5327C246.349 55.7653 246.693 55.9974 247.029 56.2291C247.366 56.4608 247.695 56.7051 248.017 56.9619C248.353 57.2066 248.667 57.4825 248.959 57.7895C249.229 57.847 249.464 57.9413 249.664 58.0723C249.865 58.1904 250.051 58.3336 250.222 58.5018C250.394 58.6571 250.552 58.831 250.696 59.0235C250.852 59.2168 251.008 59.4167 251.164 59.623L251.149 59.8374C251.125 60.2011 251.085 60.4986 251.03 60.7298C250.975 60.9609 250.884 61.1505 250.756 61.2984C250.629 61.4464 250.457 61.5652 250.243 61.655C250.04 61.7587 249.772 61.8579 249.439 61.9528C249.333 61.9847 249.227 62.0101 249.121 62.029C249.014 62.0609 248.903 62.0729 248.786 62.0649C248.604 62.0525 248.383 62.0375 248.123 62.0198C247.875 62.016 247.668 61.9889 247.502 61.9385C247.464 61.9228 247.376 61.8777 247.237 61.803C247.112 61.7292 246.968 61.6411 246.805 61.5387C246.654 61.4501 246.51 61.362 246.373 61.2743C246.248 61.1876 246.168 61.1234 246.131 61.0817C245.96 60.9135 245.81 60.7205 245.681 60.503C245.553 60.2854 245.395 60.1115 245.208 59.9814C244.971 59.8217 244.71 59.7191 244.426 59.6737C244.155 59.6292 243.907 59.5275 243.683 59.3687C243.409 59.1804 243.183 58.9562 243.005 58.6961C242.828 58.423 242.602 58.1858 242.329 57.9845C242.093 57.8118 241.822 57.6629 241.517 57.5378C241.226 57.4135 240.955 57.2711 240.705 57.1105C240.495 56.9396 240.312 56.738 240.159 56.5057C240.019 56.2612 239.844 56.0406 239.636 55.8437C239.538 55.7457 239.419 55.6723 239.279 55.6236C239.139 55.5749 239.013 55.5076 238.901 55.4218C238.803 55.3367 238.725 55.2271 238.669 55.0927C238.613 54.9584 238.513 54.8864 238.371 54.8767L238.293 54.8714C238.098 55.0409 237.991 55.2685 237.972 55.5543C237.949 55.8921 237.972 56.2329 238.04 56.5769C238.108 56.9078 238.131 57.2422 238.108 57.58C238.099 57.7229 238.056 57.87 237.98 58.0215C237.906 58.16 237.851 58.2998 237.815 58.4409C237.752 58.5933 237.728 58.7548 237.743 58.9254C237.758 59.0831 237.76 59.2399 237.75 59.3958C237.737 59.5906 237.658 59.7811 237.515 59.9671C237.372 60.1531 237.198 60.3174 236.992 60.4601C236.787 60.6027 236.571 60.712 236.344 60.7879C236.116 60.8768 235.904 60.9146 235.709 60.9014C235.437 60.8828 235.161 60.8119 234.882 60.6885C234.602 60.5781 234.316 60.4803 234.021 60.395C233.885 60.0986 233.755 59.7961 233.633 59.4876C233.523 59.18 233.479 58.8638 233.501 58.539C233.509 58.4221 233.529 58.3191 233.562 58.2299C233.595 58.1278 233.634 58.026 233.68 57.9248C233.539 57.5106 233.456 57.0938 233.432 56.6746C233.409 56.2554 233.411 55.8379 233.439 55.4222C233.478 54.8506 233.568 54.302 233.708 53.7765C233.862 53.2388 233.958 52.6907 233.996 52.1321C233.998 52.1061 233.993 52.0796 233.982 52.0528C233.984 52.0138 233.974 51.9804 233.949 51.9527L233.723 51.8199C233.702 51.7532 233.699 51.6943 233.716 51.6432C233.732 51.5921 233.743 51.5341 233.747 51.4691C233.754 51.3782 233.755 51.2673 233.75 51.1365C233.746 51.0057 233.729 50.8741 233.699 50.7415C233.682 50.6098 233.651 50.4903 233.606 50.3828C233.562 50.2624 233.509 50.1739 233.448 50.1176C233.65 49.8311 233.756 49.5121 233.767 49.1605C233.779 48.7958 233.797 48.4317 233.822 48.0679C233.842 47.7821 233.906 47.5124 234.014 47.2588C234.123 47.0051 234.187 46.7354 234.206 46.4496C234.235 46.0339 234.244 45.6104 234.234 45.1791C234.225 44.7347 234.235 44.3047 234.263 43.889C234.29 43.4863 234.251 43.1051 234.145 42.7455C234.04 42.373 234 41.9983 234.026 41.6216C234.036 41.4657 234.078 41.325 234.152 41.1995C234.227 41.061 234.283 40.9147 234.319 40.7606C234.401 40.5182 234.431 40.2722 234.408 40.0228C234.399 39.7742 234.403 39.5265 234.42 39.2796C234.428 39.1627 234.459 39.0865 234.514 39.0511C234.569 39.0027 234.601 38.9265 234.608 38.8226C234.617 38.6797 234.582 38.5207 234.503 38.3456C234.424 38.1706 234.391 37.9726 234.406 37.7518C234.435 37.336 234.482 36.9217 234.55 36.5086C234.618 36.0826 234.667 35.6487 234.697 35.207C234.71 35.0122 234.756 34.8195 234.834 34.6291C234.912 34.4386 234.99 34.2547 235.067 34.0772C235.146 33.8868 235.204 33.7015 235.242 33.5214C235.294 33.3292 235.295 33.1334 235.243 32.9341C235.341 32.8364 235.449 32.785 235.567 32.78C235.685 32.7749 235.797 32.7565 235.903 32.7246C236.118 32.6348 236.321 32.5376 236.51 32.4331C236.7 32.3285 236.902 32.2443 237.115 32.1805C237.343 32.0916 237.562 32.0413 237.771 32.0294C237.981 32.0176 238.204 32.0001 238.44 31.9771C238.546 31.9581 238.64 31.9189 238.722 31.8592C238.805 31.7996 238.904 31.7737 239.021 31.7817C239.125 31.7887 239.221 31.8148 239.31 31.86C239.411 31.906 239.514 31.9326 239.617 31.9397C239.69 31.8402 239.745 31.7982 239.783 31.8139C239.834 31.8304 239.911 31.8422 240.015 31.8493C240.093 31.8546 240.185 31.8478 240.291 31.8288C240.396 31.8099 240.502 31.791 240.608 31.7721C240.713 31.7532 240.812 31.7403 240.904 31.7335C240.996 31.7267 241.073 31.7385 241.136 31.7689C241.266 31.7778 241.391 31.7667 241.511 31.7356C241.63 31.7046 241.749 31.6931 241.865 31.701C242.008 31.7108 242.123 31.7577 242.208 31.8418C242.307 31.9268 242.427 31.9872 242.568 32.0229C242.735 32.0604 242.904 32.0719 243.075 32.0574C243.245 32.0429 243.408 32.0409 243.564 32.0515C243.759 32.0648 243.927 32.0958 244.067 32.1444C244.22 32.194 244.36 32.2557 244.485 32.3295C244.624 32.3912 244.763 32.4594 244.902 32.534C245.04 32.6087 245.199 32.6782 245.377 32.7425C245.632 32.8252 245.903 32.8762 246.189 32.8956C246.476 32.9021 246.758 32.967 247.037 33.0904C247.188 33.1659 247.352 33.2554 247.528 33.3587C247.704 33.449 247.86 33.551 247.996 33.6646C248.097 33.7236 248.164 33.7935 248.197 33.8741C248.231 33.9547 248.285 34.0301 248.358 34.1003C248.484 34.1741 248.605 34.2085 248.723 34.2035C248.841 34.1984 248.931 34.2176 248.993 34.261C249.081 34.3191 249.209 34.4518 249.377 34.6591C249.546 34.8663 249.726 35.0939 249.918 35.3419C250.123 35.5907 250.315 35.8322 250.495 36.0663C250.675 36.3004 250.82 36.4799 250.929 36.6048L250.859 36.7567C250.849 36.9126 250.872 37.0577 250.928 37.192C250.997 37.3272 251.079 37.4568 251.175 37.5808C251.272 37.6918 251.369 37.8093 251.465 37.9333C251.561 38.0573 251.636 38.1929 251.691 38.3402C251.751 38.4226 251.77 38.5218 251.749 38.6378C251.729 38.7409 251.747 38.8595 251.804 38.9939C251.892 39.2218 251.968 39.4488 252.031 39.675C252.095 39.8881 252.205 40.0979 252.36 40.3042C252.378 40.4229 252.363 40.5524 252.314 40.6926C252.28 40.8208 252.257 40.9563 252.248 41.0992C252.23 41.359 252.266 41.5964 252.356 41.8113C252.459 42.0271 252.5 42.2779 252.481 42.5637C252.455 42.9404 252.385 43.2946 252.272 43.6262C252.158 43.9577 252.087 44.3249 252.06 44.7276ZM246.812 38.1258L246.528 37.989C246.422 37.8121 246.292 37.6141 246.137 37.3947C245.983 37.1754 245.802 37.0456 245.596 37.0055C245.55 36.911 245.488 36.8612 245.41 36.8559C245.346 36.8514 245.279 36.873 245.21 36.9206C245.156 36.956 245.083 36.9706 244.992 36.9644C244.849 36.9547 244.683 36.9042 244.493 36.813C244.305 36.7089 244.028 36.6444 243.665 36.6196C243.561 36.6126 243.44 36.5652 243.302 36.4775C243.165 36.3899 243.038 36.3291 242.923 36.2951C242.627 36.2359 242.298 36.1873 241.935 36.1496C241.573 36.0989 241.242 36.0634 240.944 36.043C240.814 36.0342 240.708 36.0596 240.625 36.1193C240.543 36.1789 240.442 36.2177 240.324 36.2358C240.191 36.2659 240.033 36.2813 239.851 36.2819C239.668 36.2825 239.49 36.3031 239.318 36.3436C239.159 36.3719 239.018 36.4341 238.894 36.5301C238.784 36.6139 238.722 36.7598 238.708 36.9676C238.691 37.2145 238.721 37.4449 238.798 37.6589C238.875 37.873 238.905 38.1034 238.888 38.3502C238.87 38.6101 238.807 38.8603 238.7 39.1009C238.592 39.3416 238.529 39.5918 238.512 39.8516C238.478 40.3453 238.47 40.8472 238.487 41.3573C238.506 41.8545 238.497 42.3629 238.462 42.8826C238.431 43.3373 238.44 43.7881 238.487 44.2351C238.536 44.6691 238.545 45.1134 238.514 45.5681C238.491 45.9059 238.442 46.2483 238.366 46.5956C238.291 46.9298 238.242 47.2658 238.219 47.6035C238.209 47.7594 238.205 47.9158 238.207 48.0725C238.222 48.2302 238.258 48.3827 238.313 48.53C238.526 48.4662 238.75 48.4357 238.985 48.4387C239.233 48.4295 239.48 48.4398 239.726 48.4695C239.973 48.4863 240.219 48.5161 240.464 48.5589C240.71 48.5887 240.944 48.6046 241.166 48.6066L241.672 48.6411C241.796 48.5451 241.918 48.4816 242.038 48.4506C242.171 48.4074 242.304 48.3773 242.435 48.3602C242.58 48.3439 242.718 48.3272 242.85 48.3101C242.995 48.2938 243.134 48.2641 243.267 48.221C243.388 48.177 243.51 48.107 243.634 48.011C243.758 47.915 243.874 47.8316 243.984 47.7607C244.107 47.6777 244.228 47.6142 244.349 47.5702C244.483 47.5141 244.621 47.4974 244.763 47.5201L244.997 47.536C245.06 47.3837 245.147 47.2526 245.259 47.1427C245.371 47.0329 245.489 46.93 245.613 46.834C245.738 46.725 245.856 46.6156 245.968 46.5058C246.094 46.3838 246.194 46.2471 246.27 46.0956C246.428 46.0673 246.583 46.006 246.733 45.9118C246.883 45.8046 246.997 45.6752 247.072 45.5238L247.356 45.3864L247.373 45.1331L247.615 45.0321C247.688 44.9196 247.721 44.811 247.715 44.7061C247.722 44.6022 247.73 44.4853 247.739 44.3554C247.745 44.2645 247.773 44.1489 247.821 44.0086C247.884 43.8563 247.947 43.6909 248.012 43.5126C248.09 43.3221 248.156 43.1178 248.21 42.8996C248.278 42.6693 248.321 42.4243 248.338 42.1644C248.347 42.0345 248.341 41.9297 248.32 41.85C248.3 41.7703 248.272 41.7031 248.236 41.6485C248.202 41.5809 248.161 41.5129 248.113 41.4444C248.066 41.3759 248.026 41.2819 247.995 41.1623C247.975 41.0696 247.963 40.9643 247.958 40.8465C247.954 40.7158 247.949 40.5915 247.944 40.4737C247.952 40.3567 247.947 40.2454 247.928 40.1397C247.922 40.0349 247.895 39.9483 247.848 39.8798C247.686 39.5686 247.504 39.2756 247.301 39.0008C247.097 38.726 246.934 38.4343 246.812 38.1258Z" fill="white"/>
<path d="M3.14339 60.1665L24.7988 55.8807L21.6559 40L3.14339 60.1665Z" fill="#995791"/>
</svg>
