<?xml version="1.0" encoding="UTF-8"?>
<svg id="Livello_2" data-name="Livello 2" xmlns="http://www.w3.org/2000/svg" viewBox="0 0 200 55.81">
  <defs>
    <style>
      .cls-1 {
        fill: #eee;
      }
    </style>
  </defs>
  <g id="Layer_2" data-name="Layer 2">
    <g>
      <path class="cls-1" d="M86.51,2.7h6.28c1.23,0,2.46.34,3.78.98,2.5,1.23,3.78,3.44,3.78,6.58-.04,1.74-.59,3.44-1.74,5.01,1.15,1.27,1.74,2.97,1.74,5.05,0,4.63-2.5,7.55-7.55,7.55h-6.28c-.85,0-1.27-.43-1.27-1.28V3.97c-.01-.76.41-1.19,1.26-1.27ZM92.79,7.75h-2.5s0,5.01,0,5.01h2.5c1.66-.13,2.5-.93,2.5-2.5,0-1.66-.85-2.5-2.51-2.5ZM92.8,22.81c1.74-.13,2.55-.93,2.5-2.5-.04-1.66-.89-2.5-2.51-2.51h-2.5s0,5.01,0,5.01h2.5Z"/>
      <path class="cls-1" d="M111.3,2.7c2.33.17,4.12.85,5.43,2.08,1.4,1.32,2.12,3.14,2.12,5.48v16.34c-.08.85-.5,1.27-1.27,1.27h-2.5c-.85,0-1.27-.43-1.27-1.27v-8.79s-5.01,0-5.01,0v8.79c-.08.85-.51,1.27-1.27,1.27h-2.5c-.85,0-1.27-.43-1.27-1.27V10.26c0-2.34.71-4.16,2.11-5.48,1.31-1.23,3.1-1.91,5.43-2.08ZM108.8,12.76h5.01s0-2.5,0-2.5c0-1.57-.85-2.38-2.5-2.51-1.65.13-2.5.93-2.5,2.5v2.5Z"/>
      <path class="cls-1" d="M130.25,17.82h-2.5s0,8.78,0,8.78c-.08.85-.51,1.27-1.27,1.27h-2.5c-.85,0-1.27-.43-1.27-1.27V3.98c0-.85.41-1.27,1.26-1.27h6.28c1.23,0,2.46.34,3.78.98,2.5,1.23,3.78,3.44,3.78,6.58,0,2.08-.59,3.78-1.74,5.05,1.15,1.61,1.74,3.27,1.74,5.01v6.28c-.08.85-.51,1.27-1.27,1.27h-2.5c-.85,0-1.27-.43-1.27-1.27v-6.28c0-1.66-.85-2.5-2.51-2.5ZM127.74,12.77h2.5c1.61,0,2.46-.85,2.5-2.5.04-1.66-.77-2.5-2.51-2.51h-2.5s0,5.01,0,5.01Z"/>
      <path class="cls-1" d="M152.95,12.77c-.85,0-1.27-.42-1.27-1.23v-1.27c0-1.57-.85-2.38-2.51-2.5-1.65.13-2.5.93-2.5,2.5v10.06c0,1.57.85,2.38,2.51,2.5,1.65-.13,2.5-.93,2.5-2.5v-1.23c0-.85.42-1.27,1.27-1.27h2.5c.76,0,1.19.43,1.27,1.27v1.23c0,4.63-2.5,7.17-7.55,7.55-5.05-.38-7.56-2.93-7.56-7.56v-10.06c0-2.08.72-3.95,2.16-5.52,1.31-1.4,3.1-2.08,5.39-2.04.81.04,1.61.17,2.42.43,3.44,1.1,5.14,3.48,5.14,7.13v1.27c-.08.81-.51,1.23-1.27,1.23h-2.5Z"/>
      <path class="cls-1" d="M167.23,2.72c.85.04,1.7.21,2.5.47,3.35,1.1,5.05,3.48,5.05,7.09v10.06c0,4.63-2.5,7.17-7.55,7.55-5.05-.38-7.56-2.93-7.56-7.56v-10.06c0-2.12.71-3.95,2.11-5.43,1.4-1.49,3.18-2.16,5.43-2.12ZM167.24,22.84c1.66-.13,2.5-.93,2.5-2.5v-10.06c0-1.57-.85-2.38-2.51-2.51-1.65.13-2.5.93-2.5,2.5v10.06c0,1.57.85,2.38,2.51,2.5Z"/>
      <path class="cls-1" d="M20.43,2.72c1.23,0,2.46.34,3.78.98,2.5,1.23,3.78,3.44,3.78,6.58v2.5c0,1.23-.34,2.46-.97,3.78-1.23,2.5-3.44,3.78-6.58,3.78h-2.5s0,6.28,0,6.28c-.08.85-.51,1.27-1.27,1.27h-2.5c-.85,0-1.27-.42-1.27-1.27V3.99c-.01-.85.41-1.27,1.26-1.27h6.28ZM22.94,12.78v-2.5c0-1.66-.85-2.5-2.51-2.51h-2.5s0,7.55,0,7.55h2.5c1.66,0,2.5-.85,2.5-2.55Z"/>
      <path class="cls-1" d="M38.83,2.73c2.33.17,4.12.85,5.43,2.08,1.4,1.32,2.12,3.14,2.12,5.48v16.34c-.08.85-.5,1.27-1.27,1.27h-2.5c-.85,0-1.27-.42-1.27-1.27v-8.79s-5.01,0-5.01,0v8.79c-.08.85-.5,1.27-1.27,1.27h-2.5c-.85,0-1.27-.43-1.27-1.27V10.28c0-2.33.71-4.16,2.11-5.47,1.31-1.23,3.1-1.91,5.43-2.08ZM36.33,12.78h5.01s0-2.5,0-2.5c0-1.57-.85-2.38-2.51-2.5-1.65.13-2.5.93-2.5,2.5v2.5Z"/>
      <path class="cls-1" d="M64.05,2.73c.85.08,1.27.51,1.27,1.27v22.62c-.07.85-.5,1.27-1.26,1.27h-2.5c-.85,0-1.27-.43-1.27-1.27l-5.01-11.29v11.29c-.08.85-.5,1.27-1.27,1.27h-2.5c-.85,0-1.27-.43-1.27-1.27V4c-.01-.85.41-1.27,1.26-1.27h2.5c.85.09,1.27.51,1.27,1.27l5.01,11.33V4.01c0-.85.42-1.27,1.27-1.27h2.5Z"/>
      <path class="cls-1" d="M80.72,7.79h-6.28s0,5.01,0,5.01h3.73c.85.09,1.27.51,1.27,1.27v2.5c0,.85-.42,1.27-1.27,1.27h-3.73s0,5.01,0,5.01h6.28c.81.09,1.23.51,1.23,1.28v2.5c0,.85-.42,1.27-1.23,1.27h-10.06c-.85,0-1.27-.43-1.27-1.28V4.01c-.01-.85.41-1.27,1.26-1.27h10.06c.81.09,1.23.51,1.23,1.28v2.5c0,.85-.42,1.27-1.23,1.27Z"/>
      <path class="cls-1" d="M188,24.04c.02.24.14.35.35.35l2.1,1.05-2.1,1.04c-.24.06-.35.18-.35.35v.7c0,.24.12.35.35.35h6.3c.24,0,.35-.12.35-.35v-.7c0-.21-.12-.33-.35-.35h-3.5l.7-.34c.24,0,.35-.12.35-.35v-.7c0-.22-.12-.34-.35-.35l-.7-.34h3.5c.24,0,.35-.12.35-.35v-.7c0-.24-.12-.35-.35-.35h-6.3c-.21,0-.33.12-.35.35v.7Z"/>
      <path class="cls-1" d="M188,16.42v-1.75c0-.34.09-.68.27-1.05.34-.7.96-1.05,1.83-1.05h2.8c1.29,0,2.1.7,2.1,2.1v1.75c0,.24-.12.35-.35.35h-6.3c-.21,0-.33-.12-.35-.35ZM189.41,14.67v.7h4.19v-.7c-.04-.46-.26-.7-.7-.7h-2.8c-.46,0-.7.24-.7.7Z"/>
      <path class="cls-1" d="M189.41,8.72v.34h4.19v-.34c.02-.24.14-.35.35-.35h.7c.24,0,.35.12.35.35v2.09c0,.24-.12.35-.35.35h-.7c-.24,0-.35-.12-.35-.35v-.34h-4.19v.34c0,.24-.12.35-.35.35h-.7c-.24,0-.35-.12-.35-.35v-2.09c.02-.24.14-.35.35-.35h.7c.24,0,.35.12.35.35Z"/>
      <path class="cls-1" d="M188,4.83c.05-.65.24-1.15.58-1.51.37-.39.87-.59,1.52-.59h4.55c.24.02.35.14.35.35v.7c0,.24-.12.35-.35.35h-2.44v1.39h2.44c.24.02.35.14.35.35v.7c0,.24-.12.35-.35.35h-4.55c-.65,0-1.16-.2-1.52-.59-.34-.37-.53-.86-.58-1.51ZM190.8,5.52v-1.39h-.7c-.44,0-.66.24-.7.7.04.46.26.7.7.7h.7Z"/>
      <path class="cls-1" d="M178.68,24.04c.02.24.14.35.35.35l2.1,1.05-2.1,1.04c-.24.06-.35.18-.35.35v.7c0,.24.12.35.35.35h6.3c.24,0,.35-.12.35-.35v-.7c0-.21-.12-.33-.35-.35h-3.5l.7-.34c.24,0,.35-.12.35-.35v-.7c0-.22-.12-.34-.35-.35l-.7-.34h3.5c.24,0,.35-.12.35-.35v-.7c0-.24-.12-.35-.35-.35h-6.3c-.21,0-.33.12-.35.35v.7Z"/>
      <path class="cls-1" d="M179.04,21.5c-.24,0-.35-.12-.35-.35v-.7c.02-.24.14-.35.35-.35h4.55c.44,0,.66-.24.7-.7-.04-.46-.26-.7-.7-.7h-4.55c-.24,0-.35-.12-.35-.35v-.7c.02-.24.14-.35.35-.35h4.55c.6,0,1.1.19,1.51.58.41.39.6.9.59,1.52-.01.38-.09.73-.26,1.05-.35.7-.96,1.05-1.84,1.05h-4.55Z"/>
      <path class="cls-1" d="M184.28,12.67c.02-.22.14-.34.35-.34h.7c.24,0,.35.12.35.34v2.8c0,.24-.12.35-.35.35h-6.3c-.24,0-.35-.12-.35-.35v-.7c.02-.24.14-.35.35-.35h5.24v-1.75Z"/>
      <path class="cls-1" d="M178.69,7.35c.02-.24.14-.35.35-.35h.7c.24.02.35.14.35.35v1.05h5.24c.24,0,.35.12.35.35v.7c0,.22-.12.34-.35.34h-5.24v1.05c0,.24-.12.35-.35.35h-.7c-.24,0-.35-.12-.35-.35v-3.5Z"/>
      <path class="cls-1" d="M180.09,3.27v.34h4.19v-.34c.02-.24.14-.35.35-.35h.7c.24,0,.35.12.35.35v2.09c0,.24-.12.35-.35.35h-.7c-.24,0-.35-.12-.35-.35v-.34h-4.19v.34c0,.24-.12.35-.35.35h-.7c-.24,0-.35-.12-.35-.35v-2.09c.02-.24.14-.35.35-.35h.7c.24,0,.35.12.35.35Z"/>
      <path class="cls-1" d="M191.51,18.27c.38-.33.84-.5,1.39-.47.22,0,.44.05.64.11.98.3,1.46.97,1.46,1.99,0,.89-.35,1.5-1.05,1.84-.31.15-.66.24-1.05.26-.22.01-.34-.11-.34-.35v-.7c0-.21.12-.33.34-.35.44,0,.66-.24.7-.7-.04-.46-.26-.7-.7-.7s-.66.24-.7.7c-.01.24-.13.35-.35.35h-.7c-.24,0-.35-.12-.35-.35-.04-.46-.26-.7-.7-.7s-.66.24-.7.7c.04.46.26.7.7.7.24.02.35.14.35.35v.7c0,.25-.12.37-.35.35-.39-.02-.74-.11-1.05-.26-.7-.35-1.05-.97-1.05-1.84s.35-1.49,1.05-1.83c.34-.18.68-.26,1.05-.27.55-.01,1.03.14,1.4.47Z"/>
      <path class="cls-1" d="M7.6,0L1.74,8.84c-1.06,1.83-1.74,3.12-1.74,7.59v14.72s.37,11.87,12.35,11.87h11.48v12.79l6.07-9.28v-12.77h-12.31c-4.39,0-11.53-3.54-11.53-12.79V6.1c0-3.67,1.55-6.1,1.55-6.1Z"/>
      <path class="cls-1" d="M7.6,0L1.74,8.84c-1.06,1.83-1.74,3.12-1.74,7.59v14.72s.37,11.87,12.35,11.87h11.48v12.79l6.07-9.28v-12.77h-12.31c-4.39,0-11.53-3.54-11.53-12.79V6.1c0-3.67,1.55-6.1,1.55-6.1Z"/>
      <path class="cls-1" d="M32.22,43l6.07-9.23h152.33c2.34,0,5.74-1.23,7.4-2.89,1.66-1.66,1.98-2.11,1.98-2.11l-5.91,9.09c-2.64,2.44-3.24,5.11-11.91,5.11s-149.97.02-149.97.02Z"/>
      <path class="cls-1" d="M32.22,43l6.07-9.23h152.33c2.34,0,5.74-1.23,7.4-2.89,1.66-1.66,1.98-2.11,1.98-2.11l-5.91,9.09c-2.64,2.44-3.24,5.11-11.91,5.11s-149.97.02-149.97.02Z"/>
    </g>
  </g>
</svg>